M48
INCH,TZ
T1C0.0118
%
G90
G05
T1
X19882Y-23622
X19882Y-27559
X19882Y-31496
X19882Y-35433
X19882Y-39370
X19882Y-43307
X19882Y-47244
X19882Y-51181
X19882Y-55118
X20177Y-21457
X20177Y-25394
X20177Y-29331
X20177Y-33268
X20177Y-37205
X20177Y-41142
X20177Y-45079
X20177Y-49016
X20177Y-52953
X20177Y-56890
X20472Y-20669
X20472Y-24606
X20472Y-28543
X20472Y-32480
X20472Y-36417
X20472Y-40354
X20472Y-44291
X20472Y-48228
X20472Y-52165
X20472Y-56102
X20768Y-22244
X20768Y-26181
X20768Y-30118
X20768Y-34055
X20768Y-37992
X20768Y-41929
X20768Y-45866
X20768Y-49803
X20768Y-53740
X20768Y-57677
X21063Y-23622
X21063Y-27559
X21063Y-31496
X21063Y-35433
X21063Y-39370
X21063Y-43307
X21063Y-47244
X21063Y-51181
X21063Y-55118
X21358Y-21457
X21358Y-25394
X21358Y-29331
X21358Y-33268
X21358Y-37205
X21358Y-41142
X21358Y-45079
X21358Y-49016
X21358Y-52953
X21358Y-56890
X21654Y-20669
X21654Y-24606
X21654Y-28543
X21654Y-32480
X21654Y-36417
X21654Y-40354
X21654Y-44291
X21654Y-48228
X21654Y-52165
X21654Y-56102
X21949Y-22244
X21949Y-26181
X21949Y-30118
X21949Y-34055
X21949Y-37992
X21949Y-41929
X21949Y-45866
X21949Y-49803
X21949Y-53740
X21949Y-57677
X22244Y-19882
X22244Y-23622
X22244Y-27559
X22244Y-31496
X22244Y-35433
X22244Y-39370
X22244Y-43307
X22244Y-47244
X22244Y-51181
X22244Y-55118
X22244Y-58858
X22539Y-21457
X22539Y-25394
X22539Y-29331
X22539Y-33268
X22539Y-37205
X22539Y-41142
X22539Y-45079
X22539Y-49016
X22539Y-52953
X22539Y-56890
X22835Y-20669
X22835Y-24606
X22835Y-28543
X22835Y-32480
X22835Y-36417
X22835Y-40354
X22835Y-44291
X22835Y-48228
X22835Y-52165
X22835Y-56102
X23130Y-22244
X23130Y-26181
X23130Y-30118
X23130Y-34055
X23130Y-37992
X23130Y-41929
X23130Y-45866
X23130Y-49803
X23130Y-53740
X23130Y-57677
X23425Y-19882
X23425Y-23622
X23425Y-27559
X23425Y-31496
X23425Y-35433
X23425Y-39370
X23425Y-43307
X23425Y-47244
X23425Y-51181
X23425Y-55118
X23425Y-58858
X23720Y-21457
X23720Y-25394
X23720Y-29331
X23720Y-33268
X23720Y-37205
X23720Y-41142
X23720Y-45079
X23720Y-49016
X23720Y-52953
X23720Y-56890
X24016Y-20669
X24016Y-24606
X24016Y-28543
X24016Y-32480
X24016Y-36417
X24016Y-40354
X24016Y-44291
X24016Y-48228
X24016Y-52165
X24016Y-56102
X24311Y-22244
X24311Y-26181
X24311Y-30118
X24311Y-34055
X24311Y-37992
X24311Y-41929
X24311Y-45866
X24311Y-49803
X24311Y-53740
X24311Y-57677
X24606Y-19882
X24606Y-23622
X24606Y-27559
X24606Y-31496
X24606Y-35433
X24606Y-39370
X24606Y-43307
X24606Y-47244
X24606Y-51181
X24606Y-55118
X24606Y-58858
X24902Y-21457
X24902Y-25394
X24902Y-29331
X24902Y-33268
X24902Y-37205
X24902Y-41142
X24902Y-45079
X24902Y-49016
X24902Y-52953
X24902Y-56890
X25197Y-20669
X25197Y-24606
X25197Y-28543
X25197Y-32480
X25197Y-36417
X25197Y-40354
X25197Y-44291
X25197Y-48228
X25197Y-52165
X25197Y-56102
X25492Y-22244
X25492Y-26181
X25492Y-30118
X25492Y-34055
X25492Y-37992
X25492Y-41929
X25492Y-45866
X25492Y-49803
X25492Y-53740
X25492Y-57677
X25787Y-19882
X25787Y-23622
X25787Y-27559
X25787Y-31496
X25787Y-35433
X25787Y-39370
X25787Y-43307
X25787Y-47244
X25787Y-51181
X25787Y-55118
X25787Y-58858
X26083Y-21457
X26083Y-25394
X26083Y-29331
X26083Y-33268
X26083Y-37205
X26083Y-41142
X26083Y-45079
X26083Y-49016
X26083Y-52953
X26083Y-56890
X26378Y-20669
X26378Y-24606
X26378Y-28543
X26378Y-32480
X26378Y-36417
X26378Y-40354
X26378Y-44291
X26378Y-48228
X26378Y-52165
X26378Y-56102
X26673Y-22244
X26673Y-26181
X26673Y-30118
X26673Y-34055
X26673Y-37992
X26673Y-41929
X26673Y-45866
X26673Y-49803
X26673Y-53740
X26673Y-57677
X26969Y-19882
X26969Y-23622
X26969Y-27559
X26969Y-31496
X26969Y-35433
X26969Y-39370
X26969Y-43307
X26969Y-47244
X26969Y-51181
X26969Y-55118
X26969Y-58858
X27264Y-21457
X27264Y-25394
X27264Y-29331
X27264Y-33268
X27264Y-37205
X27264Y-41142
X27264Y-45079
X27264Y-49016
X27264Y-52953
X27264Y-56890
X27559Y-20669
X27559Y-24606
X27559Y-28543
X27559Y-32480
X27559Y-36417
X27559Y-40354
X27559Y-44291
X27559Y-48228
X27559Y-52165
X27559Y-56102
X27854Y-22244
X27854Y-26181
X27854Y-30118
X27854Y-34055
X27854Y-37992
X27854Y-41929
X27854Y-45866
X27854Y-49803
X27854Y-53740
X27854Y-57677
X28150Y-19882
X28150Y-23622
X28150Y-27559
X28150Y-31496
X28150Y-35433
X28150Y-39370
X28150Y-43307
X28150Y-47244
X28150Y-51181
X28150Y-55118
X28150Y-58858
X28445Y-21457
X28445Y-25394
X28445Y-29331
X28445Y-33268
X28445Y-37205
X28445Y-41142
X28445Y-45079
X28445Y-49016
X28445Y-52953
X28445Y-56890
X28740Y-20669
X28740Y-24606
X28740Y-28543
X28740Y-32480
X28740Y-36417
X28740Y-40354
X28740Y-44291
X28740Y-48228
X28740Y-52165
X28740Y-56102
X29035Y-22244
X29035Y-26181
X29035Y-30118
X29035Y-34055
X29035Y-37992
X29035Y-41929
X29035Y-45866
X29035Y-49803
X29035Y-53740
X29035Y-57677
X29331Y-19882
X29331Y-23622
X29331Y-27559
X29331Y-31496
X29331Y-35433
X29331Y-39370
X29331Y-43307
X29331Y-47244
X29331Y-51181
X29331Y-55118
X29331Y-58858
X29626Y-21457
X29626Y-25394
X29626Y-29331
X29626Y-33268
X29626Y-37205
X29626Y-41142
X29626Y-45079
X29626Y-49016
X29626Y-52953
X29626Y-56890
X29921Y-20669
X29921Y-24606
X29921Y-28543
X29921Y-32480
X29921Y-36417
X29921Y-40354
X29921Y-44291
X29921Y-48228
X29921Y-52165
X29921Y-56102
X30217Y-22244
X30217Y-26181
X30217Y-30118
X30217Y-34055
X30217Y-37992
X30217Y-41929
X30217Y-45866
X30217Y-49803
X30217Y-53740
X30217Y-57677
X30512Y-19882
X30512Y-23622
X30512Y-27559
X30512Y-31496
X30512Y-35433
X30512Y-39370
X30512Y-43307
X30512Y-47244
X30512Y-51181
X30512Y-55118
X30512Y-58858
X30807Y-21457
X30807Y-25394
X30807Y-29331
X30807Y-33268
X30807Y-37205
X30807Y-41142
X30807Y-45079
X30807Y-49016
X30807Y-52953
X30807Y-56890
X31102Y-20669
X31102Y-24606
X31102Y-28543
X31102Y-32480
X31102Y-36417
X31102Y-40354
X31102Y-44291
X31102Y-48228
X31102Y-52165
X31102Y-56102
X31398Y-22244
X31398Y-26181
X31398Y-30118
X31398Y-34055
X31398Y-37992
X31398Y-41929
X31398Y-45866
X31398Y-49803
X31398Y-53740
X31398Y-57677
X31693Y-19882
X31693Y-23622
X31693Y-27559
X31693Y-31496
X31693Y-35433
X31693Y-39370
X31693Y-43307
X31693Y-47244
X31693Y-51181
X31693Y-55118
X31693Y-58858
X31988Y-21457
X31988Y-25394
X31988Y-29331
X31988Y-33268
X31988Y-37205
X31988Y-41142
X31988Y-45079
X31988Y-49016
X31988Y-52953
X31988Y-56890
X32283Y-20669
X32283Y-24606
X32283Y-28543
X32283Y-32480
X32283Y-36417
X32283Y-40354
X32283Y-44291
X32283Y-48228
X32283Y-52165
X32283Y-56102
X32579Y-22244
X32579Y-26181
X32579Y-30118
X32579Y-34055
X32579Y-37992
X32579Y-41929
X32579Y-45866
X32579Y-49803
X32579Y-53740
X32579Y-57677
X32874Y-19882
X32874Y-23622
X32874Y-27559
X32874Y-31496
X32874Y-35433
X32874Y-39370
X32874Y-43307
X32874Y-47244
X32874Y-51181
X32874Y-55118
X32874Y-58858
X33169Y-21457
X33169Y-25394
X33169Y-29331
X33169Y-33268
X33169Y-37205
X33169Y-41142
X33169Y-45079
X33169Y-49016
X33169Y-52953
X33169Y-56890
X33465Y-20669
X33465Y-24606
X33465Y-28543
X33465Y-32480
X33465Y-36417
X33465Y-40354
X33465Y-44291
X33465Y-48228
X33465Y-52165
X33465Y-56102
X33760Y-22244
X33760Y-26181
X33760Y-30118
X33760Y-34055
X33760Y-37992
X33760Y-41929
X33760Y-45866
X33760Y-49803
X33760Y-53740
X33760Y-57677
X34055Y-19882
X34055Y-23622
X34055Y-27559
X34055Y-31496
X34055Y-35433
X34055Y-39370
X34055Y-43307
X34055Y-47244
X34055Y-51181
X34055Y-55118
X34055Y-58858
X34350Y-21457
X34350Y-25394
X34350Y-29331
X34350Y-33268
X34350Y-37205
X34350Y-41142
X34350Y-45079
X34350Y-49016
X34350Y-52953
X34350Y-56890
X34646Y-20669
X34646Y-24606
X34646Y-28543
X34646Y-32480
X34646Y-36417
X34646Y-40354
X34646Y-44291
X34646Y-48228
X34646Y-52165
X34646Y-56102
X34941Y-22244
X34941Y-26181
X34941Y-30118
X34941Y-34055
X34941Y-37992
X34941Y-41929
X34941Y-45866
X34941Y-49803
X34941Y-53740
X34941Y-57677
X35236Y-19882
X35236Y-23622
X35236Y-27559
X35236Y-31496
X35236Y-35433
X35236Y-39370
X35236Y-43307
X35236Y-47244
X35236Y-51181
X35236Y-55118
X35236Y-58858
X35531Y-21457
X35531Y-25394
X35531Y-29331
X35531Y-33268
X35531Y-37205
X35531Y-41142
X35531Y-45079
X35531Y-49016
X35531Y-52953
X35531Y-56890
X35827Y-20669
X35827Y-24606
X35827Y-28543
X35827Y-32480
X35827Y-36417
X35827Y-40354
X35827Y-44291
X35827Y-48228
X35827Y-52165
X35827Y-56102
X36122Y-22244
X36122Y-26181
X36122Y-30118
X36122Y-34055
X36122Y-37992
X36122Y-41929
X36122Y-45866
X36122Y-49803
X36122Y-53740
X36122Y-57677
X36417Y-19882
X36417Y-23622
X36417Y-27559
X36417Y-31496
X36417Y-35433
X36417Y-39370
X36417Y-43307
X36417Y-47244
X36417Y-51181
X36417Y-55118
X36417Y-58858
X36713Y-21457
X36713Y-25394
X36713Y-29331
X36713Y-33268
X36713Y-37205
X36713Y-41142
X36713Y-45079
X36713Y-49016
X36713Y-52953
X37008Y-20669
X37008Y-24606
X37008Y-28543
X37008Y-32480
X37008Y-36417
X37008Y-40354
X37008Y-44291
X37008Y-48228
X37008Y-52165
X37303Y-22244
X37303Y-26181
X37303Y-30118
X37303Y-34055
X37303Y-37992
X37303Y-41929
X37303Y-45866
X37303Y-49803
X37303Y-53740
X37598Y-19882
X37598Y-23622
X37598Y-27559
X37598Y-31496
X37598Y-35433
X37598Y-39370
X37598Y-43307
X37598Y-47244
X37598Y-51181
X37598Y-58858
X37894Y-21457
X37894Y-25394
X37894Y-29331
X37894Y-33268
X37894Y-37205
X37894Y-41142
X37894Y-45079
X37894Y-49016
X37894Y-52953
X38189Y-20669
X38189Y-24606
X38189Y-28543
X38189Y-32480
X38189Y-36417
X38189Y-40354
X38189Y-44291
X38189Y-48228
X38189Y-52165
X38484Y-22244
X38484Y-26181
X38484Y-30118
X38484Y-34055
X38484Y-37992
X38484Y-41929
X38484Y-45866
X38484Y-49803
X38484Y-53740
X38780Y-19882
X38780Y-23622
X38780Y-27559
X38780Y-31496
X38780Y-35433
X38780Y-39370
X38780Y-43307
X38780Y-47244
X38780Y-51181
X38780Y-58858
X39075Y-21457
X39075Y-25394
X39075Y-29331
X39075Y-33268
X39075Y-37205
X39075Y-41142
X39075Y-45079
X39075Y-49016
X39075Y-52953
X39370Y-20669
X39370Y-24606
X39370Y-28543
X39370Y-32480
X39370Y-36417
X39370Y-40354
X39370Y-44291
X39370Y-48228
X39370Y-52165
X39370Y-56102
X39665Y-22244
X39665Y-26181
X39665Y-30118
X39665Y-34055
X39665Y-37992
X39665Y-41929
X39665Y-45866
X39665Y-49803
X39961Y-19882
X39961Y-23622
X39961Y-27559
X39961Y-31496
X39961Y-35433
X39961Y-39370
X39961Y-43307
X39961Y-47244
X39961Y-51181
X39961Y-58858
X40256Y-21457
X40256Y-25394
X40256Y-29331
X40256Y-33268
X40256Y-37205
X40256Y-41142
X40256Y-45079
X40256Y-49016
X40551Y-20669
X40551Y-24606
X40551Y-28543
X40551Y-32480
X40551Y-36417
X40551Y-40354
X40551Y-44291
X40551Y-48228
X40551Y-52165
X40846Y-22244
X40846Y-26181
X40846Y-30118
X40846Y-34055
X40846Y-37992
X40846Y-41929
X40846Y-45866
X40846Y-49803
X41142Y-19882
X41142Y-23622
X41142Y-27559
X41142Y-31496
X41142Y-35433
X41142Y-39370
X41142Y-43307
X41142Y-47244
X41142Y-51181
X41142Y-58858
X41437Y-21457
X41437Y-25394
X41437Y-29331
X41437Y-33268
X41437Y-37205
X41437Y-41142
X41437Y-45079
X41437Y-49016
X41437Y-52953
X41732Y-20669
X41732Y-24606
X41732Y-28543
X41732Y-32480
X41732Y-36417
X41732Y-40354
X41732Y-44291
X41732Y-48228
X41732Y-52165
X41732Y-56102
X42028Y-22244
X42028Y-26181
X42028Y-30118
X42028Y-34055
X42028Y-37992
X42028Y-41929
X42028Y-45866
X42028Y-49803
X42028Y-53740
X42028Y-57677
X42323Y-19882
X42323Y-23622
X42323Y-27559
X42323Y-31496
X42323Y-35433
X42323Y-39370
X42323Y-43307
X42323Y-47244
X42323Y-51181
X42323Y-55118
X42323Y-58858
X42618Y-21457
X42618Y-25394
X42618Y-29331
X42618Y-33268
X42618Y-37205
X42618Y-41142
X42618Y-45079
X42618Y-49016
X42618Y-52953
X42618Y-56890
X42913Y-20669
X42913Y-24606
X42913Y-28543
X42913Y-32480
X42913Y-36417
X42913Y-40354
X42913Y-44291
X42913Y-48228
X42913Y-52165
X42913Y-56102
X43209Y-22244
X43209Y-26181
X43209Y-30118
X43209Y-34055
X43209Y-37992
X43209Y-41929
X43209Y-45866
X43209Y-49803
X43209Y-53740
X43209Y-57677
X43504Y-19882
X43504Y-23622
X43504Y-27559
X43504Y-31496
X43504Y-35433
X43504Y-39370
X43504Y-43307
X43504Y-47244
X43504Y-51181
X43504Y-55118
X43504Y-58858
X43799Y-21457
X43799Y-25394
X43799Y-29331
X43799Y-33268
X43799Y-37205
X43799Y-41142
X43799Y-45079
X43799Y-49016
X43799Y-52953
X43799Y-56890
X44094Y-20669
X44094Y-24606
X44094Y-28543
X44094Y-32480
X44094Y-36417
X44094Y-40354
X44094Y-44291
X44094Y-48228
X44094Y-52165
X44094Y-56102
X44390Y-22244
X44390Y-26181
X44390Y-30118
X44390Y-34055
X44390Y-37992
X44390Y-41929
X44390Y-45866
X44390Y-49803
X44390Y-53740
X44390Y-57677
X44685Y-19882
X44685Y-23622
X44685Y-27559
X44685Y-31496
X44685Y-35433
X44685Y-39370
X44685Y-43307
X44685Y-47244
X44685Y-51181
X44685Y-55118
X44685Y-58858
X44980Y-21457
X44980Y-25394
X44980Y-29331
X44980Y-33268
X44980Y-37205
X44980Y-41142
X44980Y-45079
X44980Y-49016
X44980Y-52953
X44980Y-56890
X45276Y-20669
X45276Y-24606
X45276Y-28543
X45276Y-32480
X45276Y-36417
X45276Y-40354
X45276Y-44291
X45276Y-48228
X45276Y-52165
X45276Y-56102
X45571Y-22244
X45571Y-26181
X45571Y-30118
X45571Y-34055
X45571Y-37992
X45571Y-41929
X45571Y-45866
X45571Y-49803
X45571Y-53740
X45571Y-57677
X45866Y-19882
X45866Y-23622
X45866Y-27559
X45866Y-31496
X45866Y-35433
X45866Y-39370
X45866Y-43307
X45866Y-47244
X45866Y-51181
X45866Y-55118
X45866Y-58858
X46161Y-21457
X46161Y-25394
X46161Y-29331
X46161Y-33268
X46161Y-37205
X46161Y-41142
X46161Y-45079
X46161Y-49016
X46161Y-52953
X46161Y-56890
X46457Y-20669
X46457Y-24606
X46457Y-28543
X46457Y-32480
X46457Y-36417
X46457Y-40354
X46457Y-44291
X46457Y-48228
X46457Y-52165
X46457Y-56102
X46752Y-22244
X46752Y-26181
X46752Y-30118
X46752Y-34055
X46752Y-37992
X46752Y-41929
X46752Y-45866
X46752Y-49803
X46752Y-53740
X46752Y-57677
X47047Y-19882
X47047Y-23622
X47047Y-27559
X47047Y-31496
X47047Y-35433
X47047Y-39370
X47047Y-43307
X47047Y-47244
X47047Y-51181
X47047Y-55118
X47047Y-58858
X47343Y-21457
X47343Y-25394
X47343Y-29331
X47343Y-33268
X47343Y-37205
X47343Y-41142
X47343Y-45079
X47343Y-49016
X47343Y-52953
X47343Y-56890
X47638Y-20669
X47638Y-24606
X47638Y-28543
X47638Y-32480
X47638Y-36417
X47638Y-40354
X47638Y-44291
X47638Y-48228
X47638Y-52165
X47638Y-56102
X47933Y-22244
X47933Y-26181
X47933Y-30118
X47933Y-34055
X47933Y-37992
X47933Y-41929
X47933Y-45866
X47933Y-49803
X47933Y-53740
X47933Y-57677
X48228Y-19882
X48228Y-23622
X48228Y-27559
X48228Y-31496
X48228Y-35433
X48228Y-39370
X48228Y-43307
X48228Y-47244
X48228Y-51181
X48228Y-55118
X48228Y-58858
X48524Y-21457
X48524Y-25394
X48524Y-29331
X48524Y-33268
X48524Y-37205
X48524Y-41142
X48524Y-45079
X48524Y-49016
X48524Y-52953
X48524Y-56890
X48819Y-20669
X48819Y-24606
X48819Y-28543
X48819Y-32480
X48819Y-36417
X48819Y-40354
X48819Y-44291
X48819Y-48228
X48819Y-52165
X48819Y-56102
X49114Y-22244
X49114Y-26181
X49114Y-30118
X49114Y-34055
X49114Y-37992
X49114Y-41929
X49114Y-45866
X49114Y-49803
X49114Y-53740
X49114Y-57677
X49409Y-19882
X49409Y-23622
X49409Y-27559
X49409Y-31496
X49409Y-35433
X49409Y-39370
X49409Y-43307
X49409Y-47244
X49409Y-51181
X49409Y-55118
X49409Y-58858
X49705Y-21457
X49705Y-25394
X49705Y-29331
X49705Y-33268
X49705Y-37205
X49705Y-41142
X49705Y-45079
X49705Y-49016
X49705Y-52953
X49705Y-56890
X50000Y-20669
X50000Y-24606
X50000Y-28543
X50000Y-32480
X50000Y-36417
X50000Y-40354
X50000Y-44291
X50000Y-48228
X50000Y-52165
X50000Y-56102
X50295Y-22244
X50295Y-26181
X50295Y-30118
X50295Y-34055
X50295Y-37992
X50295Y-41929
X50295Y-45866
X50295Y-49803
X50295Y-53740
X50295Y-57677
X50591Y-19882
X50591Y-23622
X50591Y-27559
X50591Y-31496
X50591Y-35433
X50591Y-39370
X50591Y-43307
X50591Y-47244
X50591Y-51181
X50591Y-55118
X50591Y-58858
X50886Y-21457
X50886Y-25394
X50886Y-29331
X50886Y-33268
X50886Y-37205
X50886Y-41142
X50886Y-45079
X50886Y-49016
X50886Y-52953
X50886Y-56890
X51181Y-20669
X51181Y-24606
X51181Y-28543
X51181Y-32480
X51181Y-36417
X51181Y-40354
X51181Y-44291
X51181Y-48228
X51181Y-52165
X51181Y-56102
X51476Y-22244
X51476Y-26181
X51476Y-30118
X51476Y-34055
X51476Y-37992
X51476Y-41929
X51476Y-45866
X51476Y-49803
X51476Y-53740
X51476Y-57677
X51772Y-19882
X51772Y-23622
X51772Y-27559
X51772Y-31496
X51772Y-35433
X51772Y-39370
X51772Y-43307
X51772Y-47244
X51772Y-51181
X51772Y-55118
X51772Y-58858
X52067Y-21457
X52067Y-25394
X52067Y-29331
X52067Y-33268
X52067Y-37205
X52067Y-41142
X52067Y-45079
X52067Y-49016
X52067Y-52953
X52067Y-56890
X52362Y-20669
X52362Y-24606
X52362Y-28543
X52362Y-32480
X52362Y-36417
X52362Y-40354
X52362Y-44291
X52362Y-48228
X52362Y-52165
X52362Y-56102
X52657Y-22244
X52657Y-26181
X52657Y-30118
X52657Y-34055
X52657Y-37992
X52657Y-41929
X52657Y-45866
X52657Y-49803
X52657Y-53740
X52657Y-57677
X52953Y-19882
X52953Y-23622
X52953Y-27559
X52953Y-31496
X52953Y-35433
X52953Y-39370
X52953Y-43307
X52953Y-47244
X52953Y-51181
X52953Y-55118
X52953Y-58858
X53248Y-21457
X53248Y-25394
X53248Y-29331
X53248Y-33268
X53248Y-37205
X53248Y-41142
X53248Y-45079
X53248Y-49016
X53248Y-52953
X53248Y-56890
X53543Y-20669
X53543Y-24606
X53543Y-28543
X53543Y-32480
X53543Y-36417
X53543Y-40354
X53543Y-44291
X53543Y-48228
X53543Y-52165
X53543Y-56102
X53839Y-22244
X53839Y-26181
X53839Y-30118
X53839Y-34055
X53839Y-37992
X53839Y-41929
X53839Y-45866
X53839Y-49803
X53839Y-53740
X53839Y-57677
X54134Y-19882
X54134Y-23622
X54134Y-27559
X54134Y-31496
X54134Y-35433
X54134Y-39370
X54134Y-43307
X54134Y-47244
X54134Y-51181
X54134Y-55118
X54134Y-58858
X54429Y-21457
X54429Y-25394
X54429Y-29331
X54429Y-33268
X54429Y-37205
X54429Y-41142
X54429Y-45079
X54429Y-49016
X54429Y-52953
X54429Y-56890
X54724Y-20669
X54724Y-24606
X54724Y-28543
X54724Y-32480
X54724Y-36417
X54724Y-40354
X54724Y-44291
X54724Y-48228
X54724Y-52165
X54724Y-56102
X55020Y-22244
X55020Y-26181
X55020Y-30118
X55020Y-34055
X55020Y-37992
X55020Y-41929
X55020Y-45866
X55020Y-49803
X55020Y-53740
X55020Y-57677
X55315Y-19882
X55315Y-23622
X55315Y-27559
X55315Y-31496
X55315Y-35433
X55315Y-39370
X55315Y-43307
X55315Y-47244
X55315Y-51181
X55315Y-55118
X55315Y-58858
X55610Y-21457
X55610Y-25394
X55610Y-29331
X55610Y-33268
X55610Y-37205
X55610Y-41142
X55610Y-45079
X55610Y-49016
X55610Y-52953
X55610Y-56890
X55906Y-20669
X55906Y-24606
X55906Y-28543
X55906Y-32480
X55906Y-36417
X55906Y-40354
X55906Y-44291
X55906Y-48228
X55906Y-52165
X55906Y-56102
X56201Y-22244
X56201Y-26181
X56201Y-30118
X56201Y-34055
X56201Y-37992
X56201Y-41929
X56201Y-45866
X56201Y-49803
X56201Y-53740
X56201Y-57677
X56496Y-19882
X56496Y-23622
X56496Y-27559
X56496Y-31496
X56496Y-35433
X56496Y-39370
X56496Y-43307
X56496Y-47244
X56496Y-51181
X56496Y-55118
X56496Y-58858
X56791Y-21457
X56791Y-25394
X56791Y-29331
X56791Y-33268
X56791Y-37205
X56791Y-41142
X56791Y-45079
X56791Y-49016
X56791Y-52953
X56791Y-56890
X57087Y-20669
X57087Y-24606
X57087Y-28543
X57087Y-32480
X57087Y-36417
X57087Y-40354
X57087Y-44291
X57087Y-48228
X57087Y-52165
X57087Y-56102
X57382Y-22244
X57382Y-26181
X57382Y-30118
X57382Y-34055
X57382Y-37992
X57382Y-41929
X57382Y-45866
X57382Y-49803
X57382Y-53740
X57382Y-57677
X57677Y-23622
X57677Y-27559
X57677Y-31496
X57677Y-35433
X57677Y-39370
X57677Y-43307
X57677Y-47244
X57677Y-51181
X57677Y-55118
X57972Y-21457
X57972Y-25394
X57972Y-29331
X57972Y-33268
X57972Y-37205
X57972Y-41142
X57972Y-45079
X57972Y-49016
X57972Y-52953
X57972Y-56890
X58268Y-20669
X58268Y-24606
X58268Y-28543
X58268Y-32480
X58268Y-36417
X58268Y-40354
X58268Y-44291
X58268Y-48228
X58268Y-52165
X58268Y-56102
X58563Y-22244
X58563Y-26181
X58563Y-30118
X58563Y-34055
X58563Y-37992
X58563Y-41929
X58563Y-45866
X58563Y-49803
X58563Y-53740
X58563Y-57677
X58858Y-23622
X58858Y-27559
X58858Y-31496
X58858Y-35433
X58858Y-39370
X58858Y-43307
X58858Y-47244
X58858Y-51181
X58858Y-55118
T0
M30
