G04 #@! TF.GenerationSoftware,KiCad,Pcbnew,7.0.1*
G04 #@! TF.CreationDate,2023-04-19T15:48:30-07:00*
G04 #@! TF.ProjectId,Stage flood sensor,53746167-6520-4666-9c6f-6f642073656e,rev?*
G04 #@! TF.SameCoordinates,Original*
G04 #@! TF.FileFunction,Legend,Bot*
G04 #@! TF.FilePolarity,Positive*
%FSLAX46Y46*%
G04 Gerber Fmt 4.6, Leading zero omitted, Abs format (unit mm)*
G04 Created by KiCad (PCBNEW 7.0.1) date 2023-04-19 15:48:30*
%MOMM*%
%LPD*%
G01*
G04 APERTURE LIST*
%ADD10C,0.300000*%
%ADD11C,0.150000*%
%ADD12C,0.010000*%
%ADD13C,0.120000*%
G04 APERTURE END LIST*
D10*
X147309047Y-54280000D02*
X147023333Y-54375238D01*
X147023333Y-54375238D02*
X146547142Y-54375238D01*
X146547142Y-54375238D02*
X146356666Y-54280000D01*
X146356666Y-54280000D02*
X146261428Y-54184761D01*
X146261428Y-54184761D02*
X146166190Y-53994285D01*
X146166190Y-53994285D02*
X146166190Y-53803809D01*
X146166190Y-53803809D02*
X146261428Y-53613333D01*
X146261428Y-53613333D02*
X146356666Y-53518095D01*
X146356666Y-53518095D02*
X146547142Y-53422857D01*
X146547142Y-53422857D02*
X146928095Y-53327619D01*
X146928095Y-53327619D02*
X147118571Y-53232380D01*
X147118571Y-53232380D02*
X147213809Y-53137142D01*
X147213809Y-53137142D02*
X147309047Y-52946666D01*
X147309047Y-52946666D02*
X147309047Y-52756190D01*
X147309047Y-52756190D02*
X147213809Y-52565714D01*
X147213809Y-52565714D02*
X147118571Y-52470476D01*
X147118571Y-52470476D02*
X146928095Y-52375238D01*
X146928095Y-52375238D02*
X146451904Y-52375238D01*
X146451904Y-52375238D02*
X146166190Y-52470476D01*
X145594761Y-53041904D02*
X144832857Y-53041904D01*
X145309047Y-52375238D02*
X145309047Y-54089523D01*
X145309047Y-54089523D02*
X145213809Y-54280000D01*
X145213809Y-54280000D02*
X145023333Y-54375238D01*
X145023333Y-54375238D02*
X144832857Y-54375238D01*
X143309047Y-54375238D02*
X143309047Y-53327619D01*
X143309047Y-53327619D02*
X143404285Y-53137142D01*
X143404285Y-53137142D02*
X143594761Y-53041904D01*
X143594761Y-53041904D02*
X143975714Y-53041904D01*
X143975714Y-53041904D02*
X144166190Y-53137142D01*
X143309047Y-54280000D02*
X143499523Y-54375238D01*
X143499523Y-54375238D02*
X143975714Y-54375238D01*
X143975714Y-54375238D02*
X144166190Y-54280000D01*
X144166190Y-54280000D02*
X144261428Y-54089523D01*
X144261428Y-54089523D02*
X144261428Y-53899047D01*
X144261428Y-53899047D02*
X144166190Y-53708571D01*
X144166190Y-53708571D02*
X143975714Y-53613333D01*
X143975714Y-53613333D02*
X143499523Y-53613333D01*
X143499523Y-53613333D02*
X143309047Y-53518095D01*
X141499523Y-53041904D02*
X141499523Y-54660952D01*
X141499523Y-54660952D02*
X141594761Y-54851428D01*
X141594761Y-54851428D02*
X141689999Y-54946666D01*
X141689999Y-54946666D02*
X141880476Y-55041904D01*
X141880476Y-55041904D02*
X142166190Y-55041904D01*
X142166190Y-55041904D02*
X142356666Y-54946666D01*
X141499523Y-54280000D02*
X141689999Y-54375238D01*
X141689999Y-54375238D02*
X142070952Y-54375238D01*
X142070952Y-54375238D02*
X142261428Y-54280000D01*
X142261428Y-54280000D02*
X142356666Y-54184761D01*
X142356666Y-54184761D02*
X142451904Y-53994285D01*
X142451904Y-53994285D02*
X142451904Y-53422857D01*
X142451904Y-53422857D02*
X142356666Y-53232380D01*
X142356666Y-53232380D02*
X142261428Y-53137142D01*
X142261428Y-53137142D02*
X142070952Y-53041904D01*
X142070952Y-53041904D02*
X141689999Y-53041904D01*
X141689999Y-53041904D02*
X141499523Y-53137142D01*
X139785237Y-54280000D02*
X139975713Y-54375238D01*
X139975713Y-54375238D02*
X140356666Y-54375238D01*
X140356666Y-54375238D02*
X140547142Y-54280000D01*
X140547142Y-54280000D02*
X140642380Y-54089523D01*
X140642380Y-54089523D02*
X140642380Y-53327619D01*
X140642380Y-53327619D02*
X140547142Y-53137142D01*
X140547142Y-53137142D02*
X140356666Y-53041904D01*
X140356666Y-53041904D02*
X139975713Y-53041904D01*
X139975713Y-53041904D02*
X139785237Y-53137142D01*
X139785237Y-53137142D02*
X139689999Y-53327619D01*
X139689999Y-53327619D02*
X139689999Y-53518095D01*
X139689999Y-53518095D02*
X140642380Y-53708571D01*
X136642379Y-53327619D02*
X137309046Y-53327619D01*
X137309046Y-54375238D02*
X137309046Y-52375238D01*
X137309046Y-52375238D02*
X136356665Y-52375238D01*
X135309046Y-54375238D02*
X135499522Y-54280000D01*
X135499522Y-54280000D02*
X135594760Y-54089523D01*
X135594760Y-54089523D02*
X135594760Y-52375238D01*
X134261427Y-54375238D02*
X134451903Y-54280000D01*
X134451903Y-54280000D02*
X134547141Y-54184761D01*
X134547141Y-54184761D02*
X134642379Y-53994285D01*
X134642379Y-53994285D02*
X134642379Y-53422857D01*
X134642379Y-53422857D02*
X134547141Y-53232380D01*
X134547141Y-53232380D02*
X134451903Y-53137142D01*
X134451903Y-53137142D02*
X134261427Y-53041904D01*
X134261427Y-53041904D02*
X133975712Y-53041904D01*
X133975712Y-53041904D02*
X133785236Y-53137142D01*
X133785236Y-53137142D02*
X133689998Y-53232380D01*
X133689998Y-53232380D02*
X133594760Y-53422857D01*
X133594760Y-53422857D02*
X133594760Y-53994285D01*
X133594760Y-53994285D02*
X133689998Y-54184761D01*
X133689998Y-54184761D02*
X133785236Y-54280000D01*
X133785236Y-54280000D02*
X133975712Y-54375238D01*
X133975712Y-54375238D02*
X134261427Y-54375238D01*
X132451903Y-54375238D02*
X132642379Y-54280000D01*
X132642379Y-54280000D02*
X132737617Y-54184761D01*
X132737617Y-54184761D02*
X132832855Y-53994285D01*
X132832855Y-53994285D02*
X132832855Y-53422857D01*
X132832855Y-53422857D02*
X132737617Y-53232380D01*
X132737617Y-53232380D02*
X132642379Y-53137142D01*
X132642379Y-53137142D02*
X132451903Y-53041904D01*
X132451903Y-53041904D02*
X132166188Y-53041904D01*
X132166188Y-53041904D02*
X131975712Y-53137142D01*
X131975712Y-53137142D02*
X131880474Y-53232380D01*
X131880474Y-53232380D02*
X131785236Y-53422857D01*
X131785236Y-53422857D02*
X131785236Y-53994285D01*
X131785236Y-53994285D02*
X131880474Y-54184761D01*
X131880474Y-54184761D02*
X131975712Y-54280000D01*
X131975712Y-54280000D02*
X132166188Y-54375238D01*
X132166188Y-54375238D02*
X132451903Y-54375238D01*
X130070950Y-54375238D02*
X130070950Y-52375238D01*
X130070950Y-54280000D02*
X130261426Y-54375238D01*
X130261426Y-54375238D02*
X130642379Y-54375238D01*
X130642379Y-54375238D02*
X130832855Y-54280000D01*
X130832855Y-54280000D02*
X130928093Y-54184761D01*
X130928093Y-54184761D02*
X131023331Y-53994285D01*
X131023331Y-53994285D02*
X131023331Y-53422857D01*
X131023331Y-53422857D02*
X130928093Y-53232380D01*
X130928093Y-53232380D02*
X130832855Y-53137142D01*
X130832855Y-53137142D02*
X130642379Y-53041904D01*
X130642379Y-53041904D02*
X130261426Y-53041904D01*
X130261426Y-53041904D02*
X130070950Y-53137142D01*
X127689997Y-54280000D02*
X127404283Y-54375238D01*
X127404283Y-54375238D02*
X126928092Y-54375238D01*
X126928092Y-54375238D02*
X126737616Y-54280000D01*
X126737616Y-54280000D02*
X126642378Y-54184761D01*
X126642378Y-54184761D02*
X126547140Y-53994285D01*
X126547140Y-53994285D02*
X126547140Y-53803809D01*
X126547140Y-53803809D02*
X126642378Y-53613333D01*
X126642378Y-53613333D02*
X126737616Y-53518095D01*
X126737616Y-53518095D02*
X126928092Y-53422857D01*
X126928092Y-53422857D02*
X127309045Y-53327619D01*
X127309045Y-53327619D02*
X127499521Y-53232380D01*
X127499521Y-53232380D02*
X127594759Y-53137142D01*
X127594759Y-53137142D02*
X127689997Y-52946666D01*
X127689997Y-52946666D02*
X127689997Y-52756190D01*
X127689997Y-52756190D02*
X127594759Y-52565714D01*
X127594759Y-52565714D02*
X127499521Y-52470476D01*
X127499521Y-52470476D02*
X127309045Y-52375238D01*
X127309045Y-52375238D02*
X126832854Y-52375238D01*
X126832854Y-52375238D02*
X126547140Y-52470476D01*
X124928092Y-54280000D02*
X125118568Y-54375238D01*
X125118568Y-54375238D02*
X125499521Y-54375238D01*
X125499521Y-54375238D02*
X125689997Y-54280000D01*
X125689997Y-54280000D02*
X125785235Y-54089523D01*
X125785235Y-54089523D02*
X125785235Y-53327619D01*
X125785235Y-53327619D02*
X125689997Y-53137142D01*
X125689997Y-53137142D02*
X125499521Y-53041904D01*
X125499521Y-53041904D02*
X125118568Y-53041904D01*
X125118568Y-53041904D02*
X124928092Y-53137142D01*
X124928092Y-53137142D02*
X124832854Y-53327619D01*
X124832854Y-53327619D02*
X124832854Y-53518095D01*
X124832854Y-53518095D02*
X125785235Y-53708571D01*
X123975711Y-53041904D02*
X123975711Y-54375238D01*
X123975711Y-53232380D02*
X123880473Y-53137142D01*
X123880473Y-53137142D02*
X123689997Y-53041904D01*
X123689997Y-53041904D02*
X123404282Y-53041904D01*
X123404282Y-53041904D02*
X123213806Y-53137142D01*
X123213806Y-53137142D02*
X123118568Y-53327619D01*
X123118568Y-53327619D02*
X123118568Y-54375238D01*
X122261425Y-54280000D02*
X122070949Y-54375238D01*
X122070949Y-54375238D02*
X121689997Y-54375238D01*
X121689997Y-54375238D02*
X121499520Y-54280000D01*
X121499520Y-54280000D02*
X121404282Y-54089523D01*
X121404282Y-54089523D02*
X121404282Y-53994285D01*
X121404282Y-53994285D02*
X121499520Y-53803809D01*
X121499520Y-53803809D02*
X121689997Y-53708571D01*
X121689997Y-53708571D02*
X121975711Y-53708571D01*
X121975711Y-53708571D02*
X122166187Y-53613333D01*
X122166187Y-53613333D02*
X122261425Y-53422857D01*
X122261425Y-53422857D02*
X122261425Y-53327619D01*
X122261425Y-53327619D02*
X122166187Y-53137142D01*
X122166187Y-53137142D02*
X121975711Y-53041904D01*
X121975711Y-53041904D02*
X121689997Y-53041904D01*
X121689997Y-53041904D02*
X121499520Y-53137142D01*
X120261425Y-54375238D02*
X120451901Y-54280000D01*
X120451901Y-54280000D02*
X120547139Y-54184761D01*
X120547139Y-54184761D02*
X120642377Y-53994285D01*
X120642377Y-53994285D02*
X120642377Y-53422857D01*
X120642377Y-53422857D02*
X120547139Y-53232380D01*
X120547139Y-53232380D02*
X120451901Y-53137142D01*
X120451901Y-53137142D02*
X120261425Y-53041904D01*
X120261425Y-53041904D02*
X119975710Y-53041904D01*
X119975710Y-53041904D02*
X119785234Y-53137142D01*
X119785234Y-53137142D02*
X119689996Y-53232380D01*
X119689996Y-53232380D02*
X119594758Y-53422857D01*
X119594758Y-53422857D02*
X119594758Y-53994285D01*
X119594758Y-53994285D02*
X119689996Y-54184761D01*
X119689996Y-54184761D02*
X119785234Y-54280000D01*
X119785234Y-54280000D02*
X119975710Y-54375238D01*
X119975710Y-54375238D02*
X120261425Y-54375238D01*
X118737615Y-54375238D02*
X118737615Y-53041904D01*
X118737615Y-53422857D02*
X118642377Y-53232380D01*
X118642377Y-53232380D02*
X118547139Y-53137142D01*
X118547139Y-53137142D02*
X118356663Y-53041904D01*
X118356663Y-53041904D02*
X118166186Y-53041904D01*
X147213809Y-57615238D02*
X147213809Y-55615238D01*
X147213809Y-55615238D02*
X146737619Y-55615238D01*
X146737619Y-55615238D02*
X146451904Y-55710476D01*
X146451904Y-55710476D02*
X146261428Y-55900952D01*
X146261428Y-55900952D02*
X146166190Y-56091428D01*
X146166190Y-56091428D02*
X146070952Y-56472380D01*
X146070952Y-56472380D02*
X146070952Y-56758095D01*
X146070952Y-56758095D02*
X146166190Y-57139047D01*
X146166190Y-57139047D02*
X146261428Y-57329523D01*
X146261428Y-57329523D02*
X146451904Y-57520000D01*
X146451904Y-57520000D02*
X146737619Y-57615238D01*
X146737619Y-57615238D02*
X147213809Y-57615238D01*
X144451904Y-57520000D02*
X144642380Y-57615238D01*
X144642380Y-57615238D02*
X145023333Y-57615238D01*
X145023333Y-57615238D02*
X145213809Y-57520000D01*
X145213809Y-57520000D02*
X145309047Y-57329523D01*
X145309047Y-57329523D02*
X145309047Y-56567619D01*
X145309047Y-56567619D02*
X145213809Y-56377142D01*
X145213809Y-56377142D02*
X145023333Y-56281904D01*
X145023333Y-56281904D02*
X144642380Y-56281904D01*
X144642380Y-56281904D02*
X144451904Y-56377142D01*
X144451904Y-56377142D02*
X144356666Y-56567619D01*
X144356666Y-56567619D02*
X144356666Y-56758095D01*
X144356666Y-56758095D02*
X145309047Y-56948571D01*
X143594761Y-57520000D02*
X143404285Y-57615238D01*
X143404285Y-57615238D02*
X143023333Y-57615238D01*
X143023333Y-57615238D02*
X142832856Y-57520000D01*
X142832856Y-57520000D02*
X142737618Y-57329523D01*
X142737618Y-57329523D02*
X142737618Y-57234285D01*
X142737618Y-57234285D02*
X142832856Y-57043809D01*
X142832856Y-57043809D02*
X143023333Y-56948571D01*
X143023333Y-56948571D02*
X143309047Y-56948571D01*
X143309047Y-56948571D02*
X143499523Y-56853333D01*
X143499523Y-56853333D02*
X143594761Y-56662857D01*
X143594761Y-56662857D02*
X143594761Y-56567619D01*
X143594761Y-56567619D02*
X143499523Y-56377142D01*
X143499523Y-56377142D02*
X143309047Y-56281904D01*
X143309047Y-56281904D02*
X143023333Y-56281904D01*
X143023333Y-56281904D02*
X142832856Y-56377142D01*
X141880475Y-57615238D02*
X141880475Y-56281904D01*
X141880475Y-55615238D02*
X141975713Y-55710476D01*
X141975713Y-55710476D02*
X141880475Y-55805714D01*
X141880475Y-55805714D02*
X141785237Y-55710476D01*
X141785237Y-55710476D02*
X141880475Y-55615238D01*
X141880475Y-55615238D02*
X141880475Y-55805714D01*
X140070951Y-56281904D02*
X140070951Y-57900952D01*
X140070951Y-57900952D02*
X140166189Y-58091428D01*
X140166189Y-58091428D02*
X140261427Y-58186666D01*
X140261427Y-58186666D02*
X140451904Y-58281904D01*
X140451904Y-58281904D02*
X140737618Y-58281904D01*
X140737618Y-58281904D02*
X140928094Y-58186666D01*
X140070951Y-57520000D02*
X140261427Y-57615238D01*
X140261427Y-57615238D02*
X140642380Y-57615238D01*
X140642380Y-57615238D02*
X140832856Y-57520000D01*
X140832856Y-57520000D02*
X140928094Y-57424761D01*
X140928094Y-57424761D02*
X141023332Y-57234285D01*
X141023332Y-57234285D02*
X141023332Y-56662857D01*
X141023332Y-56662857D02*
X140928094Y-56472380D01*
X140928094Y-56472380D02*
X140832856Y-56377142D01*
X140832856Y-56377142D02*
X140642380Y-56281904D01*
X140642380Y-56281904D02*
X140261427Y-56281904D01*
X140261427Y-56281904D02*
X140070951Y-56377142D01*
X139118570Y-56281904D02*
X139118570Y-57615238D01*
X139118570Y-56472380D02*
X139023332Y-56377142D01*
X139023332Y-56377142D02*
X138832856Y-56281904D01*
X138832856Y-56281904D02*
X138547141Y-56281904D01*
X138547141Y-56281904D02*
X138356665Y-56377142D01*
X138356665Y-56377142D02*
X138261427Y-56567619D01*
X138261427Y-56567619D02*
X138261427Y-57615238D01*
X136547141Y-57520000D02*
X136737617Y-57615238D01*
X136737617Y-57615238D02*
X137118570Y-57615238D01*
X137118570Y-57615238D02*
X137309046Y-57520000D01*
X137309046Y-57520000D02*
X137404284Y-57329523D01*
X137404284Y-57329523D02*
X137404284Y-56567619D01*
X137404284Y-56567619D02*
X137309046Y-56377142D01*
X137309046Y-56377142D02*
X137118570Y-56281904D01*
X137118570Y-56281904D02*
X136737617Y-56281904D01*
X136737617Y-56281904D02*
X136547141Y-56377142D01*
X136547141Y-56377142D02*
X136451903Y-56567619D01*
X136451903Y-56567619D02*
X136451903Y-56758095D01*
X136451903Y-56758095D02*
X137404284Y-56948571D01*
X134737617Y-57615238D02*
X134737617Y-55615238D01*
X134737617Y-57520000D02*
X134928093Y-57615238D01*
X134928093Y-57615238D02*
X135309046Y-57615238D01*
X135309046Y-57615238D02*
X135499522Y-57520000D01*
X135499522Y-57520000D02*
X135594760Y-57424761D01*
X135594760Y-57424761D02*
X135689998Y-57234285D01*
X135689998Y-57234285D02*
X135689998Y-56662857D01*
X135689998Y-56662857D02*
X135594760Y-56472380D01*
X135594760Y-56472380D02*
X135499522Y-56377142D01*
X135499522Y-56377142D02*
X135309046Y-56281904D01*
X135309046Y-56281904D02*
X134928093Y-56281904D01*
X134928093Y-56281904D02*
X134737617Y-56377142D01*
X132261426Y-57615238D02*
X132261426Y-55615238D01*
X132261426Y-56377142D02*
X132070950Y-56281904D01*
X132070950Y-56281904D02*
X131689997Y-56281904D01*
X131689997Y-56281904D02*
X131499521Y-56377142D01*
X131499521Y-56377142D02*
X131404283Y-56472380D01*
X131404283Y-56472380D02*
X131309045Y-56662857D01*
X131309045Y-56662857D02*
X131309045Y-57234285D01*
X131309045Y-57234285D02*
X131404283Y-57424761D01*
X131404283Y-57424761D02*
X131499521Y-57520000D01*
X131499521Y-57520000D02*
X131689997Y-57615238D01*
X131689997Y-57615238D02*
X132070950Y-57615238D01*
X132070950Y-57615238D02*
X132261426Y-57520000D01*
X130642378Y-56281904D02*
X130166188Y-57615238D01*
X129689997Y-56281904D02*
X130166188Y-57615238D01*
X130166188Y-57615238D02*
X130356664Y-58091428D01*
X130356664Y-58091428D02*
X130451902Y-58186666D01*
X130451902Y-58186666D02*
X130642378Y-58281904D01*
X128928092Y-57424761D02*
X128832854Y-57520000D01*
X128832854Y-57520000D02*
X128928092Y-57615238D01*
X128928092Y-57615238D02*
X129023330Y-57520000D01*
X129023330Y-57520000D02*
X128928092Y-57424761D01*
X128928092Y-57424761D02*
X128928092Y-57615238D01*
X128928092Y-56377142D02*
X128832854Y-56472380D01*
X128832854Y-56472380D02*
X128928092Y-56567619D01*
X128928092Y-56567619D02*
X129023330Y-56472380D01*
X129023330Y-56472380D02*
X128928092Y-56377142D01*
X128928092Y-56377142D02*
X128928092Y-56567619D01*
X125785234Y-56567619D02*
X125499520Y-56662857D01*
X125499520Y-56662857D02*
X125404282Y-56758095D01*
X125404282Y-56758095D02*
X125309044Y-56948571D01*
X125309044Y-56948571D02*
X125309044Y-57234285D01*
X125309044Y-57234285D02*
X125404282Y-57424761D01*
X125404282Y-57424761D02*
X125499520Y-57520000D01*
X125499520Y-57520000D02*
X125689996Y-57615238D01*
X125689996Y-57615238D02*
X126451901Y-57615238D01*
X126451901Y-57615238D02*
X126451901Y-55615238D01*
X126451901Y-55615238D02*
X125785234Y-55615238D01*
X125785234Y-55615238D02*
X125594758Y-55710476D01*
X125594758Y-55710476D02*
X125499520Y-55805714D01*
X125499520Y-55805714D02*
X125404282Y-55996190D01*
X125404282Y-55996190D02*
X125404282Y-56186666D01*
X125404282Y-56186666D02*
X125499520Y-56377142D01*
X125499520Y-56377142D02*
X125594758Y-56472380D01*
X125594758Y-56472380D02*
X125785234Y-56567619D01*
X125785234Y-56567619D02*
X126451901Y-56567619D01*
X123689996Y-57520000D02*
X123880472Y-57615238D01*
X123880472Y-57615238D02*
X124261425Y-57615238D01*
X124261425Y-57615238D02*
X124451901Y-57520000D01*
X124451901Y-57520000D02*
X124547139Y-57329523D01*
X124547139Y-57329523D02*
X124547139Y-56567619D01*
X124547139Y-56567619D02*
X124451901Y-56377142D01*
X124451901Y-56377142D02*
X124261425Y-56281904D01*
X124261425Y-56281904D02*
X123880472Y-56281904D01*
X123880472Y-56281904D02*
X123689996Y-56377142D01*
X123689996Y-56377142D02*
X123594758Y-56567619D01*
X123594758Y-56567619D02*
X123594758Y-56758095D01*
X123594758Y-56758095D02*
X124547139Y-56948571D01*
X122737615Y-56281904D02*
X122737615Y-57615238D01*
X122737615Y-56472380D02*
X122642377Y-56377142D01*
X122642377Y-56377142D02*
X122451901Y-56281904D01*
X122451901Y-56281904D02*
X122166186Y-56281904D01*
X122166186Y-56281904D02*
X121975710Y-56377142D01*
X121975710Y-56377142D02*
X121880472Y-56567619D01*
X121880472Y-56567619D02*
X121880472Y-57615238D01*
X120928091Y-56281904D02*
X120928091Y-57996190D01*
X120928091Y-57996190D02*
X121023329Y-58186666D01*
X121023329Y-58186666D02*
X121213805Y-58281904D01*
X121213805Y-58281904D02*
X121309043Y-58281904D01*
X120928091Y-55615238D02*
X121023329Y-55710476D01*
X121023329Y-55710476D02*
X120928091Y-55805714D01*
X120928091Y-55805714D02*
X120832853Y-55710476D01*
X120832853Y-55710476D02*
X120928091Y-55615238D01*
X120928091Y-55615238D02*
X120928091Y-55805714D01*
X119118567Y-57615238D02*
X119118567Y-56567619D01*
X119118567Y-56567619D02*
X119213805Y-56377142D01*
X119213805Y-56377142D02*
X119404281Y-56281904D01*
X119404281Y-56281904D02*
X119785234Y-56281904D01*
X119785234Y-56281904D02*
X119975710Y-56377142D01*
X119118567Y-57520000D02*
X119309043Y-57615238D01*
X119309043Y-57615238D02*
X119785234Y-57615238D01*
X119785234Y-57615238D02*
X119975710Y-57520000D01*
X119975710Y-57520000D02*
X120070948Y-57329523D01*
X120070948Y-57329523D02*
X120070948Y-57139047D01*
X120070948Y-57139047D02*
X119975710Y-56948571D01*
X119975710Y-56948571D02*
X119785234Y-56853333D01*
X119785234Y-56853333D02*
X119309043Y-56853333D01*
X119309043Y-56853333D02*
X119118567Y-56758095D01*
X118166186Y-57615238D02*
X118166186Y-56281904D01*
X118166186Y-56472380D02*
X118070948Y-56377142D01*
X118070948Y-56377142D02*
X117880472Y-56281904D01*
X117880472Y-56281904D02*
X117594757Y-56281904D01*
X117594757Y-56281904D02*
X117404281Y-56377142D01*
X117404281Y-56377142D02*
X117309043Y-56567619D01*
X117309043Y-56567619D02*
X117309043Y-57615238D01*
X117309043Y-56567619D02*
X117213805Y-56377142D01*
X117213805Y-56377142D02*
X117023329Y-56281904D01*
X117023329Y-56281904D02*
X116737615Y-56281904D01*
X116737615Y-56281904D02*
X116547138Y-56377142D01*
X116547138Y-56377142D02*
X116451900Y-56567619D01*
X116451900Y-56567619D02*
X116451900Y-57615238D01*
X115499519Y-57615238D02*
X115499519Y-56281904D01*
X115499519Y-55615238D02*
X115594757Y-55710476D01*
X115594757Y-55710476D02*
X115499519Y-55805714D01*
X115499519Y-55805714D02*
X115404281Y-55710476D01*
X115404281Y-55710476D02*
X115499519Y-55615238D01*
X115499519Y-55615238D02*
X115499519Y-55805714D01*
X114547138Y-56281904D02*
X114547138Y-57615238D01*
X114547138Y-56472380D02*
X114451900Y-56377142D01*
X114451900Y-56377142D02*
X114261424Y-56281904D01*
X114261424Y-56281904D02*
X113975709Y-56281904D01*
X113975709Y-56281904D02*
X113785233Y-56377142D01*
X113785233Y-56377142D02*
X113689995Y-56567619D01*
X113689995Y-56567619D02*
X113689995Y-57615238D01*
X111213804Y-56567619D02*
X110547137Y-56567619D01*
X110261423Y-57615238D02*
X111213804Y-57615238D01*
X111213804Y-57615238D02*
X111213804Y-55615238D01*
X111213804Y-55615238D02*
X110261423Y-55615238D01*
X109404280Y-57424761D02*
X109309042Y-57520000D01*
X109309042Y-57520000D02*
X109404280Y-57615238D01*
X109404280Y-57615238D02*
X109499518Y-57520000D01*
X109499518Y-57520000D02*
X109404280Y-57424761D01*
X109404280Y-57424761D02*
X109404280Y-57615238D01*
X107023327Y-57520000D02*
X106737613Y-57615238D01*
X106737613Y-57615238D02*
X106261422Y-57615238D01*
X106261422Y-57615238D02*
X106070946Y-57520000D01*
X106070946Y-57520000D02*
X105975708Y-57424761D01*
X105975708Y-57424761D02*
X105880470Y-57234285D01*
X105880470Y-57234285D02*
X105880470Y-57043809D01*
X105880470Y-57043809D02*
X105975708Y-56853333D01*
X105975708Y-56853333D02*
X106070946Y-56758095D01*
X106070946Y-56758095D02*
X106261422Y-56662857D01*
X106261422Y-56662857D02*
X106642375Y-56567619D01*
X106642375Y-56567619D02*
X106832851Y-56472380D01*
X106832851Y-56472380D02*
X106928089Y-56377142D01*
X106928089Y-56377142D02*
X107023327Y-56186666D01*
X107023327Y-56186666D02*
X107023327Y-55996190D01*
X107023327Y-55996190D02*
X106928089Y-55805714D01*
X106928089Y-55805714D02*
X106832851Y-55710476D01*
X106832851Y-55710476D02*
X106642375Y-55615238D01*
X106642375Y-55615238D02*
X106166184Y-55615238D01*
X106166184Y-55615238D02*
X105880470Y-55710476D01*
X105023327Y-57615238D02*
X105023327Y-56281904D01*
X105023327Y-56472380D02*
X104928089Y-56377142D01*
X104928089Y-56377142D02*
X104737613Y-56281904D01*
X104737613Y-56281904D02*
X104451898Y-56281904D01*
X104451898Y-56281904D02*
X104261422Y-56377142D01*
X104261422Y-56377142D02*
X104166184Y-56567619D01*
X104166184Y-56567619D02*
X104166184Y-57615238D01*
X104166184Y-56567619D02*
X104070946Y-56377142D01*
X104070946Y-56377142D02*
X103880470Y-56281904D01*
X103880470Y-56281904D02*
X103594756Y-56281904D01*
X103594756Y-56281904D02*
X103404279Y-56377142D01*
X103404279Y-56377142D02*
X103309041Y-56567619D01*
X103309041Y-56567619D02*
X103309041Y-57615238D01*
X102356660Y-57615238D02*
X102356660Y-56281904D01*
X102356660Y-55615238D02*
X102451898Y-55710476D01*
X102451898Y-55710476D02*
X102356660Y-55805714D01*
X102356660Y-55805714D02*
X102261422Y-55710476D01*
X102261422Y-55710476D02*
X102356660Y-55615238D01*
X102356660Y-55615238D02*
X102356660Y-55805714D01*
X101689993Y-56281904D02*
X100928089Y-56281904D01*
X101404279Y-55615238D02*
X101404279Y-57329523D01*
X101404279Y-57329523D02*
X101309041Y-57520000D01*
X101309041Y-57520000D02*
X101118565Y-57615238D01*
X101118565Y-57615238D02*
X100928089Y-57615238D01*
X100261422Y-57615238D02*
X100261422Y-55615238D01*
X99404279Y-57615238D02*
X99404279Y-56567619D01*
X99404279Y-56567619D02*
X99499517Y-56377142D01*
X99499517Y-56377142D02*
X99689993Y-56281904D01*
X99689993Y-56281904D02*
X99975708Y-56281904D01*
X99975708Y-56281904D02*
X100166184Y-56377142D01*
X100166184Y-56377142D02*
X100261422Y-56472380D01*
X146547142Y-59807619D02*
X147213809Y-59807619D01*
X147213809Y-60855238D02*
X147213809Y-58855238D01*
X147213809Y-58855238D02*
X146261428Y-58855238D01*
X144642380Y-59521904D02*
X144642380Y-60855238D01*
X145499523Y-59521904D02*
X145499523Y-60569523D01*
X145499523Y-60569523D02*
X145404285Y-60760000D01*
X145404285Y-60760000D02*
X145213809Y-60855238D01*
X145213809Y-60855238D02*
X144928094Y-60855238D01*
X144928094Y-60855238D02*
X144737618Y-60760000D01*
X144737618Y-60760000D02*
X144642380Y-60664761D01*
X143689999Y-59521904D02*
X143689999Y-60855238D01*
X143689999Y-59712380D02*
X143594761Y-59617142D01*
X143594761Y-59617142D02*
X143404285Y-59521904D01*
X143404285Y-59521904D02*
X143118570Y-59521904D01*
X143118570Y-59521904D02*
X142928094Y-59617142D01*
X142928094Y-59617142D02*
X142832856Y-59807619D01*
X142832856Y-59807619D02*
X142832856Y-60855238D01*
X141023332Y-60855238D02*
X141023332Y-58855238D01*
X141023332Y-60760000D02*
X141213808Y-60855238D01*
X141213808Y-60855238D02*
X141594761Y-60855238D01*
X141594761Y-60855238D02*
X141785237Y-60760000D01*
X141785237Y-60760000D02*
X141880475Y-60664761D01*
X141880475Y-60664761D02*
X141975713Y-60474285D01*
X141975713Y-60474285D02*
X141975713Y-59902857D01*
X141975713Y-59902857D02*
X141880475Y-59712380D01*
X141880475Y-59712380D02*
X141785237Y-59617142D01*
X141785237Y-59617142D02*
X141594761Y-59521904D01*
X141594761Y-59521904D02*
X141213808Y-59521904D01*
X141213808Y-59521904D02*
X141023332Y-59617142D01*
X139309046Y-60760000D02*
X139499522Y-60855238D01*
X139499522Y-60855238D02*
X139880475Y-60855238D01*
X139880475Y-60855238D02*
X140070951Y-60760000D01*
X140070951Y-60760000D02*
X140166189Y-60569523D01*
X140166189Y-60569523D02*
X140166189Y-59807619D01*
X140166189Y-59807619D02*
X140070951Y-59617142D01*
X140070951Y-59617142D02*
X139880475Y-59521904D01*
X139880475Y-59521904D02*
X139499522Y-59521904D01*
X139499522Y-59521904D02*
X139309046Y-59617142D01*
X139309046Y-59617142D02*
X139213808Y-59807619D01*
X139213808Y-59807619D02*
X139213808Y-59998095D01*
X139213808Y-59998095D02*
X140166189Y-60188571D01*
X137499522Y-60855238D02*
X137499522Y-58855238D01*
X137499522Y-60760000D02*
X137689998Y-60855238D01*
X137689998Y-60855238D02*
X138070951Y-60855238D01*
X138070951Y-60855238D02*
X138261427Y-60760000D01*
X138261427Y-60760000D02*
X138356665Y-60664761D01*
X138356665Y-60664761D02*
X138451903Y-60474285D01*
X138451903Y-60474285D02*
X138451903Y-59902857D01*
X138451903Y-59902857D02*
X138356665Y-59712380D01*
X138356665Y-59712380D02*
X138261427Y-59617142D01*
X138261427Y-59617142D02*
X138070951Y-59521904D01*
X138070951Y-59521904D02*
X137689998Y-59521904D01*
X137689998Y-59521904D02*
X137499522Y-59617142D01*
X135023331Y-60855238D02*
X135023331Y-58855238D01*
X135023331Y-59617142D02*
X134832855Y-59521904D01*
X134832855Y-59521904D02*
X134451902Y-59521904D01*
X134451902Y-59521904D02*
X134261426Y-59617142D01*
X134261426Y-59617142D02*
X134166188Y-59712380D01*
X134166188Y-59712380D02*
X134070950Y-59902857D01*
X134070950Y-59902857D02*
X134070950Y-60474285D01*
X134070950Y-60474285D02*
X134166188Y-60664761D01*
X134166188Y-60664761D02*
X134261426Y-60760000D01*
X134261426Y-60760000D02*
X134451902Y-60855238D01*
X134451902Y-60855238D02*
X134832855Y-60855238D01*
X134832855Y-60855238D02*
X135023331Y-60760000D01*
X133404283Y-59521904D02*
X132928093Y-60855238D01*
X132451902Y-59521904D02*
X132928093Y-60855238D01*
X132928093Y-60855238D02*
X133118569Y-61331428D01*
X133118569Y-61331428D02*
X133213807Y-61426666D01*
X133213807Y-61426666D02*
X133404283Y-61521904D01*
X131689997Y-60664761D02*
X131594759Y-60760000D01*
X131594759Y-60760000D02*
X131689997Y-60855238D01*
X131689997Y-60855238D02*
X131785235Y-60760000D01*
X131785235Y-60760000D02*
X131689997Y-60664761D01*
X131689997Y-60664761D02*
X131689997Y-60855238D01*
X131689997Y-59617142D02*
X131594759Y-59712380D01*
X131594759Y-59712380D02*
X131689997Y-59807619D01*
X131689997Y-59807619D02*
X131785235Y-59712380D01*
X131785235Y-59712380D02*
X131689997Y-59617142D01*
X131689997Y-59617142D02*
X131689997Y-59807619D01*
X129213806Y-60855238D02*
X129213806Y-58855238D01*
X129213806Y-58855238D02*
X128070949Y-60855238D01*
X128070949Y-60855238D02*
X128070949Y-58855238D01*
X127118568Y-60855238D02*
X127118568Y-58855238D01*
X126166187Y-60855238D02*
X126166187Y-58855238D01*
X126166187Y-59807619D02*
X125023330Y-59807619D01*
X125023330Y-60855238D02*
X125023330Y-58855238D01*
X122547139Y-60855238D02*
X122547139Y-58855238D01*
X122547139Y-58855238D02*
X121785234Y-58855238D01*
X121785234Y-58855238D02*
X121594758Y-58950476D01*
X121594758Y-58950476D02*
X121499520Y-59045714D01*
X121499520Y-59045714D02*
X121404282Y-59236190D01*
X121404282Y-59236190D02*
X121404282Y-59521904D01*
X121404282Y-59521904D02*
X121499520Y-59712380D01*
X121499520Y-59712380D02*
X121594758Y-59807619D01*
X121594758Y-59807619D02*
X121785234Y-59902857D01*
X121785234Y-59902857D02*
X122547139Y-59902857D01*
X120737615Y-58855238D02*
X119499520Y-58855238D01*
X119499520Y-58855238D02*
X120166187Y-59617142D01*
X120166187Y-59617142D02*
X119880472Y-59617142D01*
X119880472Y-59617142D02*
X119689996Y-59712380D01*
X119689996Y-59712380D02*
X119594758Y-59807619D01*
X119594758Y-59807619D02*
X119499520Y-59998095D01*
X119499520Y-59998095D02*
X119499520Y-60474285D01*
X119499520Y-60474285D02*
X119594758Y-60664761D01*
X119594758Y-60664761D02*
X119689996Y-60760000D01*
X119689996Y-60760000D02*
X119880472Y-60855238D01*
X119880472Y-60855238D02*
X120451901Y-60855238D01*
X120451901Y-60855238D02*
X120642377Y-60760000D01*
X120642377Y-60760000D02*
X120737615Y-60664761D01*
X118261425Y-58855238D02*
X118070948Y-58855238D01*
X118070948Y-58855238D02*
X117880472Y-58950476D01*
X117880472Y-58950476D02*
X117785234Y-59045714D01*
X117785234Y-59045714D02*
X117689996Y-59236190D01*
X117689996Y-59236190D02*
X117594758Y-59617142D01*
X117594758Y-59617142D02*
X117594758Y-60093333D01*
X117594758Y-60093333D02*
X117689996Y-60474285D01*
X117689996Y-60474285D02*
X117785234Y-60664761D01*
X117785234Y-60664761D02*
X117880472Y-60760000D01*
X117880472Y-60760000D02*
X118070948Y-60855238D01*
X118070948Y-60855238D02*
X118261425Y-60855238D01*
X118261425Y-60855238D02*
X118451901Y-60760000D01*
X118451901Y-60760000D02*
X118547139Y-60664761D01*
X118547139Y-60664761D02*
X118642377Y-60474285D01*
X118642377Y-60474285D02*
X118737615Y-60093333D01*
X118737615Y-60093333D02*
X118737615Y-59617142D01*
X118737615Y-59617142D02*
X118642377Y-59236190D01*
X118642377Y-59236190D02*
X118547139Y-59045714D01*
X118547139Y-59045714D02*
X118451901Y-58950476D01*
X118451901Y-58950476D02*
X118261425Y-58855238D01*
X116737615Y-59807619D02*
X116070948Y-59807619D01*
X115785234Y-60855238D02*
X116737615Y-60855238D01*
X116737615Y-60855238D02*
X116737615Y-58855238D01*
X116737615Y-58855238D02*
X115785234Y-58855238D01*
X114547139Y-59902857D02*
X114547139Y-60855238D01*
X115213805Y-58855238D02*
X114547139Y-59902857D01*
X114547139Y-59902857D02*
X113880472Y-58855238D01*
X112832853Y-58855238D02*
X112642376Y-58855238D01*
X112642376Y-58855238D02*
X112451900Y-58950476D01*
X112451900Y-58950476D02*
X112356662Y-59045714D01*
X112356662Y-59045714D02*
X112261424Y-59236190D01*
X112261424Y-59236190D02*
X112166186Y-59617142D01*
X112166186Y-59617142D02*
X112166186Y-60093333D01*
X112166186Y-60093333D02*
X112261424Y-60474285D01*
X112261424Y-60474285D02*
X112356662Y-60664761D01*
X112356662Y-60664761D02*
X112451900Y-60760000D01*
X112451900Y-60760000D02*
X112642376Y-60855238D01*
X112642376Y-60855238D02*
X112832853Y-60855238D01*
X112832853Y-60855238D02*
X113023329Y-60760000D01*
X113023329Y-60760000D02*
X113118567Y-60664761D01*
X113118567Y-60664761D02*
X113213805Y-60474285D01*
X113213805Y-60474285D02*
X113309043Y-60093333D01*
X113309043Y-60093333D02*
X113309043Y-59617142D01*
X113309043Y-59617142D02*
X113213805Y-59236190D01*
X113213805Y-59236190D02*
X113118567Y-59045714D01*
X113118567Y-59045714D02*
X113023329Y-58950476D01*
X113023329Y-58950476D02*
X112832853Y-58855238D01*
X110928091Y-58855238D02*
X110737614Y-58855238D01*
X110737614Y-58855238D02*
X110547138Y-58950476D01*
X110547138Y-58950476D02*
X110451900Y-59045714D01*
X110451900Y-59045714D02*
X110356662Y-59236190D01*
X110356662Y-59236190D02*
X110261424Y-59617142D01*
X110261424Y-59617142D02*
X110261424Y-60093333D01*
X110261424Y-60093333D02*
X110356662Y-60474285D01*
X110356662Y-60474285D02*
X110451900Y-60664761D01*
X110451900Y-60664761D02*
X110547138Y-60760000D01*
X110547138Y-60760000D02*
X110737614Y-60855238D01*
X110737614Y-60855238D02*
X110928091Y-60855238D01*
X110928091Y-60855238D02*
X111118567Y-60760000D01*
X111118567Y-60760000D02*
X111213805Y-60664761D01*
X111213805Y-60664761D02*
X111309043Y-60474285D01*
X111309043Y-60474285D02*
X111404281Y-60093333D01*
X111404281Y-60093333D02*
X111404281Y-59617142D01*
X111404281Y-59617142D02*
X111309043Y-59236190D01*
X111309043Y-59236190D02*
X111213805Y-59045714D01*
X111213805Y-59045714D02*
X111118567Y-58950476D01*
X111118567Y-58950476D02*
X110928091Y-58855238D01*
X109594757Y-58855238D02*
X108356662Y-58855238D01*
X108356662Y-58855238D02*
X109023329Y-59617142D01*
X109023329Y-59617142D02*
X108737614Y-59617142D01*
X108737614Y-59617142D02*
X108547138Y-59712380D01*
X108547138Y-59712380D02*
X108451900Y-59807619D01*
X108451900Y-59807619D02*
X108356662Y-59998095D01*
X108356662Y-59998095D02*
X108356662Y-60474285D01*
X108356662Y-60474285D02*
X108451900Y-60664761D01*
X108451900Y-60664761D02*
X108547138Y-60760000D01*
X108547138Y-60760000D02*
X108737614Y-60855238D01*
X108737614Y-60855238D02*
X109309043Y-60855238D01*
X109309043Y-60855238D02*
X109499519Y-60760000D01*
X109499519Y-60760000D02*
X109594757Y-60664761D01*
X106451900Y-60855238D02*
X107594757Y-60855238D01*
X107023329Y-60855238D02*
X107023329Y-58855238D01*
X107023329Y-58855238D02*
X107213805Y-59140952D01*
X107213805Y-59140952D02*
X107404281Y-59331428D01*
X107404281Y-59331428D02*
X107594757Y-59426666D01*
X105785233Y-58855238D02*
X104451900Y-58855238D01*
X104451900Y-58855238D02*
X105309043Y-60855238D01*
X102832852Y-58855238D02*
X103213805Y-58855238D01*
X103213805Y-58855238D02*
X103404281Y-58950476D01*
X103404281Y-58950476D02*
X103499519Y-59045714D01*
X103499519Y-59045714D02*
X103689995Y-59331428D01*
X103689995Y-59331428D02*
X103785233Y-59712380D01*
X103785233Y-59712380D02*
X103785233Y-60474285D01*
X103785233Y-60474285D02*
X103689995Y-60664761D01*
X103689995Y-60664761D02*
X103594757Y-60760000D01*
X103594757Y-60760000D02*
X103404281Y-60855238D01*
X103404281Y-60855238D02*
X103023328Y-60855238D01*
X103023328Y-60855238D02*
X102832852Y-60760000D01*
X102832852Y-60760000D02*
X102737614Y-60664761D01*
X102737614Y-60664761D02*
X102642376Y-60474285D01*
X102642376Y-60474285D02*
X102642376Y-59998095D01*
X102642376Y-59998095D02*
X102737614Y-59807619D01*
X102737614Y-59807619D02*
X102832852Y-59712380D01*
X102832852Y-59712380D02*
X103023328Y-59617142D01*
X103023328Y-59617142D02*
X103404281Y-59617142D01*
X103404281Y-59617142D02*
X103594757Y-59712380D01*
X103594757Y-59712380D02*
X103689995Y-59807619D01*
X103689995Y-59807619D02*
X103785233Y-59998095D01*
X147213809Y-64095238D02*
X147213809Y-62095238D01*
X146356666Y-64095238D02*
X146356666Y-63047619D01*
X146356666Y-63047619D02*
X146451904Y-62857142D01*
X146451904Y-62857142D02*
X146642380Y-62761904D01*
X146642380Y-62761904D02*
X146928095Y-62761904D01*
X146928095Y-62761904D02*
X147118571Y-62857142D01*
X147118571Y-62857142D02*
X147213809Y-62952380D01*
X145689999Y-62761904D02*
X144928095Y-62761904D01*
X145404285Y-62095238D02*
X145404285Y-63809523D01*
X145404285Y-63809523D02*
X145309047Y-64000000D01*
X145309047Y-64000000D02*
X145118571Y-64095238D01*
X145118571Y-64095238D02*
X144928095Y-64095238D01*
X144547142Y-62761904D02*
X143785238Y-62761904D01*
X144261428Y-62095238D02*
X144261428Y-63809523D01*
X144261428Y-63809523D02*
X144166190Y-64000000D01*
X144166190Y-64000000D02*
X143975714Y-64095238D01*
X143975714Y-64095238D02*
X143785238Y-64095238D01*
X143118571Y-62761904D02*
X143118571Y-64761904D01*
X143118571Y-62857142D02*
X142928095Y-62761904D01*
X142928095Y-62761904D02*
X142547142Y-62761904D01*
X142547142Y-62761904D02*
X142356666Y-62857142D01*
X142356666Y-62857142D02*
X142261428Y-62952380D01*
X142261428Y-62952380D02*
X142166190Y-63142857D01*
X142166190Y-63142857D02*
X142166190Y-63714285D01*
X142166190Y-63714285D02*
X142261428Y-63904761D01*
X142261428Y-63904761D02*
X142356666Y-64000000D01*
X142356666Y-64000000D02*
X142547142Y-64095238D01*
X142547142Y-64095238D02*
X142928095Y-64095238D01*
X142928095Y-64095238D02*
X143118571Y-64000000D01*
X141404285Y-64000000D02*
X141213809Y-64095238D01*
X141213809Y-64095238D02*
X140832857Y-64095238D01*
X140832857Y-64095238D02*
X140642380Y-64000000D01*
X140642380Y-64000000D02*
X140547142Y-63809523D01*
X140547142Y-63809523D02*
X140547142Y-63714285D01*
X140547142Y-63714285D02*
X140642380Y-63523809D01*
X140642380Y-63523809D02*
X140832857Y-63428571D01*
X140832857Y-63428571D02*
X141118571Y-63428571D01*
X141118571Y-63428571D02*
X141309047Y-63333333D01*
X141309047Y-63333333D02*
X141404285Y-63142857D01*
X141404285Y-63142857D02*
X141404285Y-63047619D01*
X141404285Y-63047619D02*
X141309047Y-62857142D01*
X141309047Y-62857142D02*
X141118571Y-62761904D01*
X141118571Y-62761904D02*
X140832857Y-62761904D01*
X140832857Y-62761904D02*
X140642380Y-62857142D01*
X139689999Y-63904761D02*
X139594761Y-64000000D01*
X139594761Y-64000000D02*
X139689999Y-64095238D01*
X139689999Y-64095238D02*
X139785237Y-64000000D01*
X139785237Y-64000000D02*
X139689999Y-63904761D01*
X139689999Y-63904761D02*
X139689999Y-64095238D01*
X139689999Y-62857142D02*
X139594761Y-62952380D01*
X139594761Y-62952380D02*
X139689999Y-63047619D01*
X139689999Y-63047619D02*
X139785237Y-62952380D01*
X139785237Y-62952380D02*
X139689999Y-62857142D01*
X139689999Y-62857142D02*
X139689999Y-63047619D01*
X137309047Y-62000000D02*
X139023332Y-64571428D01*
X135213809Y-62000000D02*
X136928094Y-64571428D01*
X133689999Y-62761904D02*
X133689999Y-64380952D01*
X133689999Y-64380952D02*
X133785237Y-64571428D01*
X133785237Y-64571428D02*
X133880475Y-64666666D01*
X133880475Y-64666666D02*
X134070952Y-64761904D01*
X134070952Y-64761904D02*
X134356666Y-64761904D01*
X134356666Y-64761904D02*
X134547142Y-64666666D01*
X133689999Y-64000000D02*
X133880475Y-64095238D01*
X133880475Y-64095238D02*
X134261428Y-64095238D01*
X134261428Y-64095238D02*
X134451904Y-64000000D01*
X134451904Y-64000000D02*
X134547142Y-63904761D01*
X134547142Y-63904761D02*
X134642380Y-63714285D01*
X134642380Y-63714285D02*
X134642380Y-63142857D01*
X134642380Y-63142857D02*
X134547142Y-62952380D01*
X134547142Y-62952380D02*
X134451904Y-62857142D01*
X134451904Y-62857142D02*
X134261428Y-62761904D01*
X134261428Y-62761904D02*
X133880475Y-62761904D01*
X133880475Y-62761904D02*
X133689999Y-62857142D01*
X132737618Y-64095238D02*
X132737618Y-62761904D01*
X132737618Y-62095238D02*
X132832856Y-62190476D01*
X132832856Y-62190476D02*
X132737618Y-62285714D01*
X132737618Y-62285714D02*
X132642380Y-62190476D01*
X132642380Y-62190476D02*
X132737618Y-62095238D01*
X132737618Y-62095238D02*
X132737618Y-62285714D01*
X132070951Y-62761904D02*
X131309047Y-62761904D01*
X131785237Y-62095238D02*
X131785237Y-63809523D01*
X131785237Y-63809523D02*
X131689999Y-64000000D01*
X131689999Y-64000000D02*
X131499523Y-64095238D01*
X131499523Y-64095238D02*
X131309047Y-64095238D01*
X130642380Y-64095238D02*
X130642380Y-62095238D01*
X129785237Y-64095238D02*
X129785237Y-63047619D01*
X129785237Y-63047619D02*
X129880475Y-62857142D01*
X129880475Y-62857142D02*
X130070951Y-62761904D01*
X130070951Y-62761904D02*
X130356666Y-62761904D01*
X130356666Y-62761904D02*
X130547142Y-62857142D01*
X130547142Y-62857142D02*
X130642380Y-62952380D01*
X127975713Y-62761904D02*
X127975713Y-64095238D01*
X128832856Y-62761904D02*
X128832856Y-63809523D01*
X128832856Y-63809523D02*
X128737618Y-64000000D01*
X128737618Y-64000000D02*
X128547142Y-64095238D01*
X128547142Y-64095238D02*
X128261427Y-64095238D01*
X128261427Y-64095238D02*
X128070951Y-64000000D01*
X128070951Y-64000000D02*
X127975713Y-63904761D01*
X127023332Y-64095238D02*
X127023332Y-62095238D01*
X127023332Y-62857142D02*
X126832856Y-62761904D01*
X126832856Y-62761904D02*
X126451903Y-62761904D01*
X126451903Y-62761904D02*
X126261427Y-62857142D01*
X126261427Y-62857142D02*
X126166189Y-62952380D01*
X126166189Y-62952380D02*
X126070951Y-63142857D01*
X126070951Y-63142857D02*
X126070951Y-63714285D01*
X126070951Y-63714285D02*
X126166189Y-63904761D01*
X126166189Y-63904761D02*
X126261427Y-64000000D01*
X126261427Y-64000000D02*
X126451903Y-64095238D01*
X126451903Y-64095238D02*
X126832856Y-64095238D01*
X126832856Y-64095238D02*
X127023332Y-64000000D01*
X125213808Y-63904761D02*
X125118570Y-64000000D01*
X125118570Y-64000000D02*
X125213808Y-64095238D01*
X125213808Y-64095238D02*
X125309046Y-64000000D01*
X125309046Y-64000000D02*
X125213808Y-63904761D01*
X125213808Y-63904761D02*
X125213808Y-64095238D01*
X123404284Y-64000000D02*
X123594760Y-64095238D01*
X123594760Y-64095238D02*
X123975713Y-64095238D01*
X123975713Y-64095238D02*
X124166189Y-64000000D01*
X124166189Y-64000000D02*
X124261427Y-63904761D01*
X124261427Y-63904761D02*
X124356665Y-63714285D01*
X124356665Y-63714285D02*
X124356665Y-63142857D01*
X124356665Y-63142857D02*
X124261427Y-62952380D01*
X124261427Y-62952380D02*
X124166189Y-62857142D01*
X124166189Y-62857142D02*
X123975713Y-62761904D01*
X123975713Y-62761904D02*
X123594760Y-62761904D01*
X123594760Y-62761904D02*
X123404284Y-62857142D01*
X122261427Y-64095238D02*
X122451903Y-64000000D01*
X122451903Y-64000000D02*
X122547141Y-63904761D01*
X122547141Y-63904761D02*
X122642379Y-63714285D01*
X122642379Y-63714285D02*
X122642379Y-63142857D01*
X122642379Y-63142857D02*
X122547141Y-62952380D01*
X122547141Y-62952380D02*
X122451903Y-62857142D01*
X122451903Y-62857142D02*
X122261427Y-62761904D01*
X122261427Y-62761904D02*
X121975712Y-62761904D01*
X121975712Y-62761904D02*
X121785236Y-62857142D01*
X121785236Y-62857142D02*
X121689998Y-62952380D01*
X121689998Y-62952380D02*
X121594760Y-63142857D01*
X121594760Y-63142857D02*
X121594760Y-63714285D01*
X121594760Y-63714285D02*
X121689998Y-63904761D01*
X121689998Y-63904761D02*
X121785236Y-64000000D01*
X121785236Y-64000000D02*
X121975712Y-64095238D01*
X121975712Y-64095238D02*
X122261427Y-64095238D01*
X120737617Y-64095238D02*
X120737617Y-62761904D01*
X120737617Y-62952380D02*
X120642379Y-62857142D01*
X120642379Y-62857142D02*
X120451903Y-62761904D01*
X120451903Y-62761904D02*
X120166188Y-62761904D01*
X120166188Y-62761904D02*
X119975712Y-62857142D01*
X119975712Y-62857142D02*
X119880474Y-63047619D01*
X119880474Y-63047619D02*
X119880474Y-64095238D01*
X119880474Y-63047619D02*
X119785236Y-62857142D01*
X119785236Y-62857142D02*
X119594760Y-62761904D01*
X119594760Y-62761904D02*
X119309046Y-62761904D01*
X119309046Y-62761904D02*
X119118569Y-62857142D01*
X119118569Y-62857142D02*
X119023331Y-63047619D01*
X119023331Y-63047619D02*
X119023331Y-64095238D01*
X116642379Y-62000000D02*
X118356664Y-64571428D01*
X115023331Y-64095238D02*
X115975712Y-64095238D01*
X115975712Y-64095238D02*
X115975712Y-62095238D01*
X114070950Y-64095238D02*
X114261426Y-64000000D01*
X114261426Y-64000000D02*
X114356664Y-63809523D01*
X114356664Y-63809523D02*
X114356664Y-62095238D01*
X112451902Y-64095238D02*
X112451902Y-63047619D01*
X112451902Y-63047619D02*
X112547140Y-62857142D01*
X112547140Y-62857142D02*
X112737616Y-62761904D01*
X112737616Y-62761904D02*
X113118569Y-62761904D01*
X113118569Y-62761904D02*
X113309045Y-62857142D01*
X112451902Y-64000000D02*
X112642378Y-64095238D01*
X112642378Y-64095238D02*
X113118569Y-64095238D01*
X113118569Y-64095238D02*
X113309045Y-64000000D01*
X113309045Y-64000000D02*
X113404283Y-63809523D01*
X113404283Y-63809523D02*
X113404283Y-63619047D01*
X113404283Y-63619047D02*
X113309045Y-63428571D01*
X113309045Y-63428571D02*
X113118569Y-63333333D01*
X113118569Y-63333333D02*
X112642378Y-63333333D01*
X112642378Y-63333333D02*
X112451902Y-63238095D01*
X111499521Y-64095238D02*
X111499521Y-62761904D01*
X111499521Y-62952380D02*
X111404283Y-62857142D01*
X111404283Y-62857142D02*
X111213807Y-62761904D01*
X111213807Y-62761904D02*
X110928092Y-62761904D01*
X110928092Y-62761904D02*
X110737616Y-62857142D01*
X110737616Y-62857142D02*
X110642378Y-63047619D01*
X110642378Y-63047619D02*
X110642378Y-64095238D01*
X110642378Y-63047619D02*
X110547140Y-62857142D01*
X110547140Y-62857142D02*
X110356664Y-62761904D01*
X110356664Y-62761904D02*
X110070950Y-62761904D01*
X110070950Y-62761904D02*
X109880473Y-62857142D01*
X109880473Y-62857142D02*
X109785235Y-63047619D01*
X109785235Y-63047619D02*
X109785235Y-64095238D01*
X108070949Y-64000000D02*
X108261425Y-64095238D01*
X108261425Y-64095238D02*
X108642378Y-64095238D01*
X108642378Y-64095238D02*
X108832854Y-64000000D01*
X108832854Y-64000000D02*
X108928092Y-63809523D01*
X108928092Y-63809523D02*
X108928092Y-63047619D01*
X108928092Y-63047619D02*
X108832854Y-62857142D01*
X108832854Y-62857142D02*
X108642378Y-62761904D01*
X108642378Y-62761904D02*
X108261425Y-62761904D01*
X108261425Y-62761904D02*
X108070949Y-62857142D01*
X108070949Y-62857142D02*
X107975711Y-63047619D01*
X107975711Y-63047619D02*
X107975711Y-63238095D01*
X107975711Y-63238095D02*
X108928092Y-63428571D01*
X107118568Y-64095238D02*
X107118568Y-62761904D01*
X107118568Y-63142857D02*
X107023330Y-62952380D01*
X107023330Y-62952380D02*
X106928092Y-62857142D01*
X106928092Y-62857142D02*
X106737616Y-62761904D01*
X106737616Y-62761904D02*
X106547139Y-62761904D01*
X105594759Y-64095238D02*
X105785235Y-64000000D01*
X105785235Y-64000000D02*
X105880473Y-63904761D01*
X105880473Y-63904761D02*
X105975711Y-63714285D01*
X105975711Y-63714285D02*
X105975711Y-63142857D01*
X105975711Y-63142857D02*
X105880473Y-62952380D01*
X105880473Y-62952380D02*
X105785235Y-62857142D01*
X105785235Y-62857142D02*
X105594759Y-62761904D01*
X105594759Y-62761904D02*
X105309044Y-62761904D01*
X105309044Y-62761904D02*
X105118568Y-62857142D01*
X105118568Y-62857142D02*
X105023330Y-62952380D01*
X105023330Y-62952380D02*
X104928092Y-63142857D01*
X104928092Y-63142857D02*
X104928092Y-63714285D01*
X104928092Y-63714285D02*
X105023330Y-63904761D01*
X105023330Y-63904761D02*
X105118568Y-64000000D01*
X105118568Y-64000000D02*
X105309044Y-64095238D01*
X105309044Y-64095238D02*
X105594759Y-64095238D01*
X102642378Y-62000000D02*
X104356663Y-64571428D01*
X102070949Y-64000000D02*
X101785235Y-64095238D01*
X101785235Y-64095238D02*
X101309044Y-64095238D01*
X101309044Y-64095238D02*
X101118568Y-64000000D01*
X101118568Y-64000000D02*
X101023330Y-63904761D01*
X101023330Y-63904761D02*
X100928092Y-63714285D01*
X100928092Y-63714285D02*
X100928092Y-63523809D01*
X100928092Y-63523809D02*
X101023330Y-63333333D01*
X101023330Y-63333333D02*
X101118568Y-63238095D01*
X101118568Y-63238095D02*
X101309044Y-63142857D01*
X101309044Y-63142857D02*
X101689997Y-63047619D01*
X101689997Y-63047619D02*
X101880473Y-62952380D01*
X101880473Y-62952380D02*
X101975711Y-62857142D01*
X101975711Y-62857142D02*
X102070949Y-62666666D01*
X102070949Y-62666666D02*
X102070949Y-62476190D01*
X102070949Y-62476190D02*
X101975711Y-62285714D01*
X101975711Y-62285714D02*
X101880473Y-62190476D01*
X101880473Y-62190476D02*
X101689997Y-62095238D01*
X101689997Y-62095238D02*
X101213806Y-62095238D01*
X101213806Y-62095238D02*
X100928092Y-62190476D01*
X100356663Y-62761904D02*
X99594759Y-62761904D01*
X100070949Y-62095238D02*
X100070949Y-63809523D01*
X100070949Y-63809523D02*
X99975711Y-64000000D01*
X99975711Y-64000000D02*
X99785235Y-64095238D01*
X99785235Y-64095238D02*
X99594759Y-64095238D01*
X98070949Y-64095238D02*
X98070949Y-63047619D01*
X98070949Y-63047619D02*
X98166187Y-62857142D01*
X98166187Y-62857142D02*
X98356663Y-62761904D01*
X98356663Y-62761904D02*
X98737616Y-62761904D01*
X98737616Y-62761904D02*
X98928092Y-62857142D01*
X98070949Y-64000000D02*
X98261425Y-64095238D01*
X98261425Y-64095238D02*
X98737616Y-64095238D01*
X98737616Y-64095238D02*
X98928092Y-64000000D01*
X98928092Y-64000000D02*
X99023330Y-63809523D01*
X99023330Y-63809523D02*
X99023330Y-63619047D01*
X99023330Y-63619047D02*
X98928092Y-63428571D01*
X98928092Y-63428571D02*
X98737616Y-63333333D01*
X98737616Y-63333333D02*
X98261425Y-63333333D01*
X98261425Y-63333333D02*
X98070949Y-63238095D01*
X96261425Y-62761904D02*
X96261425Y-64380952D01*
X96261425Y-64380952D02*
X96356663Y-64571428D01*
X96356663Y-64571428D02*
X96451901Y-64666666D01*
X96451901Y-64666666D02*
X96642378Y-64761904D01*
X96642378Y-64761904D02*
X96928092Y-64761904D01*
X96928092Y-64761904D02*
X97118568Y-64666666D01*
X96261425Y-64000000D02*
X96451901Y-64095238D01*
X96451901Y-64095238D02*
X96832854Y-64095238D01*
X96832854Y-64095238D02*
X97023330Y-64000000D01*
X97023330Y-64000000D02*
X97118568Y-63904761D01*
X97118568Y-63904761D02*
X97213806Y-63714285D01*
X97213806Y-63714285D02*
X97213806Y-63142857D01*
X97213806Y-63142857D02*
X97118568Y-62952380D01*
X97118568Y-62952380D02*
X97023330Y-62857142D01*
X97023330Y-62857142D02*
X96832854Y-62761904D01*
X96832854Y-62761904D02*
X96451901Y-62761904D01*
X96451901Y-62761904D02*
X96261425Y-62857142D01*
X94547139Y-64000000D02*
X94737615Y-64095238D01*
X94737615Y-64095238D02*
X95118568Y-64095238D01*
X95118568Y-64095238D02*
X95309044Y-64000000D01*
X95309044Y-64000000D02*
X95404282Y-63809523D01*
X95404282Y-63809523D02*
X95404282Y-63047619D01*
X95404282Y-63047619D02*
X95309044Y-62857142D01*
X95309044Y-62857142D02*
X95118568Y-62761904D01*
X95118568Y-62761904D02*
X94737615Y-62761904D01*
X94737615Y-62761904D02*
X94547139Y-62857142D01*
X94547139Y-62857142D02*
X94451901Y-63047619D01*
X94451901Y-63047619D02*
X94451901Y-63238095D01*
X94451901Y-63238095D02*
X95404282Y-63428571D01*
X94070949Y-64285714D02*
X92547139Y-64285714D01*
X92356662Y-62761904D02*
X91594758Y-62761904D01*
X92070948Y-64095238D02*
X92070948Y-62380952D01*
X92070948Y-62380952D02*
X91975710Y-62190476D01*
X91975710Y-62190476D02*
X91785234Y-62095238D01*
X91785234Y-62095238D02*
X91594758Y-62095238D01*
X90642377Y-64095238D02*
X90832853Y-64000000D01*
X90832853Y-64000000D02*
X90928091Y-63809523D01*
X90928091Y-63809523D02*
X90928091Y-62095238D01*
X89594758Y-64095238D02*
X89785234Y-64000000D01*
X89785234Y-64000000D02*
X89880472Y-63904761D01*
X89880472Y-63904761D02*
X89975710Y-63714285D01*
X89975710Y-63714285D02*
X89975710Y-63142857D01*
X89975710Y-63142857D02*
X89880472Y-62952380D01*
X89880472Y-62952380D02*
X89785234Y-62857142D01*
X89785234Y-62857142D02*
X89594758Y-62761904D01*
X89594758Y-62761904D02*
X89309043Y-62761904D01*
X89309043Y-62761904D02*
X89118567Y-62857142D01*
X89118567Y-62857142D02*
X89023329Y-62952380D01*
X89023329Y-62952380D02*
X88928091Y-63142857D01*
X88928091Y-63142857D02*
X88928091Y-63714285D01*
X88928091Y-63714285D02*
X89023329Y-63904761D01*
X89023329Y-63904761D02*
X89118567Y-64000000D01*
X89118567Y-64000000D02*
X89309043Y-64095238D01*
X89309043Y-64095238D02*
X89594758Y-64095238D01*
X87785234Y-64095238D02*
X87975710Y-64000000D01*
X87975710Y-64000000D02*
X88070948Y-63904761D01*
X88070948Y-63904761D02*
X88166186Y-63714285D01*
X88166186Y-63714285D02*
X88166186Y-63142857D01*
X88166186Y-63142857D02*
X88070948Y-62952380D01*
X88070948Y-62952380D02*
X87975710Y-62857142D01*
X87975710Y-62857142D02*
X87785234Y-62761904D01*
X87785234Y-62761904D02*
X87499519Y-62761904D01*
X87499519Y-62761904D02*
X87309043Y-62857142D01*
X87309043Y-62857142D02*
X87213805Y-62952380D01*
X87213805Y-62952380D02*
X87118567Y-63142857D01*
X87118567Y-63142857D02*
X87118567Y-63714285D01*
X87118567Y-63714285D02*
X87213805Y-63904761D01*
X87213805Y-63904761D02*
X87309043Y-64000000D01*
X87309043Y-64000000D02*
X87499519Y-64095238D01*
X87499519Y-64095238D02*
X87785234Y-64095238D01*
X85404281Y-64095238D02*
X85404281Y-62095238D01*
X85404281Y-64000000D02*
X85594757Y-64095238D01*
X85594757Y-64095238D02*
X85975710Y-64095238D01*
X85975710Y-64095238D02*
X86166186Y-64000000D01*
X86166186Y-64000000D02*
X86261424Y-63904761D01*
X86261424Y-63904761D02*
X86356662Y-63714285D01*
X86356662Y-63714285D02*
X86356662Y-63142857D01*
X86356662Y-63142857D02*
X86261424Y-62952380D01*
X86261424Y-62952380D02*
X86166186Y-62857142D01*
X86166186Y-62857142D02*
X85975710Y-62761904D01*
X85975710Y-62761904D02*
X85594757Y-62761904D01*
X85594757Y-62761904D02*
X85404281Y-62857142D01*
X84928091Y-64285714D02*
X83404281Y-64285714D01*
X83023328Y-64000000D02*
X82832852Y-64095238D01*
X82832852Y-64095238D02*
X82451900Y-64095238D01*
X82451900Y-64095238D02*
X82261423Y-64000000D01*
X82261423Y-64000000D02*
X82166185Y-63809523D01*
X82166185Y-63809523D02*
X82166185Y-63714285D01*
X82166185Y-63714285D02*
X82261423Y-63523809D01*
X82261423Y-63523809D02*
X82451900Y-63428571D01*
X82451900Y-63428571D02*
X82737614Y-63428571D01*
X82737614Y-63428571D02*
X82928090Y-63333333D01*
X82928090Y-63333333D02*
X83023328Y-63142857D01*
X83023328Y-63142857D02*
X83023328Y-63047619D01*
X83023328Y-63047619D02*
X82928090Y-62857142D01*
X82928090Y-62857142D02*
X82737614Y-62761904D01*
X82737614Y-62761904D02*
X82451900Y-62761904D01*
X82451900Y-62761904D02*
X82261423Y-62857142D01*
X80547137Y-64000000D02*
X80737613Y-64095238D01*
X80737613Y-64095238D02*
X81118566Y-64095238D01*
X81118566Y-64095238D02*
X81309042Y-64000000D01*
X81309042Y-64000000D02*
X81404280Y-63809523D01*
X81404280Y-63809523D02*
X81404280Y-63047619D01*
X81404280Y-63047619D02*
X81309042Y-62857142D01*
X81309042Y-62857142D02*
X81118566Y-62761904D01*
X81118566Y-62761904D02*
X80737613Y-62761904D01*
X80737613Y-62761904D02*
X80547137Y-62857142D01*
X80547137Y-62857142D02*
X80451899Y-63047619D01*
X80451899Y-63047619D02*
X80451899Y-63238095D01*
X80451899Y-63238095D02*
X81404280Y-63428571D01*
X79594756Y-62761904D02*
X79594756Y-64095238D01*
X79594756Y-62952380D02*
X79499518Y-62857142D01*
X79499518Y-62857142D02*
X79309042Y-62761904D01*
X79309042Y-62761904D02*
X79023327Y-62761904D01*
X79023327Y-62761904D02*
X78832851Y-62857142D01*
X78832851Y-62857142D02*
X78737613Y-63047619D01*
X78737613Y-63047619D02*
X78737613Y-64095238D01*
X77880470Y-64000000D02*
X77689994Y-64095238D01*
X77689994Y-64095238D02*
X77309042Y-64095238D01*
X77309042Y-64095238D02*
X77118565Y-64000000D01*
X77118565Y-64000000D02*
X77023327Y-63809523D01*
X77023327Y-63809523D02*
X77023327Y-63714285D01*
X77023327Y-63714285D02*
X77118565Y-63523809D01*
X77118565Y-63523809D02*
X77309042Y-63428571D01*
X77309042Y-63428571D02*
X77594756Y-63428571D01*
X77594756Y-63428571D02*
X77785232Y-63333333D01*
X77785232Y-63333333D02*
X77880470Y-63142857D01*
X77880470Y-63142857D02*
X77880470Y-63047619D01*
X77880470Y-63047619D02*
X77785232Y-62857142D01*
X77785232Y-62857142D02*
X77594756Y-62761904D01*
X77594756Y-62761904D02*
X77309042Y-62761904D01*
X77309042Y-62761904D02*
X77118565Y-62857142D01*
X75880470Y-64095238D02*
X76070946Y-64000000D01*
X76070946Y-64000000D02*
X76166184Y-63904761D01*
X76166184Y-63904761D02*
X76261422Y-63714285D01*
X76261422Y-63714285D02*
X76261422Y-63142857D01*
X76261422Y-63142857D02*
X76166184Y-62952380D01*
X76166184Y-62952380D02*
X76070946Y-62857142D01*
X76070946Y-62857142D02*
X75880470Y-62761904D01*
X75880470Y-62761904D02*
X75594755Y-62761904D01*
X75594755Y-62761904D02*
X75404279Y-62857142D01*
X75404279Y-62857142D02*
X75309041Y-62952380D01*
X75309041Y-62952380D02*
X75213803Y-63142857D01*
X75213803Y-63142857D02*
X75213803Y-63714285D01*
X75213803Y-63714285D02*
X75309041Y-63904761D01*
X75309041Y-63904761D02*
X75404279Y-64000000D01*
X75404279Y-64000000D02*
X75594755Y-64095238D01*
X75594755Y-64095238D02*
X75880470Y-64095238D01*
X74356660Y-64095238D02*
X74356660Y-62761904D01*
X74356660Y-63142857D02*
X74261422Y-62952380D01*
X74261422Y-62952380D02*
X74166184Y-62857142D01*
X74166184Y-62857142D02*
X73975708Y-62761904D01*
X73975708Y-62761904D02*
X73785231Y-62761904D01*
X92723809Y-143983333D02*
X91200000Y-143983333D01*
X107693809Y-143973333D02*
X106170000Y-143973333D01*
X106931904Y-144735238D02*
X106931904Y-143211428D01*
D11*
X101870476Y-130927619D02*
X102203809Y-130451428D01*
X102441904Y-130927619D02*
X102441904Y-129927619D01*
X102441904Y-129927619D02*
X102060952Y-129927619D01*
X102060952Y-129927619D02*
X101965714Y-129975238D01*
X101965714Y-129975238D02*
X101918095Y-130022857D01*
X101918095Y-130022857D02*
X101870476Y-130118095D01*
X101870476Y-130118095D02*
X101870476Y-130260952D01*
X101870476Y-130260952D02*
X101918095Y-130356190D01*
X101918095Y-130356190D02*
X101965714Y-130403809D01*
X101965714Y-130403809D02*
X102060952Y-130451428D01*
X102060952Y-130451428D02*
X102441904Y-130451428D01*
X100870476Y-130832380D02*
X100918095Y-130880000D01*
X100918095Y-130880000D02*
X101060952Y-130927619D01*
X101060952Y-130927619D02*
X101156190Y-130927619D01*
X101156190Y-130927619D02*
X101299047Y-130880000D01*
X101299047Y-130880000D02*
X101394285Y-130784761D01*
X101394285Y-130784761D02*
X101441904Y-130689523D01*
X101441904Y-130689523D02*
X101489523Y-130499047D01*
X101489523Y-130499047D02*
X101489523Y-130356190D01*
X101489523Y-130356190D02*
X101441904Y-130165714D01*
X101441904Y-130165714D02*
X101394285Y-130070476D01*
X101394285Y-130070476D02*
X101299047Y-129975238D01*
X101299047Y-129975238D02*
X101156190Y-129927619D01*
X101156190Y-129927619D02*
X101060952Y-129927619D01*
X101060952Y-129927619D02*
X100918095Y-129975238D01*
X100918095Y-129975238D02*
X100870476Y-130022857D01*
X103060952Y-132023809D02*
X103394285Y-132023809D01*
X103394285Y-132547619D02*
X103394285Y-131547619D01*
X103394285Y-131547619D02*
X102918095Y-131547619D01*
X102537142Y-132547619D02*
X102537142Y-131880952D01*
X102537142Y-131547619D02*
X102584761Y-131595238D01*
X102584761Y-131595238D02*
X102537142Y-131642857D01*
X102537142Y-131642857D02*
X102489523Y-131595238D01*
X102489523Y-131595238D02*
X102537142Y-131547619D01*
X102537142Y-131547619D02*
X102537142Y-131642857D01*
X101918095Y-132547619D02*
X102013333Y-132500000D01*
X102013333Y-132500000D02*
X102060952Y-132404761D01*
X102060952Y-132404761D02*
X102060952Y-131547619D01*
X101679999Y-131880952D02*
X101299047Y-131880952D01*
X101537142Y-131547619D02*
X101537142Y-132404761D01*
X101537142Y-132404761D02*
X101489523Y-132500000D01*
X101489523Y-132500000D02*
X101394285Y-132547619D01*
X101394285Y-132547619D02*
X101299047Y-132547619D01*
X100584761Y-132500000D02*
X100679999Y-132547619D01*
X100679999Y-132547619D02*
X100870475Y-132547619D01*
X100870475Y-132547619D02*
X100965713Y-132500000D01*
X100965713Y-132500000D02*
X101013332Y-132404761D01*
X101013332Y-132404761D02*
X101013332Y-132023809D01*
X101013332Y-132023809D02*
X100965713Y-131928571D01*
X100965713Y-131928571D02*
X100870475Y-131880952D01*
X100870475Y-131880952D02*
X100679999Y-131880952D01*
X100679999Y-131880952D02*
X100584761Y-131928571D01*
X100584761Y-131928571D02*
X100537142Y-132023809D01*
X100537142Y-132023809D02*
X100537142Y-132119047D01*
X100537142Y-132119047D02*
X101013332Y-132214285D01*
X100108570Y-132547619D02*
X100108570Y-131880952D01*
X100108570Y-132071428D02*
X100060951Y-131976190D01*
X100060951Y-131976190D02*
X100013332Y-131928571D01*
X100013332Y-131928571D02*
X99918094Y-131880952D01*
X99918094Y-131880952D02*
X99822856Y-131880952D01*
G04 #@! TO.C,J1*
X106883333Y-148162619D02*
X106883333Y-148876904D01*
X106883333Y-148876904D02*
X106930952Y-149019761D01*
X106930952Y-149019761D02*
X107026190Y-149115000D01*
X107026190Y-149115000D02*
X107169047Y-149162619D01*
X107169047Y-149162619D02*
X107264285Y-149162619D01*
X105883333Y-149162619D02*
X106454761Y-149162619D01*
X106169047Y-149162619D02*
X106169047Y-148162619D01*
X106169047Y-148162619D02*
X106264285Y-148305476D01*
X106264285Y-148305476D02*
X106359523Y-148400714D01*
X106359523Y-148400714D02*
X106454761Y-148448333D01*
G04 #@! TO.C,J2*
X92743333Y-148202619D02*
X92743333Y-148916904D01*
X92743333Y-148916904D02*
X92790952Y-149059761D01*
X92790952Y-149059761D02*
X92886190Y-149155000D01*
X92886190Y-149155000D02*
X93029047Y-149202619D01*
X93029047Y-149202619D02*
X93124285Y-149202619D01*
X92314761Y-148297857D02*
X92267142Y-148250238D01*
X92267142Y-148250238D02*
X92171904Y-148202619D01*
X92171904Y-148202619D02*
X91933809Y-148202619D01*
X91933809Y-148202619D02*
X91838571Y-148250238D01*
X91838571Y-148250238D02*
X91790952Y-148297857D01*
X91790952Y-148297857D02*
X91743333Y-148393095D01*
X91743333Y-148393095D02*
X91743333Y-148488333D01*
X91743333Y-148488333D02*
X91790952Y-148631190D01*
X91790952Y-148631190D02*
X92362380Y-149202619D01*
X92362380Y-149202619D02*
X91743333Y-149202619D01*
G04 #@! TO.C,R2*
X98866666Y-134822619D02*
X99199999Y-134346428D01*
X99438094Y-134822619D02*
X99438094Y-133822619D01*
X99438094Y-133822619D02*
X99057142Y-133822619D01*
X99057142Y-133822619D02*
X98961904Y-133870238D01*
X98961904Y-133870238D02*
X98914285Y-133917857D01*
X98914285Y-133917857D02*
X98866666Y-134013095D01*
X98866666Y-134013095D02*
X98866666Y-134155952D01*
X98866666Y-134155952D02*
X98914285Y-134251190D01*
X98914285Y-134251190D02*
X98961904Y-134298809D01*
X98961904Y-134298809D02*
X99057142Y-134346428D01*
X99057142Y-134346428D02*
X99438094Y-134346428D01*
X98485713Y-133917857D02*
X98438094Y-133870238D01*
X98438094Y-133870238D02*
X98342856Y-133822619D01*
X98342856Y-133822619D02*
X98104761Y-133822619D01*
X98104761Y-133822619D02*
X98009523Y-133870238D01*
X98009523Y-133870238D02*
X97961904Y-133917857D01*
X97961904Y-133917857D02*
X97914285Y-134013095D01*
X97914285Y-134013095D02*
X97914285Y-134108333D01*
X97914285Y-134108333D02*
X97961904Y-134251190D01*
X97961904Y-134251190D02*
X98533332Y-134822619D01*
X98533332Y-134822619D02*
X97914285Y-134822619D01*
G04 #@! TO.C,C1*
X98876666Y-137587380D02*
X98924285Y-137635000D01*
X98924285Y-137635000D02*
X99067142Y-137682619D01*
X99067142Y-137682619D02*
X99162380Y-137682619D01*
X99162380Y-137682619D02*
X99305237Y-137635000D01*
X99305237Y-137635000D02*
X99400475Y-137539761D01*
X99400475Y-137539761D02*
X99448094Y-137444523D01*
X99448094Y-137444523D02*
X99495713Y-137254047D01*
X99495713Y-137254047D02*
X99495713Y-137111190D01*
X99495713Y-137111190D02*
X99448094Y-136920714D01*
X99448094Y-136920714D02*
X99400475Y-136825476D01*
X99400475Y-136825476D02*
X99305237Y-136730238D01*
X99305237Y-136730238D02*
X99162380Y-136682619D01*
X99162380Y-136682619D02*
X99067142Y-136682619D01*
X99067142Y-136682619D02*
X98924285Y-136730238D01*
X98924285Y-136730238D02*
X98876666Y-136777857D01*
X97924285Y-137682619D02*
X98495713Y-137682619D01*
X98209999Y-137682619D02*
X98209999Y-136682619D01*
X98209999Y-136682619D02*
X98305237Y-136825476D01*
X98305237Y-136825476D02*
X98400475Y-136920714D01*
X98400475Y-136920714D02*
X98495713Y-136968333D01*
G04 #@! TO.C,JP1*
X106223333Y-135232619D02*
X106223333Y-135946904D01*
X106223333Y-135946904D02*
X106270952Y-136089761D01*
X106270952Y-136089761D02*
X106366190Y-136185000D01*
X106366190Y-136185000D02*
X106509047Y-136232619D01*
X106509047Y-136232619D02*
X106604285Y-136232619D01*
X105747142Y-136232619D02*
X105747142Y-135232619D01*
X105747142Y-135232619D02*
X105366190Y-135232619D01*
X105366190Y-135232619D02*
X105270952Y-135280238D01*
X105270952Y-135280238D02*
X105223333Y-135327857D01*
X105223333Y-135327857D02*
X105175714Y-135423095D01*
X105175714Y-135423095D02*
X105175714Y-135565952D01*
X105175714Y-135565952D02*
X105223333Y-135661190D01*
X105223333Y-135661190D02*
X105270952Y-135708809D01*
X105270952Y-135708809D02*
X105366190Y-135756428D01*
X105366190Y-135756428D02*
X105747142Y-135756428D01*
X104223333Y-136232619D02*
X104794761Y-136232619D01*
X104509047Y-136232619D02*
X104509047Y-135232619D01*
X104509047Y-135232619D02*
X104604285Y-135375476D01*
X104604285Y-135375476D02*
X104699523Y-135470714D01*
X104699523Y-135470714D02*
X104794761Y-135518333D01*
G04 #@! TO.C,REF\u002A\u002A*
D12*
X63861634Y-52783172D02*
X63974216Y-53380363D01*
X64389629Y-53551610D01*
X64805043Y-53722857D01*
X65303400Y-53383978D01*
X65402036Y-53317170D01*
X65532797Y-53229479D01*
X65646008Y-53154580D01*
X65735789Y-53096320D01*
X65796261Y-53058545D01*
X65821544Y-53045098D01*
X65837072Y-53054661D01*
X65883487Y-53094730D01*
X65953730Y-53160487D01*
X66041848Y-53245895D01*
X66141889Y-53344915D01*
X66247902Y-53451509D01*
X66353935Y-53559640D01*
X66454035Y-53663268D01*
X66542251Y-53756358D01*
X66612632Y-53832869D01*
X66659225Y-53886765D01*
X66676079Y-53912007D01*
X66672158Y-53922852D01*
X66645012Y-53971228D01*
X66595439Y-54050842D01*
X66527459Y-54155454D01*
X66445091Y-54278822D01*
X66352353Y-54414706D01*
X66301460Y-54488815D01*
X66213912Y-54617835D01*
X66138853Y-54730434D01*
X66080285Y-54820505D01*
X66042209Y-54881942D01*
X66028628Y-54908640D01*
X66028851Y-54910119D01*
X66040831Y-54943962D01*
X66068316Y-55013071D01*
X66107474Y-55108416D01*
X66154474Y-55220972D01*
X66205485Y-55341710D01*
X66256676Y-55461602D01*
X66304215Y-55571622D01*
X66344271Y-55662740D01*
X66373013Y-55725931D01*
X66386610Y-55752165D01*
X66394655Y-55754492D01*
X66443535Y-55764988D01*
X66530652Y-55782376D01*
X66649033Y-55805295D01*
X66791704Y-55832389D01*
X66951692Y-55862296D01*
X67036015Y-55878153D01*
X67190783Y-55908407D01*
X67326104Y-55936347D01*
X67434582Y-55960369D01*
X67508820Y-55978868D01*
X67541422Y-55990238D01*
X67547278Y-56001511D01*
X67556992Y-56056586D01*
X67564624Y-56148317D01*
X67570180Y-56268073D01*
X67573666Y-56407221D01*
X67575087Y-56557131D01*
X67574450Y-56709172D01*
X67571760Y-56854712D01*
X67567024Y-56985121D01*
X67560247Y-57091766D01*
X67551436Y-57166018D01*
X67540595Y-57199245D01*
X67534017Y-57202993D01*
X67484955Y-57219069D01*
X67399847Y-57240338D01*
X67288529Y-57264472D01*
X67160840Y-57289143D01*
X67117757Y-57297000D01*
X66918773Y-57333542D01*
X66762388Y-57362910D01*
X66643183Y-57386321D01*
X66555737Y-57404994D01*
X66494628Y-57420146D01*
X66454435Y-57432995D01*
X66429738Y-57444758D01*
X66415116Y-57456653D01*
X66413416Y-57458649D01*
X66389504Y-57500271D01*
X66354119Y-57576430D01*
X66310692Y-57678193D01*
X66262651Y-57796624D01*
X66213425Y-57922789D01*
X66166445Y-58047754D01*
X66125140Y-58162584D01*
X66092939Y-58258344D01*
X66073271Y-58326100D01*
X66069565Y-58356917D01*
X66072043Y-58360915D01*
X66097689Y-58399584D01*
X66145920Y-58470907D01*
X66212262Y-58568314D01*
X66292245Y-58685234D01*
X66381397Y-58815098D01*
X66405865Y-58850828D01*
X66491903Y-58978990D01*
X66566258Y-59093608D01*
X66624688Y-59187887D01*
X66662947Y-59255029D01*
X66676792Y-59288235D01*
X66673809Y-59296965D01*
X66642711Y-59339982D01*
X66581355Y-59410230D01*
X66494137Y-59502979D01*
X66385449Y-59613502D01*
X66259685Y-59737071D01*
X66187800Y-59806235D01*
X66074139Y-59913957D01*
X65974657Y-60006225D01*
X65894695Y-60078181D01*
X65839595Y-60124968D01*
X65814698Y-60141727D01*
X65797593Y-60135515D01*
X65744929Y-60106126D01*
X65668449Y-60058063D01*
X65578129Y-59997412D01*
X65513911Y-59953153D01*
X65385705Y-59865261D01*
X65248894Y-59771915D01*
X65123932Y-59687091D01*
X64879137Y-59521515D01*
X64673649Y-59632620D01*
X64625263Y-59658265D01*
X64537270Y-59702130D01*
X64469223Y-59732414D01*
X64432856Y-59743706D01*
X64420954Y-59729205D01*
X64391400Y-59673992D01*
X64347748Y-59582962D01*
X64292426Y-59461892D01*
X64227863Y-59316559D01*
X64156489Y-59152741D01*
X64080732Y-58976213D01*
X64003022Y-58792753D01*
X63925786Y-58608138D01*
X63851456Y-58428146D01*
X63782458Y-58258552D01*
X63721223Y-58105135D01*
X63670179Y-57973670D01*
X63631755Y-57869936D01*
X63608380Y-57799709D01*
X63602483Y-57768766D01*
X63602883Y-57767862D01*
X63630349Y-57739257D01*
X63687799Y-57694457D01*
X63763373Y-57642751D01*
X63787227Y-57626962D01*
X63968734Y-57477174D01*
X64118953Y-57298767D01*
X64234327Y-57099165D01*
X64311299Y-56885797D01*
X64346314Y-56666087D01*
X64335813Y-56447462D01*
X64293277Y-56253011D01*
X64216903Y-56056657D01*
X64105565Y-55881484D01*
X63952774Y-55715082D01*
X63892739Y-55661924D01*
X63698658Y-55530951D01*
X63488999Y-55442744D01*
X63269837Y-55396512D01*
X63047247Y-55391467D01*
X62827307Y-55426820D01*
X62616090Y-55501779D01*
X62419673Y-55615557D01*
X62244132Y-55767363D01*
X62095542Y-55956409D01*
X62066974Y-56003224D01*
X61969873Y-56217204D01*
X61918303Y-56440026D01*
X61910914Y-56665922D01*
X61946355Y-56889119D01*
X62023276Y-57103847D01*
X62140326Y-57304336D01*
X62296155Y-57484814D01*
X62489413Y-57639510D01*
X62495689Y-57643679D01*
X62570461Y-57696370D01*
X62626504Y-57741169D01*
X62652100Y-57768766D01*
X62648870Y-57790402D01*
X62628790Y-57853399D01*
X62593184Y-57951038D01*
X62544480Y-58077542D01*
X62485108Y-58227132D01*
X62417494Y-58394030D01*
X62344066Y-58572457D01*
X62267254Y-58756636D01*
X62189484Y-58940787D01*
X62113185Y-59119133D01*
X62040784Y-59285895D01*
X61974710Y-59435294D01*
X61917391Y-59561554D01*
X61871255Y-59658894D01*
X61838730Y-59721538D01*
X61822243Y-59743706D01*
X61808533Y-59740703D01*
X61754670Y-59719126D01*
X61675064Y-59681293D01*
X61581449Y-59632620D01*
X61375962Y-59521515D01*
X61131167Y-59687091D01*
X61058845Y-59736120D01*
X60924326Y-59827729D01*
X60790215Y-59919485D01*
X60676970Y-59997412D01*
X60614470Y-60039881D01*
X60533239Y-60092644D01*
X60473009Y-60128765D01*
X60443591Y-60142157D01*
X60430953Y-60136471D01*
X60385267Y-60101645D01*
X60314838Y-60040329D01*
X60225796Y-59958554D01*
X60124272Y-59862351D01*
X60016394Y-59757751D01*
X59908295Y-59650786D01*
X59806103Y-59547485D01*
X59715950Y-59453882D01*
X59643964Y-59376006D01*
X59596278Y-59319889D01*
X59579020Y-59291562D01*
X59580015Y-59286172D01*
X59600555Y-59242304D01*
X59644434Y-59166407D01*
X59707412Y-59065336D01*
X59785247Y-58945948D01*
X59873701Y-58815098D01*
X59898509Y-58779005D01*
X59985618Y-58652000D01*
X60062347Y-58539718D01*
X60124224Y-58448730D01*
X60166777Y-58385606D01*
X60185534Y-58356917D01*
X60185995Y-58355687D01*
X60180459Y-58320588D01*
X60159320Y-58249484D01*
X60126005Y-58151310D01*
X60083945Y-58035002D01*
X60036570Y-57909493D01*
X59987308Y-57783718D01*
X59939589Y-57666612D01*
X59896842Y-57567110D01*
X59862497Y-57494145D01*
X59839983Y-57456653D01*
X59837728Y-57454325D01*
X59821608Y-57442549D01*
X59794383Y-57430673D01*
X59750633Y-57417481D01*
X59684935Y-57401754D01*
X59591870Y-57382274D01*
X59466016Y-57357824D01*
X59301953Y-57327186D01*
X59094259Y-57289143D01*
X59051181Y-57281136D01*
X58927777Y-57256384D01*
X58823972Y-57232933D01*
X58749601Y-57213110D01*
X58714504Y-57199245D01*
X58708632Y-57187677D01*
X58698842Y-57132110D01*
X58691085Y-57039990D01*
X58685365Y-56919951D01*
X58681689Y-56780622D01*
X58680062Y-56630635D01*
X58680491Y-56478621D01*
X58682982Y-56333212D01*
X58687540Y-56203037D01*
X58694171Y-56096730D01*
X58702881Y-56022919D01*
X58713677Y-55990238D01*
X58724699Y-55985410D01*
X58779531Y-55970191D01*
X58872213Y-55948666D01*
X58995351Y-55922439D01*
X59141548Y-55893114D01*
X59303406Y-55862296D01*
X59391784Y-55845831D01*
X59543259Y-55817279D01*
X59673640Y-55792277D01*
X59775954Y-55772185D01*
X59843228Y-55758362D01*
X59868489Y-55752165D01*
X59869438Y-55750888D01*
X59885526Y-55718437D01*
X59916194Y-55650452D01*
X59957611Y-55555954D01*
X60005941Y-55443964D01*
X60057354Y-55323500D01*
X60108014Y-55203584D01*
X60154089Y-55093235D01*
X60191746Y-55001473D01*
X60217151Y-54937319D01*
X60226471Y-54909792D01*
X60222360Y-54900106D01*
X60195000Y-54854018D01*
X60145370Y-54776440D01*
X60077460Y-54673461D01*
X59995255Y-54551167D01*
X59902746Y-54415646D01*
X59851991Y-54341429D01*
X59764403Y-54211309D01*
X59689306Y-54097112D01*
X59630707Y-54005066D01*
X59592609Y-53941398D01*
X59579020Y-53912337D01*
X59588462Y-53896573D01*
X59627960Y-53849471D01*
X59692758Y-53778186D01*
X59776909Y-53688760D01*
X59874464Y-53587232D01*
X59979474Y-53479643D01*
X60085993Y-53372034D01*
X60188071Y-53270445D01*
X60279760Y-53180917D01*
X60355112Y-53109489D01*
X60408180Y-53062203D01*
X60433014Y-53045098D01*
X60446799Y-53051749D01*
X60497418Y-53082592D01*
X60579105Y-53135083D01*
X60685972Y-53205375D01*
X60812132Y-53289622D01*
X60951698Y-53383978D01*
X61450056Y-53722857D01*
X61865469Y-53551610D01*
X62280883Y-53380363D01*
X62393465Y-52783172D01*
X62506048Y-52185980D01*
X63749051Y-52185980D01*
X63861634Y-52783172D01*
G36*
X63861634Y-52783172D02*
G01*
X63974216Y-53380363D01*
X64389629Y-53551610D01*
X64805043Y-53722857D01*
X65303400Y-53383978D01*
X65402036Y-53317170D01*
X65532797Y-53229479D01*
X65646008Y-53154580D01*
X65735789Y-53096320D01*
X65796261Y-53058545D01*
X65821544Y-53045098D01*
X65837072Y-53054661D01*
X65883487Y-53094730D01*
X65953730Y-53160487D01*
X66041848Y-53245895D01*
X66141889Y-53344915D01*
X66247902Y-53451509D01*
X66353935Y-53559640D01*
X66454035Y-53663268D01*
X66542251Y-53756358D01*
X66612632Y-53832869D01*
X66659225Y-53886765D01*
X66676079Y-53912007D01*
X66672158Y-53922852D01*
X66645012Y-53971228D01*
X66595439Y-54050842D01*
X66527459Y-54155454D01*
X66445091Y-54278822D01*
X66352353Y-54414706D01*
X66301460Y-54488815D01*
X66213912Y-54617835D01*
X66138853Y-54730434D01*
X66080285Y-54820505D01*
X66042209Y-54881942D01*
X66028628Y-54908640D01*
X66028851Y-54910119D01*
X66040831Y-54943962D01*
X66068316Y-55013071D01*
X66107474Y-55108416D01*
X66154474Y-55220972D01*
X66205485Y-55341710D01*
X66256676Y-55461602D01*
X66304215Y-55571622D01*
X66344271Y-55662740D01*
X66373013Y-55725931D01*
X66386610Y-55752165D01*
X66394655Y-55754492D01*
X66443535Y-55764988D01*
X66530652Y-55782376D01*
X66649033Y-55805295D01*
X66791704Y-55832389D01*
X66951692Y-55862296D01*
X67036015Y-55878153D01*
X67190783Y-55908407D01*
X67326104Y-55936347D01*
X67434582Y-55960369D01*
X67508820Y-55978868D01*
X67541422Y-55990238D01*
X67547278Y-56001511D01*
X67556992Y-56056586D01*
X67564624Y-56148317D01*
X67570180Y-56268073D01*
X67573666Y-56407221D01*
X67575087Y-56557131D01*
X67574450Y-56709172D01*
X67571760Y-56854712D01*
X67567024Y-56985121D01*
X67560247Y-57091766D01*
X67551436Y-57166018D01*
X67540595Y-57199245D01*
X67534017Y-57202993D01*
X67484955Y-57219069D01*
X67399847Y-57240338D01*
X67288529Y-57264472D01*
X67160840Y-57289143D01*
X67117757Y-57297000D01*
X66918773Y-57333542D01*
X66762388Y-57362910D01*
X66643183Y-57386321D01*
X66555737Y-57404994D01*
X66494628Y-57420146D01*
X66454435Y-57432995D01*
X66429738Y-57444758D01*
X66415116Y-57456653D01*
X66413416Y-57458649D01*
X66389504Y-57500271D01*
X66354119Y-57576430D01*
X66310692Y-57678193D01*
X66262651Y-57796624D01*
X66213425Y-57922789D01*
X66166445Y-58047754D01*
X66125140Y-58162584D01*
X66092939Y-58258344D01*
X66073271Y-58326100D01*
X66069565Y-58356917D01*
X66072043Y-58360915D01*
X66097689Y-58399584D01*
X66145920Y-58470907D01*
X66212262Y-58568314D01*
X66292245Y-58685234D01*
X66381397Y-58815098D01*
X66405865Y-58850828D01*
X66491903Y-58978990D01*
X66566258Y-59093608D01*
X66624688Y-59187887D01*
X66662947Y-59255029D01*
X66676792Y-59288235D01*
X66673809Y-59296965D01*
X66642711Y-59339982D01*
X66581355Y-59410230D01*
X66494137Y-59502979D01*
X66385449Y-59613502D01*
X66259685Y-59737071D01*
X66187800Y-59806235D01*
X66074139Y-59913957D01*
X65974657Y-60006225D01*
X65894695Y-60078181D01*
X65839595Y-60124968D01*
X65814698Y-60141727D01*
X65797593Y-60135515D01*
X65744929Y-60106126D01*
X65668449Y-60058063D01*
X65578129Y-59997412D01*
X65513911Y-59953153D01*
X65385705Y-59865261D01*
X65248894Y-59771915D01*
X65123932Y-59687091D01*
X64879137Y-59521515D01*
X64673649Y-59632620D01*
X64625263Y-59658265D01*
X64537270Y-59702130D01*
X64469223Y-59732414D01*
X64432856Y-59743706D01*
X64420954Y-59729205D01*
X64391400Y-59673992D01*
X64347748Y-59582962D01*
X64292426Y-59461892D01*
X64227863Y-59316559D01*
X64156489Y-59152741D01*
X64080732Y-58976213D01*
X64003022Y-58792753D01*
X63925786Y-58608138D01*
X63851456Y-58428146D01*
X63782458Y-58258552D01*
X63721223Y-58105135D01*
X63670179Y-57973670D01*
X63631755Y-57869936D01*
X63608380Y-57799709D01*
X63602483Y-57768766D01*
X63602883Y-57767862D01*
X63630349Y-57739257D01*
X63687799Y-57694457D01*
X63763373Y-57642751D01*
X63787227Y-57626962D01*
X63968734Y-57477174D01*
X64118953Y-57298767D01*
X64234327Y-57099165D01*
X64311299Y-56885797D01*
X64346314Y-56666087D01*
X64335813Y-56447462D01*
X64293277Y-56253011D01*
X64216903Y-56056657D01*
X64105565Y-55881484D01*
X63952774Y-55715082D01*
X63892739Y-55661924D01*
X63698658Y-55530951D01*
X63488999Y-55442744D01*
X63269837Y-55396512D01*
X63047247Y-55391467D01*
X62827307Y-55426820D01*
X62616090Y-55501779D01*
X62419673Y-55615557D01*
X62244132Y-55767363D01*
X62095542Y-55956409D01*
X62066974Y-56003224D01*
X61969873Y-56217204D01*
X61918303Y-56440026D01*
X61910914Y-56665922D01*
X61946355Y-56889119D01*
X62023276Y-57103847D01*
X62140326Y-57304336D01*
X62296155Y-57484814D01*
X62489413Y-57639510D01*
X62495689Y-57643679D01*
X62570461Y-57696370D01*
X62626504Y-57741169D01*
X62652100Y-57768766D01*
X62648870Y-57790402D01*
X62628790Y-57853399D01*
X62593184Y-57951038D01*
X62544480Y-58077542D01*
X62485108Y-58227132D01*
X62417494Y-58394030D01*
X62344066Y-58572457D01*
X62267254Y-58756636D01*
X62189484Y-58940787D01*
X62113185Y-59119133D01*
X62040784Y-59285895D01*
X61974710Y-59435294D01*
X61917391Y-59561554D01*
X61871255Y-59658894D01*
X61838730Y-59721538D01*
X61822243Y-59743706D01*
X61808533Y-59740703D01*
X61754670Y-59719126D01*
X61675064Y-59681293D01*
X61581449Y-59632620D01*
X61375962Y-59521515D01*
X61131167Y-59687091D01*
X61058845Y-59736120D01*
X60924326Y-59827729D01*
X60790215Y-59919485D01*
X60676970Y-59997412D01*
X60614470Y-60039881D01*
X60533239Y-60092644D01*
X60473009Y-60128765D01*
X60443591Y-60142157D01*
X60430953Y-60136471D01*
X60385267Y-60101645D01*
X60314838Y-60040329D01*
X60225796Y-59958554D01*
X60124272Y-59862351D01*
X60016394Y-59757751D01*
X59908295Y-59650786D01*
X59806103Y-59547485D01*
X59715950Y-59453882D01*
X59643964Y-59376006D01*
X59596278Y-59319889D01*
X59579020Y-59291562D01*
X59580015Y-59286172D01*
X59600555Y-59242304D01*
X59644434Y-59166407D01*
X59707412Y-59065336D01*
X59785247Y-58945948D01*
X59873701Y-58815098D01*
X59898509Y-58779005D01*
X59985618Y-58652000D01*
X60062347Y-58539718D01*
X60124224Y-58448730D01*
X60166777Y-58385606D01*
X60185534Y-58356917D01*
X60185995Y-58355687D01*
X60180459Y-58320588D01*
X60159320Y-58249484D01*
X60126005Y-58151310D01*
X60083945Y-58035002D01*
X60036570Y-57909493D01*
X59987308Y-57783718D01*
X59939589Y-57666612D01*
X59896842Y-57567110D01*
X59862497Y-57494145D01*
X59839983Y-57456653D01*
X59837728Y-57454325D01*
X59821608Y-57442549D01*
X59794383Y-57430673D01*
X59750633Y-57417481D01*
X59684935Y-57401754D01*
X59591870Y-57382274D01*
X59466016Y-57357824D01*
X59301953Y-57327186D01*
X59094259Y-57289143D01*
X59051181Y-57281136D01*
X58927777Y-57256384D01*
X58823972Y-57232933D01*
X58749601Y-57213110D01*
X58714504Y-57199245D01*
X58708632Y-57187677D01*
X58698842Y-57132110D01*
X58691085Y-57039990D01*
X58685365Y-56919951D01*
X58681689Y-56780622D01*
X58680062Y-56630635D01*
X58680491Y-56478621D01*
X58682982Y-56333212D01*
X58687540Y-56203037D01*
X58694171Y-56096730D01*
X58702881Y-56022919D01*
X58713677Y-55990238D01*
X58724699Y-55985410D01*
X58779531Y-55970191D01*
X58872213Y-55948666D01*
X58995351Y-55922439D01*
X59141548Y-55893114D01*
X59303406Y-55862296D01*
X59391784Y-55845831D01*
X59543259Y-55817279D01*
X59673640Y-55792277D01*
X59775954Y-55772185D01*
X59843228Y-55758362D01*
X59868489Y-55752165D01*
X59869438Y-55750888D01*
X59885526Y-55718437D01*
X59916194Y-55650452D01*
X59957611Y-55555954D01*
X60005941Y-55443964D01*
X60057354Y-55323500D01*
X60108014Y-55203584D01*
X60154089Y-55093235D01*
X60191746Y-55001473D01*
X60217151Y-54937319D01*
X60226471Y-54909792D01*
X60222360Y-54900106D01*
X60195000Y-54854018D01*
X60145370Y-54776440D01*
X60077460Y-54673461D01*
X59995255Y-54551167D01*
X59902746Y-54415646D01*
X59851991Y-54341429D01*
X59764403Y-54211309D01*
X59689306Y-54097112D01*
X59630707Y-54005066D01*
X59592609Y-53941398D01*
X59579020Y-53912337D01*
X59588462Y-53896573D01*
X59627960Y-53849471D01*
X59692758Y-53778186D01*
X59776909Y-53688760D01*
X59874464Y-53587232D01*
X59979474Y-53479643D01*
X60085993Y-53372034D01*
X60188071Y-53270445D01*
X60279760Y-53180917D01*
X60355112Y-53109489D01*
X60408180Y-53062203D01*
X60433014Y-53045098D01*
X60446799Y-53051749D01*
X60497418Y-53082592D01*
X60579105Y-53135083D01*
X60685972Y-53205375D01*
X60812132Y-53289622D01*
X60951698Y-53383978D01*
X61450056Y-53722857D01*
X61865469Y-53551610D01*
X62280883Y-53380363D01*
X62393465Y-52783172D01*
X62506048Y-52185980D01*
X63749051Y-52185980D01*
X63861634Y-52783172D01*
G37*
X63335810Y-61037820D02*
X63479629Y-61073866D01*
X63584691Y-61140677D01*
X63651594Y-61238702D01*
X63680940Y-61368387D01*
X63674999Y-61492544D01*
X63632114Y-61597266D01*
X63549876Y-61674693D01*
X63426635Y-61726337D01*
X63260744Y-61753710D01*
X63152952Y-61768057D01*
X63054566Y-61799099D01*
X63003771Y-61844053D01*
X63000704Y-61902838D01*
X63021146Y-61939493D01*
X63084454Y-61982935D01*
X63174449Y-62003483D01*
X63279913Y-62000673D01*
X63389626Y-61974042D01*
X63492368Y-61923128D01*
X63594804Y-61855339D01*
X63684902Y-61946508D01*
X63775000Y-62037676D01*
X63700295Y-62098655D01*
X63671246Y-62119842D01*
X63589517Y-62167978D01*
X63501079Y-62209457D01*
X63431087Y-62233262D01*
X63328602Y-62250504D01*
X63202255Y-62250732D01*
X63047318Y-62231748D01*
X62907745Y-62183630D01*
X62808950Y-62107195D01*
X62750701Y-62002254D01*
X62732762Y-61868617D01*
X62745747Y-61751054D01*
X62787431Y-61654803D01*
X62862477Y-61585873D01*
X62975635Y-61540030D01*
X63131654Y-61513042D01*
X63149574Y-61511088D01*
X63246714Y-61498630D01*
X63325514Y-61485592D01*
X63370344Y-61474499D01*
X63385304Y-61465567D01*
X63410596Y-61419509D01*
X63406488Y-61360553D01*
X63372688Y-61309373D01*
X63354939Y-61298210D01*
X63280981Y-61280326D01*
X63185451Y-61281529D01*
X63085836Y-61300561D01*
X62999621Y-61336168D01*
X62909031Y-61389618D01*
X62838763Y-61307505D01*
X62821712Y-61286644D01*
X62783298Y-61230761D01*
X62767483Y-61192887D01*
X62784090Y-61169664D01*
X62835469Y-61133412D01*
X62909657Y-61094402D01*
X62920110Y-61089633D01*
X63017941Y-61052229D01*
X63112241Y-61034345D01*
X63229262Y-61030754D01*
X63335810Y-61037820D01*
G36*
X63335810Y-61037820D02*
G01*
X63479629Y-61073866D01*
X63584691Y-61140677D01*
X63651594Y-61238702D01*
X63680940Y-61368387D01*
X63674999Y-61492544D01*
X63632114Y-61597266D01*
X63549876Y-61674693D01*
X63426635Y-61726337D01*
X63260744Y-61753710D01*
X63152952Y-61768057D01*
X63054566Y-61799099D01*
X63003771Y-61844053D01*
X63000704Y-61902838D01*
X63021146Y-61939493D01*
X63084454Y-61982935D01*
X63174449Y-62003483D01*
X63279913Y-62000673D01*
X63389626Y-61974042D01*
X63492368Y-61923128D01*
X63594804Y-61855339D01*
X63684902Y-61946508D01*
X63775000Y-62037676D01*
X63700295Y-62098655D01*
X63671246Y-62119842D01*
X63589517Y-62167978D01*
X63501079Y-62209457D01*
X63431087Y-62233262D01*
X63328602Y-62250504D01*
X63202255Y-62250732D01*
X63047318Y-62231748D01*
X62907745Y-62183630D01*
X62808950Y-62107195D01*
X62750701Y-62002254D01*
X62732762Y-61868617D01*
X62745747Y-61751054D01*
X62787431Y-61654803D01*
X62862477Y-61585873D01*
X62975635Y-61540030D01*
X63131654Y-61513042D01*
X63149574Y-61511088D01*
X63246714Y-61498630D01*
X63325514Y-61485592D01*
X63370344Y-61474499D01*
X63385304Y-61465567D01*
X63410596Y-61419509D01*
X63406488Y-61360553D01*
X63372688Y-61309373D01*
X63354939Y-61298210D01*
X63280981Y-61280326D01*
X63185451Y-61281529D01*
X63085836Y-61300561D01*
X62999621Y-61336168D01*
X62909031Y-61389618D01*
X62838763Y-61307505D01*
X62821712Y-61286644D01*
X62783298Y-61230761D01*
X62767483Y-61192887D01*
X62784090Y-61169664D01*
X62835469Y-61133412D01*
X62909657Y-61094402D01*
X62920110Y-61089633D01*
X63017941Y-61052229D01*
X63112241Y-61034345D01*
X63229262Y-61030754D01*
X63335810Y-61037820D01*
G37*
X66518460Y-63737808D02*
X66521123Y-63794559D01*
X66520841Y-63797844D01*
X66490497Y-63925772D01*
X66423002Y-64021986D01*
X66315000Y-64091318D01*
X66259189Y-64108186D01*
X66163593Y-64121333D01*
X66059055Y-64124472D01*
X65964738Y-64117237D01*
X65899808Y-64099262D01*
X65860370Y-64084864D01*
X65821758Y-64099262D01*
X65807634Y-64107604D01*
X65751261Y-64121131D01*
X65675020Y-64126471D01*
X65555491Y-64126471D01*
X65555491Y-63699278D01*
X65829412Y-63699278D01*
X65838619Y-63772143D01*
X65874951Y-63836239D01*
X65895744Y-63850110D01*
X65969958Y-63871731D01*
X66062610Y-63877129D01*
X66153468Y-63866162D01*
X66222303Y-63838686D01*
X66256595Y-63802358D01*
X66277647Y-63737808D01*
X66258977Y-63686639D01*
X66197259Y-63642148D01*
X66098047Y-63613605D01*
X65967173Y-63603530D01*
X65829412Y-63603530D01*
X65829412Y-63699278D01*
X65555491Y-63699278D01*
X65555491Y-63644565D01*
X65555500Y-63602890D01*
X65555954Y-63445810D01*
X65557658Y-63329029D01*
X65561385Y-63244788D01*
X65567911Y-63185329D01*
X65578008Y-63142891D01*
X65592452Y-63109716D01*
X65612016Y-63078045D01*
X65674949Y-63003837D01*
X65764130Y-62947180D01*
X65881280Y-62915922D01*
X66035653Y-62906313D01*
X66040671Y-62906323D01*
X66147980Y-62911170D01*
X66244028Y-62923252D01*
X66309575Y-62940191D01*
X66327545Y-62948679D01*
X66384740Y-62984627D01*
X66436499Y-63027352D01*
X66470553Y-63065800D01*
X66474635Y-63088916D01*
X66466669Y-63095164D01*
X66379875Y-63161855D01*
X66321839Y-63201188D01*
X66283465Y-63217057D01*
X66255659Y-63213359D01*
X66229327Y-63193990D01*
X66180730Y-63169809D01*
X66098833Y-63153687D01*
X66006273Y-63149505D01*
X65922519Y-63158015D01*
X65867035Y-63179972D01*
X65864116Y-63182644D01*
X65839183Y-63232836D01*
X65829412Y-63307755D01*
X65829412Y-63404314D01*
X66059755Y-63404407D01*
X66165565Y-63406082D01*
X66254632Y-63413368D01*
X66318345Y-63428357D01*
X66369821Y-63453110D01*
X66381800Y-63460712D01*
X66468466Y-63544282D01*
X66514564Y-63654790D01*
X66518460Y-63737808D01*
G36*
X66518460Y-63737808D02*
G01*
X66521123Y-63794559D01*
X66520841Y-63797844D01*
X66490497Y-63925772D01*
X66423002Y-64021986D01*
X66315000Y-64091318D01*
X66259189Y-64108186D01*
X66163593Y-64121333D01*
X66059055Y-64124472D01*
X65964738Y-64117237D01*
X65899808Y-64099262D01*
X65860370Y-64084864D01*
X65821758Y-64099262D01*
X65807634Y-64107604D01*
X65751261Y-64121131D01*
X65675020Y-64126471D01*
X65555491Y-64126471D01*
X65555491Y-63699278D01*
X65829412Y-63699278D01*
X65838619Y-63772143D01*
X65874951Y-63836239D01*
X65895744Y-63850110D01*
X65969958Y-63871731D01*
X66062610Y-63877129D01*
X66153468Y-63866162D01*
X66222303Y-63838686D01*
X66256595Y-63802358D01*
X66277647Y-63737808D01*
X66258977Y-63686639D01*
X66197259Y-63642148D01*
X66098047Y-63613605D01*
X65967173Y-63603530D01*
X65829412Y-63603530D01*
X65829412Y-63699278D01*
X65555491Y-63699278D01*
X65555491Y-63644565D01*
X65555500Y-63602890D01*
X65555954Y-63445810D01*
X65557658Y-63329029D01*
X65561385Y-63244788D01*
X65567911Y-63185329D01*
X65578008Y-63142891D01*
X65592452Y-63109716D01*
X65612016Y-63078045D01*
X65674949Y-63003837D01*
X65764130Y-62947180D01*
X65881280Y-62915922D01*
X66035653Y-62906313D01*
X66040671Y-62906323D01*
X66147980Y-62911170D01*
X66244028Y-62923252D01*
X66309575Y-62940191D01*
X66327545Y-62948679D01*
X66384740Y-62984627D01*
X66436499Y-63027352D01*
X66470553Y-63065800D01*
X66474635Y-63088916D01*
X66466669Y-63095164D01*
X66379875Y-63161855D01*
X66321839Y-63201188D01*
X66283465Y-63217057D01*
X66255659Y-63213359D01*
X66229327Y-63193990D01*
X66180730Y-63169809D01*
X66098833Y-63153687D01*
X66006273Y-63149505D01*
X65922519Y-63158015D01*
X65867035Y-63179972D01*
X65864116Y-63182644D01*
X65839183Y-63232836D01*
X65829412Y-63307755D01*
X65829412Y-63404314D01*
X66059755Y-63404407D01*
X66165565Y-63406082D01*
X66254632Y-63413368D01*
X66318345Y-63428357D01*
X66369821Y-63453110D01*
X66381800Y-63460712D01*
X66468466Y-63544282D01*
X66514564Y-63654790D01*
X66518460Y-63737808D01*
G37*
X65306471Y-64126471D02*
X65057451Y-64126471D01*
X65057451Y-63742111D01*
X65057176Y-63652706D01*
X65054344Y-63504629D01*
X65047176Y-63395003D01*
X65034116Y-63316252D01*
X65013608Y-63260798D01*
X64984098Y-63221061D01*
X64944031Y-63189465D01*
X64900290Y-63165921D01*
X64848496Y-63159246D01*
X64774831Y-63174090D01*
X64751159Y-63180271D01*
X64692069Y-63189572D01*
X64649818Y-63176245D01*
X64600848Y-63134996D01*
X64591555Y-63126026D01*
X64540179Y-63070534D01*
X64507047Y-63025415D01*
X64502502Y-63014545D01*
X64511508Y-62974409D01*
X64557174Y-62942320D01*
X64629246Y-62919799D01*
X64717471Y-62908367D01*
X64811594Y-62909544D01*
X64901362Y-62924850D01*
X64976520Y-62955806D01*
X65000343Y-62970260D01*
X65040449Y-62991417D01*
X65055296Y-62986572D01*
X65057451Y-62955712D01*
X65057957Y-62944633D01*
X65069970Y-62920091D01*
X65107236Y-62908921D01*
X65181961Y-62906275D01*
X65306471Y-62906275D01*
X65306471Y-64126471D01*
G36*
X65306471Y-64126471D02*
G01*
X65057451Y-64126471D01*
X65057451Y-63742111D01*
X65057176Y-63652706D01*
X65054344Y-63504629D01*
X65047176Y-63395003D01*
X65034116Y-63316252D01*
X65013608Y-63260798D01*
X64984098Y-63221061D01*
X64944031Y-63189465D01*
X64900290Y-63165921D01*
X64848496Y-63159246D01*
X64774831Y-63174090D01*
X64751159Y-63180271D01*
X64692069Y-63189572D01*
X64649818Y-63176245D01*
X64600848Y-63134996D01*
X64591555Y-63126026D01*
X64540179Y-63070534D01*
X64507047Y-63025415D01*
X64502502Y-63014545D01*
X64511508Y-62974409D01*
X64557174Y-62942320D01*
X64629246Y-62919799D01*
X64717471Y-62908367D01*
X64811594Y-62909544D01*
X64901362Y-62924850D01*
X64976520Y-62955806D01*
X65000343Y-62970260D01*
X65040449Y-62991417D01*
X65055296Y-62986572D01*
X65057451Y-62955712D01*
X65057957Y-62944633D01*
X65069970Y-62920091D01*
X65107236Y-62908921D01*
X65181961Y-62906275D01*
X65306471Y-62906275D01*
X65306471Y-64126471D01*
G37*
X59747842Y-61029381D02*
X59808889Y-61048439D01*
X59884069Y-61080115D01*
X59920469Y-61097138D01*
X59946740Y-61100215D01*
X59952549Y-61076620D01*
X59952555Y-61075952D01*
X59964856Y-61053426D01*
X60007281Y-61041879D01*
X60089510Y-61038628D01*
X60226471Y-61038628D01*
X60226471Y-62233922D01*
X59952549Y-62233922D01*
X59952549Y-61409779D01*
X59884454Y-61346670D01*
X59863180Y-61328735D01*
X59799811Y-61298091D01*
X59721776Y-61296863D01*
X59615520Y-61323903D01*
X59579701Y-61325615D01*
X59537683Y-61299383D01*
X59481757Y-61237035D01*
X59454628Y-61202547D01*
X59422543Y-61153852D01*
X59417599Y-61122855D01*
X59435563Y-61096707D01*
X59490710Y-61063641D01*
X59576363Y-61037472D01*
X59669292Y-61024496D01*
X59747842Y-61029381D01*
G36*
X59747842Y-61029381D02*
G01*
X59808889Y-61048439D01*
X59884069Y-61080115D01*
X59920469Y-61097138D01*
X59946740Y-61100215D01*
X59952549Y-61076620D01*
X59952555Y-61075952D01*
X59964856Y-61053426D01*
X60007281Y-61041879D01*
X60089510Y-61038628D01*
X60226471Y-61038628D01*
X60226471Y-62233922D01*
X59952549Y-62233922D01*
X59952549Y-61409779D01*
X59884454Y-61346670D01*
X59863180Y-61328735D01*
X59799811Y-61298091D01*
X59721776Y-61296863D01*
X59615520Y-61323903D01*
X59579701Y-61325615D01*
X59537683Y-61299383D01*
X59481757Y-61237035D01*
X59454628Y-61202547D01*
X59422543Y-61153852D01*
X59417599Y-61122855D01*
X59435563Y-61096707D01*
X59490710Y-61063641D01*
X59576363Y-61037472D01*
X59669292Y-61024496D01*
X59747842Y-61029381D01*
G37*
X60724510Y-61426245D02*
X60726611Y-61600624D01*
X60734833Y-61741460D01*
X60751491Y-61843825D01*
X60778891Y-61913458D01*
X60819343Y-61956093D01*
X60875152Y-61977468D01*
X60948628Y-61983318D01*
X61018783Y-61978097D01*
X61075443Y-61957659D01*
X61116626Y-61916254D01*
X61144640Y-61848147D01*
X61161793Y-61747600D01*
X61170392Y-61608879D01*
X61172746Y-61426245D01*
X61172746Y-61038628D01*
X61421765Y-61038628D01*
X61421765Y-61505928D01*
X61421338Y-61630659D01*
X61418018Y-61791955D01*
X61409687Y-61914965D01*
X61394326Y-62006729D01*
X61369919Y-62074291D01*
X61334447Y-62124691D01*
X61285892Y-62164971D01*
X61222235Y-62202174D01*
X61088562Y-62249270D01*
X60949055Y-62252342D01*
X60817524Y-62208971D01*
X60760135Y-62180857D01*
X60731664Y-62176654D01*
X60724510Y-62196520D01*
X60712632Y-62218826D01*
X60670116Y-62230576D01*
X60587549Y-62233922D01*
X60450589Y-62233922D01*
X60450589Y-61038628D01*
X60724510Y-61038628D01*
X60724510Y-61426245D01*
G36*
X60724510Y-61426245D02*
G01*
X60726611Y-61600624D01*
X60734833Y-61741460D01*
X60751491Y-61843825D01*
X60778891Y-61913458D01*
X60819343Y-61956093D01*
X60875152Y-61977468D01*
X60948628Y-61983318D01*
X61018783Y-61978097D01*
X61075443Y-61957659D01*
X61116626Y-61916254D01*
X61144640Y-61848147D01*
X61161793Y-61747600D01*
X61170392Y-61608879D01*
X61172746Y-61426245D01*
X61172746Y-61038628D01*
X61421765Y-61038628D01*
X61421765Y-61505928D01*
X61421338Y-61630659D01*
X61418018Y-61791955D01*
X61409687Y-61914965D01*
X61394326Y-62006729D01*
X61369919Y-62074291D01*
X61334447Y-62124691D01*
X61285892Y-62164971D01*
X61222235Y-62202174D01*
X61088562Y-62249270D01*
X60949055Y-62252342D01*
X60817524Y-62208971D01*
X60760135Y-62180857D01*
X60731664Y-62176654D01*
X60724510Y-62196520D01*
X60712632Y-62218826D01*
X60670116Y-62230576D01*
X60587549Y-62233922D01*
X60450589Y-62233922D01*
X60450589Y-61038628D01*
X60724510Y-61038628D01*
X60724510Y-61426245D01*
G37*
X64507725Y-63529052D02*
X64507979Y-63609570D01*
X64504822Y-63716032D01*
X64498474Y-63790192D01*
X64497386Y-63796989D01*
X64454660Y-63918555D01*
X64376634Y-64021619D01*
X64274274Y-64091444D01*
X64164354Y-64120346D01*
X64029151Y-64118103D01*
X63904776Y-64079351D01*
X63872379Y-64062998D01*
X63830720Y-64045475D01*
X63814867Y-64050927D01*
X63812353Y-64079351D01*
X63811199Y-64093525D01*
X63796292Y-64114488D01*
X63754889Y-64124140D01*
X63675393Y-64126471D01*
X63538432Y-64126471D01*
X63538432Y-63528607D01*
X63812353Y-63528607D01*
X63814316Y-63632181D01*
X63822283Y-63701138D01*
X63839292Y-63748379D01*
X63868383Y-63787968D01*
X63945196Y-63846831D01*
X64035086Y-63866564D01*
X64122254Y-63842162D01*
X64195669Y-63774090D01*
X64215075Y-63724278D01*
X64229410Y-63636070D01*
X64235711Y-63529052D01*
X64233726Y-63419284D01*
X64223199Y-63322827D01*
X64203876Y-63255743D01*
X64197703Y-63244742D01*
X64138193Y-63189453D01*
X64057546Y-63164959D01*
X63970933Y-63170656D01*
X63893522Y-63205940D01*
X63840486Y-63270208D01*
X63838294Y-63275613D01*
X63825143Y-63335921D01*
X63815866Y-63426039D01*
X63812353Y-63528607D01*
X63538432Y-63528607D01*
X63538432Y-62433137D01*
X63812353Y-62433137D01*
X63812353Y-63013601D01*
X63863090Y-62967685D01*
X63911942Y-62939146D01*
X64004402Y-62915290D01*
X64112485Y-62907603D01*
X64218036Y-62917040D01*
X64302900Y-62944557D01*
X64363641Y-62983699D01*
X64426207Y-63050379D01*
X64468315Y-63140053D01*
X64493627Y-63261355D01*
X64505806Y-63422918D01*
X64507596Y-63488225D01*
X64507725Y-63529052D01*
G36*
X64507725Y-63529052D02*
G01*
X64507979Y-63609570D01*
X64504822Y-63716032D01*
X64498474Y-63790192D01*
X64497386Y-63796989D01*
X64454660Y-63918555D01*
X64376634Y-64021619D01*
X64274274Y-64091444D01*
X64164354Y-64120346D01*
X64029151Y-64118103D01*
X63904776Y-64079351D01*
X63872379Y-64062998D01*
X63830720Y-64045475D01*
X63814867Y-64050927D01*
X63812353Y-64079351D01*
X63811199Y-64093525D01*
X63796292Y-64114488D01*
X63754889Y-64124140D01*
X63675393Y-64126471D01*
X63538432Y-64126471D01*
X63538432Y-63528607D01*
X63812353Y-63528607D01*
X63814316Y-63632181D01*
X63822283Y-63701138D01*
X63839292Y-63748379D01*
X63868383Y-63787968D01*
X63945196Y-63846831D01*
X64035086Y-63866564D01*
X64122254Y-63842162D01*
X64195669Y-63774090D01*
X64215075Y-63724278D01*
X64229410Y-63636070D01*
X64235711Y-63529052D01*
X64233726Y-63419284D01*
X64223199Y-63322827D01*
X64203876Y-63255743D01*
X64197703Y-63244742D01*
X64138193Y-63189453D01*
X64057546Y-63164959D01*
X63970933Y-63170656D01*
X63893522Y-63205940D01*
X63840486Y-63270208D01*
X63838294Y-63275613D01*
X63825143Y-63335921D01*
X63815866Y-63426039D01*
X63812353Y-63528607D01*
X63538432Y-63528607D01*
X63538432Y-62433137D01*
X63812353Y-62433137D01*
X63812353Y-63013601D01*
X63863090Y-62967685D01*
X63911942Y-62939146D01*
X64004402Y-62915290D01*
X64112485Y-62907603D01*
X64218036Y-62917040D01*
X64302900Y-62944557D01*
X64363641Y-62983699D01*
X64426207Y-63050379D01*
X64468315Y-63140053D01*
X64493627Y-63261355D01*
X64505806Y-63422918D01*
X64507596Y-63488225D01*
X64507725Y-63529052D01*
G37*
X60110525Y-62922675D02*
X60185760Y-62957886D01*
X60251373Y-63009497D01*
X60251373Y-62957886D01*
X60253008Y-62938290D01*
X60268221Y-62917513D01*
X60309362Y-62908337D01*
X60388334Y-62906275D01*
X60525295Y-62906275D01*
X60525295Y-64126471D01*
X60251373Y-64126471D01*
X60251373Y-63729211D01*
X60251340Y-63706405D01*
X60249003Y-63546089D01*
X60243268Y-63415500D01*
X60234544Y-63321314D01*
X60223241Y-63270208D01*
X60212862Y-63250915D01*
X60148968Y-63190406D01*
X60061937Y-63163622D01*
X59966904Y-63176117D01*
X59943594Y-63184586D01*
X59893937Y-63199555D01*
X59859999Y-63194907D01*
X59825850Y-63164479D01*
X59775559Y-63102111D01*
X59693992Y-62999123D01*
X59751323Y-62952699D01*
X59805823Y-62924755D01*
X59901554Y-62905883D01*
X60009456Y-62905265D01*
X60110525Y-62922675D01*
G36*
X60110525Y-62922675D02*
G01*
X60185760Y-62957886D01*
X60251373Y-63009497D01*
X60251373Y-62957886D01*
X60253008Y-62938290D01*
X60268221Y-62917513D01*
X60309362Y-62908337D01*
X60388334Y-62906275D01*
X60525295Y-62906275D01*
X60525295Y-64126471D01*
X60251373Y-64126471D01*
X60251373Y-63729211D01*
X60251340Y-63706405D01*
X60249003Y-63546089D01*
X60243268Y-63415500D01*
X60234544Y-63321314D01*
X60223241Y-63270208D01*
X60212862Y-63250915D01*
X60148968Y-63190406D01*
X60061937Y-63163622D01*
X59966904Y-63176117D01*
X59943594Y-63184586D01*
X59893937Y-63199555D01*
X59859999Y-63194907D01*
X59825850Y-63164479D01*
X59775559Y-63102111D01*
X59693992Y-62999123D01*
X59751323Y-62952699D01*
X59805823Y-62924755D01*
X59901554Y-62905883D01*
X60009456Y-62905265D01*
X60110525Y-62922675D01*
G37*
X66519503Y-61481611D02*
X66520573Y-61486685D01*
X66529286Y-61661108D01*
X66527109Y-61737224D01*
X66502559Y-61903570D01*
X66448460Y-62034728D01*
X66361982Y-62136101D01*
X66240295Y-62213096D01*
X66122249Y-62249039D01*
X65974161Y-62255915D01*
X65824748Y-62229468D01*
X65691472Y-62171037D01*
X65642083Y-62138532D01*
X65587668Y-62096868D01*
X65562840Y-62069452D01*
X65564247Y-62058140D01*
X65592039Y-62019597D01*
X65644272Y-61972901D01*
X65734791Y-61903858D01*
X65840858Y-61956831D01*
X65869540Y-61969943D01*
X65953971Y-61998441D01*
X66024737Y-62009804D01*
X66076919Y-62000441D01*
X66158806Y-61955351D01*
X66227637Y-61885355D01*
X66267007Y-61804363D01*
X66283047Y-61735882D01*
X65530589Y-61735882D01*
X65530728Y-61605147D01*
X65531867Y-61563713D01*
X65540182Y-61474805D01*
X65804510Y-61474805D01*
X65804995Y-61479899D01*
X65818687Y-61495760D01*
X65857378Y-61505505D01*
X65929317Y-61510413D01*
X66042757Y-61511765D01*
X66080042Y-61511749D01*
X66176873Y-61510854D01*
X66235083Y-61506988D01*
X66263306Y-61497968D01*
X66270173Y-61481611D01*
X66264317Y-61455735D01*
X66263423Y-61452802D01*
X66212973Y-61362759D01*
X66133442Y-61300766D01*
X66038603Y-61277686D01*
X66003547Y-61279532D01*
X65938481Y-61301611D01*
X65876061Y-61357766D01*
X65859247Y-61377621D01*
X65820137Y-61434326D01*
X65804510Y-61474805D01*
X65540182Y-61474805D01*
X65541251Y-61463376D01*
X65556988Y-61380349D01*
X65574236Y-61333868D01*
X65634879Y-61232769D01*
X65716094Y-61140951D01*
X65801981Y-61078037D01*
X65826796Y-61066354D01*
X65971290Y-61027600D01*
X66118842Y-61031686D01*
X66257567Y-61076882D01*
X66375579Y-61161461D01*
X66439410Y-61239461D01*
X66491601Y-61349343D01*
X66519503Y-61481611D01*
G36*
X66519503Y-61481611D02*
G01*
X66520573Y-61486685D01*
X66529286Y-61661108D01*
X66527109Y-61737224D01*
X66502559Y-61903570D01*
X66448460Y-62034728D01*
X66361982Y-62136101D01*
X66240295Y-62213096D01*
X66122249Y-62249039D01*
X65974161Y-62255915D01*
X65824748Y-62229468D01*
X65691472Y-62171037D01*
X65642083Y-62138532D01*
X65587668Y-62096868D01*
X65562840Y-62069452D01*
X65564247Y-62058140D01*
X65592039Y-62019597D01*
X65644272Y-61972901D01*
X65734791Y-61903858D01*
X65840858Y-61956831D01*
X65869540Y-61969943D01*
X65953971Y-61998441D01*
X66024737Y-62009804D01*
X66076919Y-62000441D01*
X66158806Y-61955351D01*
X66227637Y-61885355D01*
X66267007Y-61804363D01*
X66283047Y-61735882D01*
X65530589Y-61735882D01*
X65530728Y-61605147D01*
X65531867Y-61563713D01*
X65540182Y-61474805D01*
X65804510Y-61474805D01*
X65804995Y-61479899D01*
X65818687Y-61495760D01*
X65857378Y-61505505D01*
X65929317Y-61510413D01*
X66042757Y-61511765D01*
X66080042Y-61511749D01*
X66176873Y-61510854D01*
X66235083Y-61506988D01*
X66263306Y-61497968D01*
X66270173Y-61481611D01*
X66264317Y-61455735D01*
X66263423Y-61452802D01*
X66212973Y-61362759D01*
X66133442Y-61300766D01*
X66038603Y-61277686D01*
X66003547Y-61279532D01*
X65938481Y-61301611D01*
X65876061Y-61357766D01*
X65859247Y-61377621D01*
X65820137Y-61434326D01*
X65804510Y-61474805D01*
X65540182Y-61474805D01*
X65541251Y-61463376D01*
X65556988Y-61380349D01*
X65574236Y-61333868D01*
X65634879Y-61232769D01*
X65716094Y-61140951D01*
X65801981Y-61078037D01*
X65826796Y-61066354D01*
X65971290Y-61027600D01*
X66118842Y-61031686D01*
X66257567Y-61076882D01*
X66375579Y-61161461D01*
X66439410Y-61239461D01*
X66491601Y-61349343D01*
X66519503Y-61481611D01*
G37*
X62610067Y-61623145D02*
X62610953Y-61722173D01*
X62604005Y-61800982D01*
X62573299Y-61951438D01*
X62518376Y-62066246D01*
X62434780Y-62152966D01*
X62318058Y-62219155D01*
X62272739Y-62234908D01*
X62155373Y-62254562D01*
X62031866Y-62254027D01*
X61927651Y-62232439D01*
X61925603Y-62231655D01*
X61841618Y-62182251D01*
X61756770Y-62105770D01*
X61686366Y-62018311D01*
X61645714Y-61935969D01*
X61633663Y-61875779D01*
X61623346Y-61763084D01*
X61621617Y-61662632D01*
X61872502Y-61662632D01*
X61887500Y-61783119D01*
X61922735Y-61882123D01*
X61976117Y-61946815D01*
X61996350Y-61957922D01*
X62073506Y-61978111D01*
X62162749Y-61982265D01*
X62237828Y-61968235D01*
X62267132Y-61948116D01*
X62308264Y-61877760D01*
X62334146Y-61767645D01*
X62343138Y-61623145D01*
X62342994Y-61581549D01*
X62339870Y-61497264D01*
X62329482Y-61442281D01*
X62307688Y-61401655D01*
X62270347Y-61360437D01*
X62199293Y-61310481D01*
X62106791Y-61290057D01*
X62017418Y-61309509D01*
X61943210Y-61365771D01*
X61896201Y-61455775D01*
X61879828Y-61533494D01*
X61872502Y-61662632D01*
X61621617Y-61662632D01*
X61621137Y-61634738D01*
X61626672Y-61506993D01*
X61639588Y-61396101D01*
X61659522Y-61318315D01*
X61705953Y-61230245D01*
X61804498Y-61121959D01*
X61930453Y-61053364D01*
X62080074Y-61026213D01*
X62249615Y-61042259D01*
X62277825Y-61049094D01*
X62409201Y-61108040D01*
X62508198Y-61204814D01*
X62574820Y-61339423D01*
X62609070Y-61511874D01*
X62610067Y-61623145D01*
G36*
X62610067Y-61623145D02*
G01*
X62610953Y-61722173D01*
X62604005Y-61800982D01*
X62573299Y-61951438D01*
X62518376Y-62066246D01*
X62434780Y-62152966D01*
X62318058Y-62219155D01*
X62272739Y-62234908D01*
X62155373Y-62254562D01*
X62031866Y-62254027D01*
X61927651Y-62232439D01*
X61925603Y-62231655D01*
X61841618Y-62182251D01*
X61756770Y-62105770D01*
X61686366Y-62018311D01*
X61645714Y-61935969D01*
X61633663Y-61875779D01*
X61623346Y-61763084D01*
X61621617Y-61662632D01*
X61872502Y-61662632D01*
X61887500Y-61783119D01*
X61922735Y-61882123D01*
X61976117Y-61946815D01*
X61996350Y-61957922D01*
X62073506Y-61978111D01*
X62162749Y-61982265D01*
X62237828Y-61968235D01*
X62267132Y-61948116D01*
X62308264Y-61877760D01*
X62334146Y-61767645D01*
X62343138Y-61623145D01*
X62342994Y-61581549D01*
X62339870Y-61497264D01*
X62329482Y-61442281D01*
X62307688Y-61401655D01*
X62270347Y-61360437D01*
X62199293Y-61310481D01*
X62106791Y-61290057D01*
X62017418Y-61309509D01*
X61943210Y-61365771D01*
X61896201Y-61455775D01*
X61879828Y-61533494D01*
X61872502Y-61662632D01*
X61621617Y-61662632D01*
X61621137Y-61634738D01*
X61626672Y-61506993D01*
X61639588Y-61396101D01*
X61659522Y-61318315D01*
X61705953Y-61230245D01*
X61804498Y-61121959D01*
X61930453Y-61053364D01*
X62080074Y-61026213D01*
X62249615Y-61042259D01*
X62277825Y-61049094D01*
X62409201Y-61108040D01*
X62508198Y-61204814D01*
X62574820Y-61339423D01*
X62609070Y-61511874D01*
X62610067Y-61623145D01*
G37*
X64887906Y-61036271D02*
X65001422Y-61071937D01*
X65051473Y-61096177D01*
X65076646Y-61098681D01*
X65082353Y-61076620D01*
X65082359Y-61075952D01*
X65094660Y-61053426D01*
X65137084Y-61041879D01*
X65219314Y-61038628D01*
X65356275Y-61038628D01*
X65356275Y-62233922D01*
X65082353Y-62233922D01*
X65082353Y-61821907D01*
X65082166Y-61682779D01*
X65080885Y-61568493D01*
X65077458Y-61488519D01*
X65070832Y-61434708D01*
X65059954Y-61398912D01*
X65043771Y-61372982D01*
X65021230Y-61348770D01*
X64990527Y-61323017D01*
X64902239Y-61288416D01*
X64809565Y-61298571D01*
X64724671Y-61353298D01*
X64700406Y-61378768D01*
X64682987Y-61404545D01*
X64671304Y-61438848D01*
X64664212Y-61489933D01*
X64660564Y-61566056D01*
X64659215Y-61675471D01*
X64659020Y-61826435D01*
X64659020Y-62233922D01*
X64385098Y-62233922D01*
X64385645Y-61791912D01*
X64385682Y-61772223D01*
X64388058Y-61584209D01*
X64395353Y-61438159D01*
X64409445Y-61326971D01*
X64432207Y-61243544D01*
X64465514Y-61180775D01*
X64511241Y-61131561D01*
X64571264Y-61088802D01*
X64633240Y-61059199D01*
X64758055Y-61032305D01*
X64887906Y-61036271D01*
G36*
X64887906Y-61036271D02*
G01*
X65001422Y-61071937D01*
X65051473Y-61096177D01*
X65076646Y-61098681D01*
X65082353Y-61076620D01*
X65082359Y-61075952D01*
X65094660Y-61053426D01*
X65137084Y-61041879D01*
X65219314Y-61038628D01*
X65356275Y-61038628D01*
X65356275Y-62233922D01*
X65082353Y-62233922D01*
X65082353Y-61821907D01*
X65082166Y-61682779D01*
X65080885Y-61568493D01*
X65077458Y-61488519D01*
X65070832Y-61434708D01*
X65059954Y-61398912D01*
X65043771Y-61372982D01*
X65021230Y-61348770D01*
X64990527Y-61323017D01*
X64902239Y-61288416D01*
X64809565Y-61298571D01*
X64724671Y-61353298D01*
X64700406Y-61378768D01*
X64682987Y-61404545D01*
X64671304Y-61438848D01*
X64664212Y-61489933D01*
X64660564Y-61566056D01*
X64659215Y-61675471D01*
X64659020Y-61826435D01*
X64659020Y-62233922D01*
X64385098Y-62233922D01*
X64385645Y-61791912D01*
X64385682Y-61772223D01*
X64388058Y-61584209D01*
X64395353Y-61438159D01*
X64409445Y-61326971D01*
X64432207Y-61243544D01*
X64465514Y-61180775D01*
X64511241Y-61131561D01*
X64571264Y-61088802D01*
X64633240Y-61059199D01*
X64758055Y-61032305D01*
X64887906Y-61036271D01*
G37*
X61730465Y-63758122D02*
X61732760Y-63798738D01*
X61702719Y-63911789D01*
X61637432Y-64008505D01*
X61538398Y-64078077D01*
X61528679Y-64082305D01*
X61420320Y-64112767D01*
X61298223Y-64124642D01*
X61182138Y-64117382D01*
X61091814Y-64090441D01*
X61055734Y-64072865D01*
X61029256Y-64068674D01*
X61023334Y-64090594D01*
X61012116Y-64110866D01*
X60968713Y-64122938D01*
X60884469Y-64126471D01*
X60745604Y-64126471D01*
X60752995Y-63690686D01*
X61023334Y-63690686D01*
X61032713Y-63755829D01*
X61073138Y-63827647D01*
X61088059Y-63840848D01*
X61149218Y-63868620D01*
X61241226Y-63875766D01*
X61296435Y-63872974D01*
X61399741Y-63851952D01*
X61463771Y-63812782D01*
X61485367Y-63758122D01*
X61461369Y-63690628D01*
X61447367Y-63672964D01*
X61384827Y-63633345D01*
X61285847Y-63610722D01*
X61144731Y-63603530D01*
X61023334Y-63603530D01*
X61023334Y-63690686D01*
X60752995Y-63690686D01*
X60753734Y-63647108D01*
X60755943Y-63536258D01*
X60761761Y-63370305D01*
X60771567Y-63243409D01*
X60787299Y-63148654D01*
X60810894Y-63079120D01*
X60844291Y-63027890D01*
X60889427Y-62988046D01*
X60948239Y-62952669D01*
X60978580Y-62939163D01*
X61083541Y-62913669D01*
X61210134Y-62903129D01*
X61341017Y-62907350D01*
X61458845Y-62926140D01*
X61546275Y-62959305D01*
X61576687Y-62978562D01*
X61646705Y-63035636D01*
X61670403Y-63083427D01*
X61664648Y-63092662D01*
X61628782Y-63124919D01*
X61570881Y-63167950D01*
X61541279Y-63188091D01*
X61490868Y-63216629D01*
X61458110Y-63219354D01*
X61427695Y-63199657D01*
X61351892Y-63159766D01*
X61249895Y-63143361D01*
X61145661Y-63155920D01*
X61143689Y-63156489D01*
X61070171Y-63188431D01*
X61033781Y-63238428D01*
X61023715Y-63321116D01*
X61023334Y-63399780D01*
X61283230Y-63408273D01*
X61324636Y-63409670D01*
X61429027Y-63414528D01*
X61499010Y-63422161D01*
X61546313Y-63435425D01*
X61582668Y-63457181D01*
X61619804Y-63490285D01*
X61681120Y-63566855D01*
X61726059Y-63680157D01*
X61730465Y-63758122D01*
G36*
X61730465Y-63758122D02*
G01*
X61732760Y-63798738D01*
X61702719Y-63911789D01*
X61637432Y-64008505D01*
X61538398Y-64078077D01*
X61528679Y-64082305D01*
X61420320Y-64112767D01*
X61298223Y-64124642D01*
X61182138Y-64117382D01*
X61091814Y-64090441D01*
X61055734Y-64072865D01*
X61029256Y-64068674D01*
X61023334Y-64090594D01*
X61012116Y-64110866D01*
X60968713Y-64122938D01*
X60884469Y-64126471D01*
X60745604Y-64126471D01*
X60752995Y-63690686D01*
X61023334Y-63690686D01*
X61032713Y-63755829D01*
X61073138Y-63827647D01*
X61088059Y-63840848D01*
X61149218Y-63868620D01*
X61241226Y-63875766D01*
X61296435Y-63872974D01*
X61399741Y-63851952D01*
X61463771Y-63812782D01*
X61485367Y-63758122D01*
X61461369Y-63690628D01*
X61447367Y-63672964D01*
X61384827Y-63633345D01*
X61285847Y-63610722D01*
X61144731Y-63603530D01*
X61023334Y-63603530D01*
X61023334Y-63690686D01*
X60752995Y-63690686D01*
X60753734Y-63647108D01*
X60755943Y-63536258D01*
X60761761Y-63370305D01*
X60771567Y-63243409D01*
X60787299Y-63148654D01*
X60810894Y-63079120D01*
X60844291Y-63027890D01*
X60889427Y-62988046D01*
X60948239Y-62952669D01*
X60978580Y-62939163D01*
X61083541Y-62913669D01*
X61210134Y-62903129D01*
X61341017Y-62907350D01*
X61458845Y-62926140D01*
X61546275Y-62959305D01*
X61576687Y-62978562D01*
X61646705Y-63035636D01*
X61670403Y-63083427D01*
X61664648Y-63092662D01*
X61628782Y-63124919D01*
X61570881Y-63167950D01*
X61541279Y-63188091D01*
X61490868Y-63216629D01*
X61458110Y-63219354D01*
X61427695Y-63199657D01*
X61351892Y-63159766D01*
X61249895Y-63143361D01*
X61145661Y-63155920D01*
X61143689Y-63156489D01*
X61070171Y-63188431D01*
X61033781Y-63238428D01*
X61023715Y-63321116D01*
X61023334Y-63399780D01*
X61283230Y-63408273D01*
X61324636Y-63409670D01*
X61429027Y-63414528D01*
X61499010Y-63422161D01*
X61546313Y-63435425D01*
X61582668Y-63457181D01*
X61619804Y-63490285D01*
X61681120Y-63566855D01*
X61726059Y-63680157D01*
X61730465Y-63758122D01*
G37*
X62809270Y-63297297D02*
X62842936Y-63397741D01*
X62882761Y-63508935D01*
X62916017Y-63593172D01*
X62939954Y-63643587D01*
X62951824Y-63653318D01*
X62954688Y-63644856D01*
X62970191Y-63592953D01*
X62994883Y-63506265D01*
X63026023Y-63394497D01*
X63060870Y-63267353D01*
X63155674Y-62918726D01*
X63300426Y-62911163D01*
X63312645Y-62910557D01*
X63390703Y-62909755D01*
X63428212Y-62917768D01*
X63432989Y-62936065D01*
X63426955Y-62953934D01*
X63407103Y-63015095D01*
X63376023Y-63111960D01*
X63335930Y-63237602D01*
X63289037Y-63385091D01*
X63237561Y-63547500D01*
X63054321Y-64126471D01*
X62825105Y-64126471D01*
X62717101Y-63759167D01*
X62697158Y-63691720D01*
X62660300Y-63569101D01*
X62628805Y-63466930D01*
X62605510Y-63394336D01*
X62593250Y-63360446D01*
X62589757Y-63357918D01*
X62572758Y-63379778D01*
X62548489Y-63437586D01*
X62520982Y-63522309D01*
X62519528Y-63527285D01*
X62482700Y-63652322D01*
X62440562Y-63793896D01*
X62401950Y-63922316D01*
X62339339Y-64129044D01*
X62108411Y-64114020D01*
X62001470Y-63777843D01*
X61954519Y-63630128D01*
X61901926Y-63464458D01*
X61851565Y-63305638D01*
X61809878Y-63173971D01*
X61725227Y-62906275D01*
X62008429Y-62906275D01*
X62077072Y-63161520D01*
X62095321Y-63228963D01*
X62129833Y-63354697D01*
X62161793Y-63469083D01*
X62186089Y-63553726D01*
X62226463Y-63690686D01*
X62355224Y-63304706D01*
X62483986Y-62918726D01*
X62582472Y-62911332D01*
X62680959Y-62903939D01*
X62809270Y-63297297D01*
G36*
X62809270Y-63297297D02*
G01*
X62842936Y-63397741D01*
X62882761Y-63508935D01*
X62916017Y-63593172D01*
X62939954Y-63643587D01*
X62951824Y-63653318D01*
X62954688Y-63644856D01*
X62970191Y-63592953D01*
X62994883Y-63506265D01*
X63026023Y-63394497D01*
X63060870Y-63267353D01*
X63155674Y-62918726D01*
X63300426Y-62911163D01*
X63312645Y-62910557D01*
X63390703Y-62909755D01*
X63428212Y-62917768D01*
X63432989Y-62936065D01*
X63426955Y-62953934D01*
X63407103Y-63015095D01*
X63376023Y-63111960D01*
X63335930Y-63237602D01*
X63289037Y-63385091D01*
X63237561Y-63547500D01*
X63054321Y-64126471D01*
X62825105Y-64126471D01*
X62717101Y-63759167D01*
X62697158Y-63691720D01*
X62660300Y-63569101D01*
X62628805Y-63466930D01*
X62605510Y-63394336D01*
X62593250Y-63360446D01*
X62589757Y-63357918D01*
X62572758Y-63379778D01*
X62548489Y-63437586D01*
X62520982Y-63522309D01*
X62519528Y-63527285D01*
X62482700Y-63652322D01*
X62440562Y-63793896D01*
X62401950Y-63922316D01*
X62339339Y-64129044D01*
X62108411Y-64114020D01*
X62001470Y-63777843D01*
X61954519Y-63630128D01*
X61901926Y-63464458D01*
X61851565Y-63305638D01*
X61809878Y-63173971D01*
X61725227Y-62906275D01*
X62008429Y-62906275D01*
X62077072Y-63161520D01*
X62095321Y-63228963D01*
X62129833Y-63354697D01*
X62161793Y-63469083D01*
X62186089Y-63553726D01*
X62226463Y-63690686D01*
X62355224Y-63304706D01*
X62483986Y-62918726D01*
X62582472Y-62911332D01*
X62680959Y-62903939D01*
X62809270Y-63297297D01*
G37*
X67647255Y-61656582D02*
X67647255Y-64129073D01*
X67516520Y-64121547D01*
X67385785Y-64114020D01*
X67379569Y-63715588D01*
X67377730Y-63618704D01*
X67372510Y-63473146D01*
X67363550Y-63366334D01*
X67349203Y-63291087D01*
X67327821Y-63240227D01*
X67297759Y-63206574D01*
X67257367Y-63182947D01*
X67181578Y-63158818D01*
X67106207Y-63168194D01*
X67026617Y-63219763D01*
X66950000Y-63284231D01*
X66950000Y-64126471D01*
X66676079Y-64126471D01*
X66676079Y-63669701D01*
X66676342Y-63526531D01*
X66677799Y-63399309D01*
X66681301Y-63306184D01*
X66687697Y-63238713D01*
X66697835Y-63188454D01*
X66712563Y-63146966D01*
X66732729Y-63105805D01*
X66737510Y-63097066D01*
X66801101Y-63011954D01*
X66875527Y-62952476D01*
X66965255Y-62921245D01*
X67084072Y-62907342D01*
X67203059Y-62914872D01*
X67299865Y-62944267D01*
X67373334Y-62982259D01*
X67373334Y-62160015D01*
X67272667Y-62212486D01*
X67230616Y-62231549D01*
X67097886Y-62258506D01*
X66965979Y-62239874D01*
X66843705Y-62177929D01*
X66739872Y-62074943D01*
X66723606Y-62050738D01*
X66707973Y-62015256D01*
X66697776Y-61967015D01*
X66691888Y-61896757D01*
X66689182Y-61795221D01*
X66688696Y-61689428D01*
X66951759Y-61689428D01*
X66951981Y-61777779D01*
X66958735Y-61836700D01*
X66973916Y-61878752D01*
X66999417Y-61916499D01*
X67031811Y-61951594D01*
X67083614Y-61978154D01*
X67161667Y-61984902D01*
X67230618Y-61979029D01*
X67298865Y-61949641D01*
X67342818Y-61890107D01*
X67366350Y-61794423D01*
X67373334Y-61656582D01*
X67371528Y-61583254D01*
X67353501Y-61444833D01*
X67316308Y-61351233D01*
X67260159Y-61303116D01*
X67203449Y-61289579D01*
X67104686Y-61295925D01*
X67021240Y-61335223D01*
X67001268Y-61353244D01*
X66980105Y-61384422D01*
X66967021Y-61430833D01*
X66959251Y-61504000D01*
X66954032Y-61615448D01*
X66951759Y-61689428D01*
X66688696Y-61689428D01*
X66688530Y-61653149D01*
X66688753Y-61588324D01*
X66692570Y-61437538D01*
X66703203Y-61324896D01*
X66723335Y-61241885D01*
X66755653Y-61179991D01*
X66802842Y-61130700D01*
X66867588Y-61085499D01*
X66920091Y-61059560D01*
X67044571Y-61030953D01*
X67175781Y-61034851D01*
X67292402Y-61071935D01*
X67342453Y-61096176D01*
X67367626Y-61098681D01*
X67373334Y-61076620D01*
X67373339Y-61075952D01*
X67385640Y-61053426D01*
X67428065Y-61041879D01*
X67510295Y-61038628D01*
X67647255Y-61038628D01*
X67647255Y-61656582D01*
G36*
X67647255Y-61656582D02*
G01*
X67647255Y-64129073D01*
X67516520Y-64121547D01*
X67385785Y-64114020D01*
X67379569Y-63715588D01*
X67377730Y-63618704D01*
X67372510Y-63473146D01*
X67363550Y-63366334D01*
X67349203Y-63291087D01*
X67327821Y-63240227D01*
X67297759Y-63206574D01*
X67257367Y-63182947D01*
X67181578Y-63158818D01*
X67106207Y-63168194D01*
X67026617Y-63219763D01*
X66950000Y-63284231D01*
X66950000Y-64126471D01*
X66676079Y-64126471D01*
X66676079Y-63669701D01*
X66676342Y-63526531D01*
X66677799Y-63399309D01*
X66681301Y-63306184D01*
X66687697Y-63238713D01*
X66697835Y-63188454D01*
X66712563Y-63146966D01*
X66732729Y-63105805D01*
X66737510Y-63097066D01*
X66801101Y-63011954D01*
X66875527Y-62952476D01*
X66965255Y-62921245D01*
X67084072Y-62907342D01*
X67203059Y-62914872D01*
X67299865Y-62944267D01*
X67373334Y-62982259D01*
X67373334Y-62160015D01*
X67272667Y-62212486D01*
X67230616Y-62231549D01*
X67097886Y-62258506D01*
X66965979Y-62239874D01*
X66843705Y-62177929D01*
X66739872Y-62074943D01*
X66723606Y-62050738D01*
X66707973Y-62015256D01*
X66697776Y-61967015D01*
X66691888Y-61896757D01*
X66689182Y-61795221D01*
X66688696Y-61689428D01*
X66951759Y-61689428D01*
X66951981Y-61777779D01*
X66958735Y-61836700D01*
X66973916Y-61878752D01*
X66999417Y-61916499D01*
X67031811Y-61951594D01*
X67083614Y-61978154D01*
X67161667Y-61984902D01*
X67230618Y-61979029D01*
X67298865Y-61949641D01*
X67342818Y-61890107D01*
X67366350Y-61794423D01*
X67373334Y-61656582D01*
X67371528Y-61583254D01*
X67353501Y-61444833D01*
X67316308Y-61351233D01*
X67260159Y-61303116D01*
X67203449Y-61289579D01*
X67104686Y-61295925D01*
X67021240Y-61335223D01*
X67001268Y-61353244D01*
X66980105Y-61384422D01*
X66967021Y-61430833D01*
X66959251Y-61504000D01*
X66954032Y-61615448D01*
X66951759Y-61689428D01*
X66688696Y-61689428D01*
X66688530Y-61653149D01*
X66688753Y-61588324D01*
X66692570Y-61437538D01*
X66703203Y-61324896D01*
X66723335Y-61241885D01*
X66755653Y-61179991D01*
X66802842Y-61130700D01*
X66867588Y-61085499D01*
X66920091Y-61059560D01*
X67044571Y-61030953D01*
X67175781Y-61034851D01*
X67292402Y-61071935D01*
X67342453Y-61096176D01*
X67367626Y-61098681D01*
X67373334Y-61076620D01*
X67373339Y-61075952D01*
X67385640Y-61053426D01*
X67428065Y-61041879D01*
X67510295Y-61038628D01*
X67647255Y-61038628D01*
X67647255Y-61656582D01*
G37*
X68815156Y-61633944D02*
X68813818Y-61704666D01*
X68810603Y-61782653D01*
X68803305Y-61877754D01*
X68790873Y-61945160D01*
X68770343Y-61998570D01*
X68738751Y-62051685D01*
X68737406Y-62053699D01*
X68659616Y-62139755D01*
X68564438Y-62205391D01*
X68453760Y-62244339D01*
X68308163Y-62256985D01*
X68165463Y-62232119D01*
X68037909Y-62172198D01*
X67937753Y-62079681D01*
X67908999Y-62035967D01*
X67855301Y-61900073D01*
X67828670Y-61732408D01*
X67829125Y-61689997D01*
X68096763Y-61689997D01*
X68097267Y-61769314D01*
X68105677Y-61822267D01*
X68124838Y-61862956D01*
X68157598Y-61905479D01*
X68203058Y-61947676D01*
X68293980Y-61985333D01*
X68391608Y-61978338D01*
X68484914Y-61926002D01*
X68511234Y-61901006D01*
X68539336Y-61858214D01*
X68554920Y-61798068D01*
X68563753Y-61704348D01*
X68566186Y-61633944D01*
X68552856Y-61490168D01*
X68511947Y-61387231D01*
X68443281Y-61324567D01*
X68362789Y-61294560D01*
X68266794Y-61297086D01*
X68177811Y-61347746D01*
X68156538Y-61367031D01*
X68129693Y-61400774D01*
X68113766Y-61444920D01*
X68104929Y-61512601D01*
X68099355Y-61616950D01*
X68096763Y-61689997D01*
X67829125Y-61689997D01*
X67830724Y-61541126D01*
X67833345Y-61513996D01*
X67869918Y-61340229D01*
X67937581Y-61205334D01*
X68036478Y-61109163D01*
X68166753Y-61051568D01*
X68328550Y-61032402D01*
X68389679Y-61034201D01*
X68515039Y-61056211D01*
X68617546Y-61108746D01*
X68713115Y-61198686D01*
X68728400Y-61216737D01*
X68769624Y-61277530D01*
X68796717Y-61346367D01*
X68811740Y-61433600D01*
X68816754Y-61549582D01*
X68815156Y-61633944D01*
G36*
X68815156Y-61633944D02*
G01*
X68813818Y-61704666D01*
X68810603Y-61782653D01*
X68803305Y-61877754D01*
X68790873Y-61945160D01*
X68770343Y-61998570D01*
X68738751Y-62051685D01*
X68737406Y-62053699D01*
X68659616Y-62139755D01*
X68564438Y-62205391D01*
X68453760Y-62244339D01*
X68308163Y-62256985D01*
X68165463Y-62232119D01*
X68037909Y-62172198D01*
X67937753Y-62079681D01*
X67908999Y-62035967D01*
X67855301Y-61900073D01*
X67828670Y-61732408D01*
X67829125Y-61689997D01*
X68096763Y-61689997D01*
X68097267Y-61769314D01*
X68105677Y-61822267D01*
X68124838Y-61862956D01*
X68157598Y-61905479D01*
X68203058Y-61947676D01*
X68293980Y-61985333D01*
X68391608Y-61978338D01*
X68484914Y-61926002D01*
X68511234Y-61901006D01*
X68539336Y-61858214D01*
X68554920Y-61798068D01*
X68563753Y-61704348D01*
X68566186Y-61633944D01*
X68552856Y-61490168D01*
X68511947Y-61387231D01*
X68443281Y-61324567D01*
X68362789Y-61294560D01*
X68266794Y-61297086D01*
X68177811Y-61347746D01*
X68156538Y-61367031D01*
X68129693Y-61400774D01*
X68113766Y-61444920D01*
X68104929Y-61512601D01*
X68099355Y-61616950D01*
X68096763Y-61689997D01*
X67829125Y-61689997D01*
X67830724Y-61541126D01*
X67833345Y-61513996D01*
X67869918Y-61340229D01*
X67937581Y-61205334D01*
X68036478Y-61109163D01*
X68166753Y-61051568D01*
X68328550Y-61032402D01*
X68389679Y-61034201D01*
X68515039Y-61056211D01*
X68617546Y-61108746D01*
X68713115Y-61198686D01*
X68728400Y-61216737D01*
X68769624Y-61277530D01*
X68796717Y-61346367D01*
X68811740Y-61433600D01*
X68816754Y-61549582D01*
X68815156Y-61633944D01*
G37*
X59047341Y-61044329D02*
X59183218Y-61097267D01*
X59298135Y-61184655D01*
X59383013Y-61304680D01*
X59388745Y-61316918D01*
X59425135Y-61436281D01*
X59443316Y-61578864D01*
X59443173Y-61727318D01*
X59424590Y-61864297D01*
X59387452Y-61972451D01*
X59341599Y-62047831D01*
X59240669Y-62154620D01*
X59114469Y-62222500D01*
X59006497Y-62249950D01*
X58842088Y-62252947D01*
X58684764Y-62211549D01*
X58545251Y-62127546D01*
X58454954Y-62053116D01*
X58536284Y-61969205D01*
X58587665Y-61919496D01*
X58634141Y-61891820D01*
X58677235Y-61897914D01*
X58732353Y-61935098D01*
X58754331Y-61949655D01*
X58847178Y-61979449D01*
X58953895Y-61979431D01*
X59053808Y-61948723D01*
X59091429Y-61924064D01*
X59146613Y-61851245D01*
X59174278Y-61744290D01*
X59176058Y-61598517D01*
X59176053Y-61598435D01*
X59155470Y-61468014D01*
X59110128Y-61377587D01*
X59035518Y-61321652D01*
X58927128Y-61294704D01*
X58858871Y-61291079D01*
X58799231Y-61305921D01*
X58738065Y-61348918D01*
X58658912Y-61415520D01*
X58558672Y-61334965D01*
X58522050Y-61304105D01*
X58476307Y-61259889D01*
X58458432Y-61233832D01*
X58464762Y-61222089D01*
X58501221Y-61186036D01*
X58559301Y-61140185D01*
X58604744Y-61110348D01*
X58749024Y-61049056D01*
X58899583Y-61027654D01*
X59047341Y-61044329D01*
G36*
X59047341Y-61044329D02*
G01*
X59183218Y-61097267D01*
X59298135Y-61184655D01*
X59383013Y-61304680D01*
X59388745Y-61316918D01*
X59425135Y-61436281D01*
X59443316Y-61578864D01*
X59443173Y-61727318D01*
X59424590Y-61864297D01*
X59387452Y-61972451D01*
X59341599Y-62047831D01*
X59240669Y-62154620D01*
X59114469Y-62222500D01*
X59006497Y-62249950D01*
X58842088Y-62252947D01*
X58684764Y-62211549D01*
X58545251Y-62127546D01*
X58454954Y-62053116D01*
X58536284Y-61969205D01*
X58587665Y-61919496D01*
X58634141Y-61891820D01*
X58677235Y-61897914D01*
X58732353Y-61935098D01*
X58754331Y-61949655D01*
X58847178Y-61979449D01*
X58953895Y-61979431D01*
X59053808Y-61948723D01*
X59091429Y-61924064D01*
X59146613Y-61851245D01*
X59174278Y-61744290D01*
X59176058Y-61598517D01*
X59176053Y-61598435D01*
X59155470Y-61468014D01*
X59110128Y-61377587D01*
X59035518Y-61321652D01*
X58927128Y-61294704D01*
X58858871Y-61291079D01*
X58799231Y-61305921D01*
X58738065Y-61348918D01*
X58658912Y-61415520D01*
X58558672Y-61334965D01*
X58522050Y-61304105D01*
X58476307Y-61259889D01*
X58458432Y-61233832D01*
X58464762Y-61222089D01*
X58501221Y-61186036D01*
X58559301Y-61140185D01*
X58604744Y-61110348D01*
X58749024Y-61049056D01*
X58899583Y-61027654D01*
X59047341Y-61044329D01*
G37*
X59693286Y-63381033D02*
X59702740Y-63516373D01*
X59699502Y-63609330D01*
X59670010Y-63787105D01*
X59609329Y-63926892D01*
X59516922Y-64029689D01*
X59392255Y-64096496D01*
X59351976Y-64108300D01*
X59208153Y-64124786D01*
X59056289Y-64110873D01*
X58919118Y-64067935D01*
X58870794Y-64043565D01*
X58801507Y-64001819D01*
X58759517Y-63967468D01*
X58753317Y-63959620D01*
X58741719Y-63930917D01*
X58758430Y-63899714D01*
X58809321Y-63852459D01*
X58833880Y-63831887D01*
X58882260Y-63794242D01*
X58907627Y-63778855D01*
X58914894Y-63780440D01*
X58956544Y-63797574D01*
X59018726Y-63827647D01*
X59039000Y-63837540D01*
X59158600Y-63874275D01*
X59262506Y-63864805D01*
X59353621Y-63808971D01*
X59364222Y-63798654D01*
X59414909Y-63734031D01*
X59443870Y-63672010D01*
X59459909Y-63603530D01*
X58707451Y-63603530D01*
X58707590Y-63472794D01*
X58707670Y-63459792D01*
X58717829Y-63354903D01*
X58981373Y-63354903D01*
X58984485Y-63376657D01*
X59000462Y-63391649D01*
X59038543Y-63399970D01*
X59107960Y-63403549D01*
X59217942Y-63404314D01*
X59279086Y-63403521D01*
X59369338Y-63398888D01*
X59431416Y-63391038D01*
X59454510Y-63381033D01*
X59434814Y-63298677D01*
X59377151Y-63221811D01*
X59293984Y-63168484D01*
X59197911Y-63150038D01*
X59127178Y-63170832D01*
X59056471Y-63221664D01*
X59002722Y-63287892D01*
X58981373Y-63354903D01*
X58717829Y-63354903D01*
X58723248Y-63298950D01*
X58768592Y-63168106D01*
X58847712Y-63055313D01*
X58895979Y-63007600D01*
X58995663Y-62943731D01*
X59114693Y-62912784D01*
X59265043Y-62910607D01*
X59337668Y-62919139D01*
X59471727Y-62963440D01*
X59574365Y-63044069D01*
X59646480Y-63162271D01*
X59688972Y-63319291D01*
X59693286Y-63381033D01*
G36*
X59693286Y-63381033D02*
G01*
X59702740Y-63516373D01*
X59699502Y-63609330D01*
X59670010Y-63787105D01*
X59609329Y-63926892D01*
X59516922Y-64029689D01*
X59392255Y-64096496D01*
X59351976Y-64108300D01*
X59208153Y-64124786D01*
X59056289Y-64110873D01*
X58919118Y-64067935D01*
X58870794Y-64043565D01*
X58801507Y-64001819D01*
X58759517Y-63967468D01*
X58753317Y-63959620D01*
X58741719Y-63930917D01*
X58758430Y-63899714D01*
X58809321Y-63852459D01*
X58833880Y-63831887D01*
X58882260Y-63794242D01*
X58907627Y-63778855D01*
X58914894Y-63780440D01*
X58956544Y-63797574D01*
X59018726Y-63827647D01*
X59039000Y-63837540D01*
X59158600Y-63874275D01*
X59262506Y-63864805D01*
X59353621Y-63808971D01*
X59364222Y-63798654D01*
X59414909Y-63734031D01*
X59443870Y-63672010D01*
X59459909Y-63603530D01*
X58707451Y-63603530D01*
X58707590Y-63472794D01*
X58707670Y-63459792D01*
X58717829Y-63354903D01*
X58981373Y-63354903D01*
X58984485Y-63376657D01*
X59000462Y-63391649D01*
X59038543Y-63399970D01*
X59107960Y-63403549D01*
X59217942Y-63404314D01*
X59279086Y-63403521D01*
X59369338Y-63398888D01*
X59431416Y-63391038D01*
X59454510Y-63381033D01*
X59434814Y-63298677D01*
X59377151Y-63221811D01*
X59293984Y-63168484D01*
X59197911Y-63150038D01*
X59127178Y-63170832D01*
X59056471Y-63221664D01*
X59002722Y-63287892D01*
X58981373Y-63354903D01*
X58717829Y-63354903D01*
X58723248Y-63298950D01*
X58768592Y-63168106D01*
X58847712Y-63055313D01*
X58895979Y-63007600D01*
X58995663Y-62943731D01*
X59114693Y-62912784D01*
X59265043Y-62910607D01*
X59337668Y-62919139D01*
X59471727Y-62963440D01*
X59574365Y-63044069D01*
X59646480Y-63162271D01*
X59688972Y-63319291D01*
X59693286Y-63381033D01*
G37*
X58412607Y-61488035D02*
X58425566Y-61556032D01*
X58422360Y-61746632D01*
X58421943Y-61750380D01*
X58386139Y-61925271D01*
X58321449Y-62061247D01*
X58225859Y-62161296D01*
X58097353Y-62228405D01*
X58073764Y-62236079D01*
X57927551Y-62258696D01*
X57776334Y-62246084D01*
X57635750Y-62201017D01*
X57521437Y-62126269D01*
X57435812Y-62047157D01*
X57526827Y-61975191D01*
X57617842Y-61903224D01*
X57727528Y-61956514D01*
X57854445Y-61999695D01*
X57966488Y-62000987D01*
X58058157Y-61961314D01*
X58124123Y-61881683D01*
X58147771Y-61833968D01*
X58160972Y-61793189D01*
X58153334Y-61765641D01*
X58119063Y-61748731D01*
X58052368Y-61739864D01*
X57947454Y-61736445D01*
X57798530Y-61735882D01*
X57437451Y-61735882D01*
X57437451Y-61563190D01*
X57440149Y-61487376D01*
X57694385Y-61487376D01*
X57706595Y-61501321D01*
X57742748Y-61508578D01*
X57811463Y-61511332D01*
X57921362Y-61511765D01*
X57980294Y-61511073D01*
X58073290Y-61506500D01*
X58136373Y-61498491D01*
X58159608Y-61488035D01*
X58153663Y-61449456D01*
X58111762Y-61375634D01*
X58041938Y-61314990D01*
X57958699Y-61278362D01*
X57876554Y-61276589D01*
X57814721Y-61305960D01*
X57744656Y-61372800D01*
X57700106Y-61455735D01*
X57697496Y-61464562D01*
X57694385Y-61487376D01*
X57440149Y-61487376D01*
X57440702Y-61471853D01*
X57450246Y-61381484D01*
X57463881Y-61320396D01*
X57473820Y-61297074D01*
X57546166Y-61193202D01*
X57650700Y-61106569D01*
X57772949Y-61049845D01*
X57836713Y-61034355D01*
X57988645Y-61027304D01*
X58124022Y-61063174D01*
X58239122Y-61137974D01*
X58330227Y-61247711D01*
X58393615Y-61388395D01*
X58412607Y-61488035D01*
G36*
X58412607Y-61488035D02*
G01*
X58425566Y-61556032D01*
X58422360Y-61746632D01*
X58421943Y-61750380D01*
X58386139Y-61925271D01*
X58321449Y-62061247D01*
X58225859Y-62161296D01*
X58097353Y-62228405D01*
X58073764Y-62236079D01*
X57927551Y-62258696D01*
X57776334Y-62246084D01*
X57635750Y-62201017D01*
X57521437Y-62126269D01*
X57435812Y-62047157D01*
X57526827Y-61975191D01*
X57617842Y-61903224D01*
X57727528Y-61956514D01*
X57854445Y-61999695D01*
X57966488Y-62000987D01*
X58058157Y-61961314D01*
X58124123Y-61881683D01*
X58147771Y-61833968D01*
X58160972Y-61793189D01*
X58153334Y-61765641D01*
X58119063Y-61748731D01*
X58052368Y-61739864D01*
X57947454Y-61736445D01*
X57798530Y-61735882D01*
X57437451Y-61735882D01*
X57437451Y-61563190D01*
X57440149Y-61487376D01*
X57694385Y-61487376D01*
X57706595Y-61501321D01*
X57742748Y-61508578D01*
X57811463Y-61511332D01*
X57921362Y-61511765D01*
X57980294Y-61511073D01*
X58073290Y-61506500D01*
X58136373Y-61498491D01*
X58159608Y-61488035D01*
X58153663Y-61449456D01*
X58111762Y-61375634D01*
X58041938Y-61314990D01*
X57958699Y-61278362D01*
X57876554Y-61276589D01*
X57814721Y-61305960D01*
X57744656Y-61372800D01*
X57700106Y-61455735D01*
X57697496Y-61464562D01*
X57694385Y-61487376D01*
X57440149Y-61487376D01*
X57440702Y-61471853D01*
X57450246Y-61381484D01*
X57463881Y-61320396D01*
X57473820Y-61297074D01*
X57546166Y-61193202D01*
X57650700Y-61106569D01*
X57772949Y-61049845D01*
X57836713Y-61034355D01*
X57988645Y-61027304D01*
X58124022Y-61063174D01*
X58239122Y-61137974D01*
X58330227Y-61247711D01*
X58393615Y-61388395D01*
X58412607Y-61488035D01*
G37*
D13*
G04 #@! TO.C,R2*
X100972500Y-134087742D02*
X100972500Y-134562258D01*
X99927500Y-134087742D02*
X99927500Y-134562258D01*
G04 #@! TO.C,JP1*
X102080000Y-138500000D02*
X104030000Y-138500000D01*
X104030000Y-138500000D02*
X104030000Y-133000000D01*
X102080000Y-133000000D02*
X102080000Y-138500000D01*
X104030000Y-133000000D02*
X102080000Y-133000000D01*
G04 #@! TD*
M02*
